<?xml version="1.0" encoding="UTF-8" standalone="no"?>
<!DOCTYPE svg  PUBLIC '-//W3C//DTD SVG 1.1//EN'  'http://www.w3.org/Graphics/SVG/1.1/DTD/svg11.dtd'>
<svg xmlns="http://www.w3.org/2000/svg" version="1.1">
<defs>
<font id="Venera900" horiz-adv-x="1026">
<font-face units-per-em="1000" cap-height="684" font-family="Venera" x-height="684" bbox="-80 -289 1906 951" underline-thickness="50" unicode-range="U+0020-00FE" descent="-250" font-weight="900" panose-1="2 0 0 0 0 0 0 0 0 0" underline-position="-150" ascent="750"/>
<missing-glyph/>
<glyph glyph-name="space" unicode=" " horiz-adv-x="300"/>
<glyph glyph-name="exclam" d="M227 684l-15 -476h-114l-15 476h144zM233 137v-137h-156v137h156z" unicode="!" horiz-adv-x="310"/>
<glyph glyph-name="quotedbl" d="M212 684v-290h-137v290h137zM444 684v-290h-137v290h137z" unicode='&quot;' horiz-adv-x="519"/>
<glyph glyph-name="numbersign" d="M93 407v109h124l23 122h109l-23 -122h200l23 122h109l-23 -122h104v-109h-124l-27 -143h105v-109h-125l-23 -123h-109l23 123h-201l-23 -123h-109l23 123h-103v109h123l27 143h-103zM305 407l-27 -143h201l27 143h-201z" unicode="#" horiz-adv-x="786"/>
<glyph glyph-name="dollar" d="M441 798h117v-114h317v-123h-571q-110 0 -110 -67q0 -33 29.5 -48.5t113.5 -22.5l318 -25q125 -10 194.5 -57t69.5 -146q0 -91 -64 -143t-202 -52h-142v-146h-117v146h-343v124h609q116 0 116 66q0 37 -33.5 55.5t-110.5 24.5l-333 26q-245 19 -245 195q0 99 73 146 t189 47h125v114z" unicode="$" horiz-adv-x="956"/>
<glyph glyph-name="percent" d="M845 351q111 0 160 -51.5t49 -129.5t-49 -129.5t-160 -51.5t-160 51.5t-49 129.5t49 129.5t160 51.5zM845 79q51 0 72.5 23.5t21.5 67.5t-21.5 67.5t-72.5 23.5t-72.5 -23.5t-21.5 -67.5t21.5 -67.5t72.5 -23.5zM454 513q0 -78 -49 -129.5t-160 -51.5t-160 51.5 t-49 129.5t49 129.5t160 51.5t160 -51.5t49 -129.5zM151 513q0 -44 21.5 -67.5t72.5 -23.5t72.5 23.5t21.5 67.5t-21.5 67.5t-72.5 23.5t-72.5 -23.5t-21.5 -67.5zM798 684h147l-652 -684h-147z" unicode="%" horiz-adv-x="1090"/>
<glyph glyph-name="ampersand" d="M607 0h-285q-136 0 -201.5 50t-65.5 135q0 125 135 164q-117 37 -117 154q0 20 3 38.5t18.5 46.5t41.5 47.5t78 34t122 14.5h477v-123h-488q-52 0 -78.5 -21.5t-26.5 -56.5t27 -54.5t78 -19.5h625v-119h-93v-95q0 -88 -60 -141.5t-190 -53.5zM723 290h-408q-57 0 -84 -26 t-27 -60q0 -33 26.5 -57t84.5 -24h297q58 0 84.5 24t26.5 57v86z" unicode="&amp;" horiz-adv-x="985"/>
<glyph glyph-name="quotesingle" d="M212 684v-290h-137v290h137z" unicode="&apos;" horiz-adv-x="287"/>
<glyph glyph-name="parenleft" d="M183 332q0 -243 103 -437h-130q-103 194 -103 437t103 437h130q-103 -194 -103 -437z" unicode="(" horiz-adv-x="325"/>
<glyph glyph-name="parenright" d="M142 332q0 243 -103 437h130q103 -194 103 -437t-103 -437h-130q103 194 103 437z" unicode=")" horiz-adv-x="325"/>
<glyph glyph-name="asterisk" d="M238 547l-21 173h100l-21 -173h-58zM231 543l-18 -56l-170 34l31 95zM98 352l118 127l47 -34l-85 -152zM321 487l-18 56l158 73l30 -95zM356 293l-85 152l47 34l119 -127z" unicode="*" horiz-adv-x="534"/>
<glyph glyph-name="plus" d="M663 402v-111h-254v-204h-111v204h-254v111h254v204h111v-204h254z" unicode="+" horiz-adv-x="707"/>
<glyph glyph-name="comma" d="M256 157l-107 -270h-117l68 270h156z" unicode="," horiz-adv-x="323"/>
<glyph glyph-name="hyphen" d="M449 409v-125h-374v125h374z" unicode="-" horiz-adv-x="524"/>
<glyph glyph-name="period" d="M231 157v-157h-156v157h156z" unicode="." horiz-adv-x="306"/>
<glyph glyph-name="slash" d="M153 -105h-127l391 874h127z" unicode="/" horiz-adv-x="570"/>
<glyph glyph-name="zero" unicode="0" d="M513 694q240 0 350 -81.5t110 -270.5t-110 -270.5t-350 -81.5t-350 81.5t-110 270.5t110 270.5t350 81.5zM513 125q176 0 245 43t69 174t-69 174t-245 43t-245 -43t-69 -174t69 -174t245 -43z"/>
<glyph glyph-name="one" d="M354 684v-684h-143v559h-185v125h328z" unicode="1" horiz-adv-x="439"/>
<glyph glyph-name="two" d="M862 128v-128h-811v125q0 34 14 63.5t35.5 51t56.5 41t67.5 32.5t79.5 25.5t81.5 20.5t83.5 18q7 1 10 2q41 9 62 13.5t53 13.5t48 16.5t34 18.5t25 24.5t7 29.5q0 59 -84 59h-549v130h547q108 0 173.5 -49t65.5 -135q0 -44 -19.5 -80t-49 -60.5t-76 -45t-88.5 -32.5 t-99 -25q-25 -5 -66.5 -14t-65.5 -14t-57.5 -13t-52.5 -15.5t-37.5 -17.5t-27 -21.5t-8.5 -25.5v-8h648z" unicode="2" horiz-adv-x="921"/>
<glyph glyph-name="three" d="M694 483q0 72 -105 72h-521v129h502q70 0 122 -14.5t78 -34t41.5 -47.5t18.5 -46.5t3 -38.5q0 -117 -117 -154q135 -39 135 -164q0 -85 -65.5 -135t-201.5 -50h-521v129h536q111 0 111 75q0 34 -26.5 58t-84.5 24h-516v128h506q105 0 105 69z" unicode="3" horiz-adv-x="906"/>
<glyph glyph-name="four" d="M840 201v-201h-143v197h-442q-68 0 -115 18.5t-68.5 48.5t-29.5 56.5t-8 55.5q0 28 11 64l74 244h148l-74 -250q-8 -27 -8 -49q0 -56 84 -56h428v355h143v-354h120v-129h-120z" unicode="4" horiz-adv-x="996"/>
<glyph glyph-name="five" d="M617 0h-559v131h566q59 0 85 21.5t26 54.5t-26 54.5t-85 21.5h-513l-41 44l28 357h736v-132h-609l-9 -144h404q135 0 199.5 -55t64.5 -146q0 -93 -65.5 -150t-201.5 -57z" unicode="5" horiz-adv-x="927"/>
<glyph glyph-name="six" d="M678 0h-347q-134 0 -195.5 55t-61.5 149v276q0 94 61.5 149t195.5 55h534v-128h-541q-101 0 -101 -76v-72h455q135 0 198.5 -55t63.5 -149t-63.5 -149t-198.5 -55zM685 285h-462v-81q0 -80 101 -80h361q57 0 81.5 23t24.5 57t-24.5 57.5t-81.5 23.5z" unicode="6" horiz-adv-x="979"/>
<glyph glyph-name="seven" d="M447 115v-115h-156v115q0 50 21 92.5t54.5 73.5t74.5 58.5t81.5 51t74 47t54.5 52.5t21 60v9h-646v125h805v-112q0 -56 -21 -103t-55 -78.5t-75 -58.5t-82 -50t-75 -46.5t-55 -54t-21 -66.5z" unicode="7" horiz-adv-x="860"/>
<glyph glyph-name="eight" d="M73 503q0 20 3 38.5t18.5 46.5t41.5 47.5t78 34t122 14.5h276q70 0 122 -14.5t78 -34t41.5 -47.5t18.5 -46.5t3 -38.5q0 -117 -117 -154q135 -39 135 -164q0 -85 -65.5 -135t-201.5 -50h-304q-136 0 -201.5 50t-65.5 135q0 125 135 164q-117 37 -117 154zM310 123h328 q58 0 84.5 24t26.5 57q0 34 -27 60t-84 26h-328q-57 0 -84 -26t-27 -60q0 -33 26.5 -57t84.5 -24zM628 566h-308q-52 0 -78.5 -22.5t-26.5 -57.5q0 -36 27.5 -56.5t77.5 -20.5h308q50 0 77.5 20.5t27.5 56.5q0 35 -26.5 57.5t-78.5 22.5z" unicode="8" horiz-adv-x="948"/>
<glyph glyph-name="nine" d="M648 0h-564v127h571q101 0 101 77v64h-447q-135 0 -199 57t-64 151t64 151t199 57h339q134 0 195.5 -55t61.5 -149v-276q0 -94 -61.5 -149t-195.5 -55zM655 561h-353q-60 0 -83.5 -25t-23.5 -60t23.5 -60t83.5 -25h454v89q0 81 -101 81z" unicode="9" horiz-adv-x="979"/>
<glyph glyph-name="colon" d="M231 157v-157h-156v157h156zM231 630v-157h-156v157h156z" unicode=":" horiz-adv-x="306"/>
<glyph glyph-name="semicolon" d="M275 157l-107 -270h-117l68 270h156zM261 630v-157h-156v157h156z" unicode=";" horiz-adv-x="357"/>
<glyph glyph-name="less" d="M205 346l287 -133v-131l-456 235v58l456 235v-131z" unicode="&lt;" horiz-adv-x="568"/>
<glyph glyph-name="equal" d="M694 260v-119h-619v119h619zM694 552v-119h-619v119h619z" unicode="=" horiz-adv-x="769"/>
<glyph glyph-name="greater" d="M76 213l287 133l-287 133v131l456 -235v-58l-456 -235v131z" unicode="&gt;" horiz-adv-x="568"/>
<glyph glyph-name="question" d="M362 239v-41h-133v50q0 32 4 53t23 46t55 39l163 66q49 20 49 55q0 51 -80 51h-407v126h396q110 0 171.5 -44t61.5 -128q0 -117 -130 -170l-139 -57q-20 -8 -27 -16t-7 -30zM373 137v-137h-156v137h156z" unicode="?" horiz-adv-x="702"/>
<glyph glyph-name="at" d="M900 23v-108h-408q-211 0 -324.5 85t-113.5 259v135q0 174 113.5 259t324.5 85h80q211 0 324.5 -85t113.5 -259v-253h-501q-119 0 -178.5 36t-59.5 122v55q0 87 59.5 122.5t178.5 35.5h46q120 0 179 -35.5t59 -122.5v-109h105v156q0 229 -326 229h-80q-326 0 -326 -229 v-149q0 -229 326 -229h408zM565 408h-66q-55 0 -83.5 -10.5t-28.5 -43.5v-55q0 -33 29 -43.5t83 -10.5h178v109q0 33 -28.5 43.5t-83.5 10.5z" unicode="@" horiz-adv-x="1060"/>
<glyph glyph-name="A" unicode="A" d="M725 549l281 -549h-154l-87 169h-504l-87 -169h-153l280 549q36 72 83.5 108.5t128.5 36.5t128 -36.5t84 -108.5zM699 296l-115 224q-24 47 -71 47t-71 -47l-116 -224h373z"/>
<glyph glyph-name="B" d="M933 503q0 -117 -117 -154q135 -39 135 -164q0 -85 -65.5 -135t-201.5 -50h-599v684h585q70 0 122 -14.5t78 -34t41.5 -47.5t18.5 -46.5t3 -38.5zM689 289h-466v-161h476q58 0 84.5 22t26.5 54q0 34 -28.5 59.5t-92.5 25.5zM223 411h456q115 0 115 72q0 35 -26 55t-79 20 h-466v-147z" unicode="B" horiz-adv-x="1004"/>
<glyph glyph-name="C" d="M925 684v-139h-541q-60 0 -97.5 -12.5t-56 -41t-24.5 -61.5t-6 -88t6 -88t24.5 -61.5t56 -40.5t97.5 -12h541v-140h-541q-179 0 -254.5 83.5t-75.5 258.5t75.5 258.5t254.5 83.5h541z" unicode="C" horiz-adv-x="976"/>
<glyph glyph-name="D" d="M85 0v684h562q178 0 253.5 -83.5t75.5 -258.5t-75.5 -258.5t-253.5 -83.5h-562zM830 342q0 55 -6 88t-24.5 61.5t-55.5 41t-97 12.5h-419v-405h419q60 0 97 12t55.5 40.5t24.5 61.5t6 88z" unicode="D" horiz-adv-x="1030"/>
<glyph glyph-name="E" d="M926 548h-542q-96 0 -136 -34.5t-48 -107.5h714v-128h-714q8 -73 48 -107t136 -34h542v-137h-542q-179 0 -254.5 84t-75.5 258t75.5 258t254.5 84h542v-136z" unicode="E" horiz-adv-x="991"/>
<glyph glyph-name="F" d="M899 544h-455q-66 0 -104.5 -5.5t-68 -22.5t-40.5 -49t-11 -85v-19h654v-127h-654v-236h-143v382q0 169 87.5 235.5t279.5 66.5h455v-140z" unicode="F" horiz-adv-x="943"/>
<glyph glyph-name="G" d="M782 373h143v-373h-542q-178 0 -253.5 84t-75.5 259q0 174 75.5 257.5t253.5 83.5h534v-139h-534q-60 0 -97 -12t-55.5 -40.5t-24.5 -61.5t-6 -88t6 -88.5t24.5 -62t55.5 -40.5t97 -12h399v233z" unicode="G" horiz-adv-x="993"/>
<glyph glyph-name="H" d="M945 0h-143v279h-574v-279h-143v684h143v-278h574v278h143v-684z" unicode="H" horiz-adv-x="1030"/>
<glyph glyph-name="I" d="M85 684h143v-684h-143v684z" unicode="I" horiz-adv-x="313"/>
<glyph glyph-name="J" d="M22 0v140h331q109 0 148 29.5t39 113.5v401h143v-401q0 -152 -79 -217.5t-251 -65.5h-331z" unicode="J" horiz-adv-x="761"/>
<glyph glyph-name="K" d="M941 0h-191l-149 200q-62 85 -132 85h-241v-285h-143v684h143v-272h224q68 0 135 84l146 188h191l-214 -248q-49 -58 -105 -84q69 -23 122 -89z" unicode="K" horiz-adv-x="944"/>
<glyph glyph-name="L" d="M78 684h143v-401q0 -84 39 -113.5t148 -29.5h456v-140h-456q-172 0 -251 65.5t-79 217.5v401z" unicode="L" horiz-adv-x="886"/>
<glyph glyph-name="M" d="M550 141l-325 392v-533h-140v684h139q25 0 44.5 -9t29 -18t23.5 -26l284 -349l284 349q14 17 23.5 26t29 18t44.5 9h139v-684h-140v533l-325 -392h-110z" unicode="M" horiz-adv-x="1210"/>
<glyph glyph-name="N" d="M228 539v-539h-143v684h101q47 0 81.5 -4.5t68 -20.5t57.5 -33.5t59 -57t63 -76.5t78 -106q125 -172 160 -206.5t89 -34.5h1v539h143v-684h-101q-44 0 -75.5 4.5t-64 19.5t-56.5 32.5t-60 56.5t-67 77.5t-84 108.5q-8 11 -24 31q-117 153 -146 180t-66 29h-13h-1z" unicode="N" horiz-adv-x="1071"/>
<glyph glyph-name="O" d="M531 694q252 0 366 -79t114 -273t-114 -273t-366 -79t-366 79t-114 273t114 273t366 79zM531 125q92 0 148 7t101.5 29.5t65 66t19.5 114.5t-19.5 114.5t-65 66t-101.5 29.5t-148 7t-148 -7t-101.5 -29.5t-65 -66t-19.5 -114.5t19.5 -114.5t65 -66t101.5 -29.5t148 -7z " unicode="O" horiz-adv-x="1062"/>
<glyph glyph-name="P" d="M85 684h593q135 0 204 -65t69 -164q0 -100 -69.5 -165.5t-203.5 -65.5h-450v-224h-143v684zM228 350h457q60 0 88.5 32t28.5 72t-29 72t-88 32h-457v-208z" unicode="P" horiz-adv-x="982"/>
<glyph glyph-name="Q" d="M937 -158h-185l-74 89q-31 36 -59 47.5t-88 11.5q-252 0 -366 79t-114 273t114 273t366 79t366 -79t114 -273q0 -139 -57 -217t-178 -110q9 -9 27 -28.5t27 -29.5zM531 125q92 0 148 7t101.5 29.5t65 66t19.5 114.5t-19.5 114.5t-65 66t-101.5 29.5t-148 7t-148 -7 t-101.5 -29.5t-65 -66t-19.5 -114.5t19.5 -114.5t65 -66t101.5 -29.5t148 -7z" unicode="Q" horiz-adv-x="1062"/>
<glyph glyph-name="R" d="M85 0v684h594q127 0 199.5 -55.5t72.5 -157.5q0 -140 -140 -181q125 -40 125 -155v-135h-148v138q0 35 -25 61t-87 26h-448v-225h-143zM228 352h462q60 0 87.5 31t27.5 72t-27.5 72t-87.5 31h-462v-206z" unicode="R" horiz-adv-x="1008"/>
<glyph glyph-name="S" d="M56 128h608q111 0 111 64q0 35 -33 53t-106 24l-331 26q-246 19 -246 193q0 102 73.5 149t189.5 47h556v-128h-569q-105 0 -105 -64q0 -30 28.5 -45.5t109.5 -21.5l315 -25q129 -10 197 -57t68 -145q0 -92 -64.5 -145t-202.5 -53h-599v128z" unicode="S" horiz-adv-x="964"/>
<glyph glyph-name="T" d="M502 0h-143v555h-340v129h823v-129h-340v-555z" unicode="T" horiz-adv-x="861"/>
<glyph glyph-name="U" d="M75 330v354h143v-354q0 -122 56 -161.5t225 -39.5t224.5 39.5t55.5 161.5v354h143v-354q0 -185 -96.5 -262.5t-326.5 -77.5t-327 77.5t-97 262.5z" unicode="U" horiz-adv-x="997"/>
<glyph glyph-name="V" d="M835 684h157l-272 -549q-35 -71 -83.5 -108t-130.5 -37t-130.5 37t-83.5 108l-272 549h157l258 -512q24 -46 71 -46t71 46z" unicode="V" horiz-adv-x="1012"/>
<glyph glyph-name="W" d="M1277 684h151l-247 -553q-63 -141 -205 -141q-138 0 -201 129l-51 104l-50 -104q-32 -65 -84.5 -97t-116.5 -32q-142 0 -205 141l-247 553h151l224 -501q15 -33 32 -45.5t44 -12.5q52 0 77 52l99 203l-147 304h144l79 -164l80 164h144l-147 -304l99 -203q25 -52 77 -52 q27 0 44 12.5t32 45.5z" unicode="W" horiz-adv-x="1449"/>
<glyph glyph-name="X" d="M924 0h-196l-207 216q-42 42 -57 62q-15 -21 -56 -62l-207 -216h-196l351 347l-339 337h201l190 -204q27 -27 56 -64q12 17 57 64l190 204h199l-338 -337z" unicode="X" horiz-adv-x="928"/>
<glyph glyph-name="Y" d="M4 684h208l210 -253l21 -24.5t26.5 -32t20.5 -30.5q9 16 19.5 30t28 33.5t21.5 23.5l210 253h208l-338 -369q-1 -1 -11 -11.5t-14.5 -16t-14 -16.5t-14.5 -19t-11 -18.5t-9 -20t-3 -17.5v-196h-143v196q0 10 -4.5 22t-10 22t-16.5 23.5t-16.5 19.5t-17 18.5t-12.5 13.5z " unicode="Y" horiz-adv-x="981"/>
<glyph glyph-name="Z" d="M390 385q177 58 225 83q74 39 74 88v1h-625v127h785v-95q0 -52 -22.5 -96t-54.5 -73.5t-85 -57t-94 -42.5t-102 -35q-156 -49 -192 -66q-87 -40 -87 -91v-1h656v-127h-817v95q0 36 10.5 67.5t26.5 55.5t44.5 46.5t53 37.5t64.5 31.5t67.5 26.5t72.5 25z" unicode="Z" horiz-adv-x="915"/>
<glyph glyph-name="bracketleft" d="M81 -105v874h276v-111h-152v-652h152v-111h-276z" unicode="[" horiz-adv-x="402"/>
<glyph glyph-name="backslash" d="M544 -105h-127l-391 874h127z" unicode="\" horiz-adv-x="570"/>
<glyph glyph-name="bracketright" d="M45 769h276v-874h-276v111h152v652h-152v111z" unicode="]" horiz-adv-x="402"/>
<glyph glyph-name="asciicircum" d="M330 558l-163 -207h-141l275 376h58l275 -376h-141z" unicode="^" horiz-adv-x="664"/>
<glyph glyph-name="underscore" d="M787 -66v-115h-713v115h713z" unicode="_" horiz-adv-x="859"/>
<glyph glyph-name="grave" d="M269 930l128 -184h-126l-164 184h162z" unicode="`" horiz-adv-x="500"/>
<glyph glyph-name="a" unicode="a" d="M725 549l281 -549h-154l-87 169h-504l-87 -169h-153l280 549q36 72 83.5 108.5t128.5 36.5t128 -36.5t84 -108.5zM699 296l-115 224q-24 47 -71 47t-71 -47l-116 -224h373z"/>
<glyph glyph-name="b" d="M933 503q0 -117 -117 -154q135 -39 135 -164q0 -85 -65.5 -135t-201.5 -50h-599v684h585q70 0 122 -14.5t78 -34t41.5 -47.5t18.5 -46.5t3 -38.5zM689 289h-466v-161h476q58 0 84.5 22t26.5 54q0 34 -28.5 59.5t-92.5 25.5zM223 411h456q115 0 115 72q0 35 -26 55t-79 20 h-466v-147z" unicode="b" horiz-adv-x="1004"/>
<glyph glyph-name="c" d="M925 684v-139h-541q-60 0 -97.5 -12.5t-56 -41t-24.5 -61.5t-6 -88t6 -88t24.5 -61.5t56 -40.5t97.5 -12h541v-140h-541q-179 0 -254.5 83.5t-75.5 258.5t75.5 258.5t254.5 83.5h541z" unicode="c" horiz-adv-x="976"/>
<glyph glyph-name="d" d="M85 0v684h562q178 0 253.5 -83.5t75.5 -258.5t-75.5 -258.5t-253.5 -83.5h-562zM830 342q0 55 -6 88t-24.5 61.5t-55.5 41t-97 12.5h-419v-405h419q60 0 97 12t55.5 40.5t24.5 61.5t6 88z" unicode="d" horiz-adv-x="1030"/>
<glyph glyph-name="e" d="M926 548h-542q-96 0 -136 -34.5t-48 -107.5h714v-128h-714q8 -73 48 -107t136 -34h542v-137h-542q-179 0 -254.5 84t-75.5 258t75.5 258t254.5 84h542v-136z" unicode="e" horiz-adv-x="991"/>
<glyph glyph-name="f" d="M899 544h-455q-66 0 -104.5 -5.5t-68 -22.5t-40.5 -49t-11 -85v-19h654v-127h-654v-236h-143v382q0 169 87.5 235.5t279.5 66.5h455v-140z" unicode="f" horiz-adv-x="943"/>
<glyph glyph-name="g" d="M782 373h143v-373h-542q-178 0 -253.5 84t-75.5 259q0 174 75.5 257.5t253.5 83.5h534v-139h-534q-60 0 -97 -12t-55.5 -40.5t-24.5 -61.5t-6 -88t6 -88.5t24.5 -62t55.5 -40.5t97 -12h399v233z" unicode="g" horiz-adv-x="993"/>
<glyph glyph-name="h" d="M945 0h-143v279h-574v-279h-143v684h143v-278h574v278h143v-684z" unicode="h" horiz-adv-x="1030"/>
<glyph glyph-name="i" d="M85 684h143v-684h-143v684z" unicode="i" horiz-adv-x="313"/>
<glyph glyph-name="j" d="M22 0v140h331q109 0 148 29.5t39 113.5v401h143v-401q0 -152 -79 -217.5t-251 -65.5h-331z" unicode="j" horiz-adv-x="761"/>
<glyph glyph-name="k" d="M941 0h-191l-149 200q-62 85 -132 85h-241v-285h-143v684h143v-272h224q68 0 135 84l146 188h191l-214 -248q-49 -58 -105 -84q69 -23 122 -89z" unicode="k" horiz-adv-x="944"/>
<glyph glyph-name="l" d="M78 684h143v-401q0 -84 39 -113.5t148 -29.5h456v-140h-456q-172 0 -251 65.5t-79 217.5v401z" unicode="l" horiz-adv-x="886"/>
<glyph glyph-name="m" d="M550 141l-325 392v-533h-140v684h139q25 0 44.5 -9t29 -18t23.5 -26l284 -349l284 349q14 17 23.5 26t29 18t44.5 9h139v-684h-140v533l-325 -392h-110z" unicode="m" horiz-adv-x="1210"/>
<glyph glyph-name="n" d="M228 539v-539h-143v684h101q47 0 81.5 -4.5t68 -20.5t57.5 -33.5t59 -57t63 -76.5t78 -106q125 -172 160 -206.5t89 -34.5h1v539h143v-684h-101q-44 0 -75.5 4.5t-64 19.5t-56.5 32.5t-60 56.5t-67 77.5t-84 108.5q-8 11 -24 31q-117 153 -146 180t-66 29h-13h-1z" unicode="n" horiz-adv-x="1071"/>
<glyph glyph-name="o" d="M531 694q252 0 366 -79t114 -273t-114 -273t-366 -79t-366 79t-114 273t114 273t366 79zM531 125q92 0 148 7t101.5 29.5t65 66t19.5 114.5t-19.5 114.5t-65 66t-101.5 29.5t-148 7t-148 -7t-101.5 -29.5t-65 -66t-19.5 -114.5t19.5 -114.5t65 -66t101.5 -29.5t148 -7z " unicode="o" horiz-adv-x="1062"/>
<glyph glyph-name="p" d="M85 684h593q135 0 204 -65t69 -164q0 -100 -69.5 -165.5t-203.5 -65.5h-450v-224h-143v684zM228 350h457q60 0 88.5 32t28.5 72t-29 72t-88 32h-457v-208z" unicode="p" horiz-adv-x="982"/>
<glyph glyph-name="q" d="M937 -158h-185l-74 89q-31 36 -59 47.5t-88 11.5q-252 0 -366 79t-114 273t114 273t366 79t366 -79t114 -273q0 -139 -57 -217t-178 -110q9 -9 27 -28.5t27 -29.5zM531 125q92 0 148 7t101.5 29.5t65 66t19.5 114.5t-19.5 114.5t-65 66t-101.5 29.5t-148 7t-148 -7 t-101.5 -29.5t-65 -66t-19.5 -114.5t19.5 -114.5t65 -66t101.5 -29.5t148 -7z" unicode="q" horiz-adv-x="1062"/>
<glyph glyph-name="r" d="M85 0v684h594q127 0 199.5 -55.5t72.5 -157.5q0 -140 -140 -181q125 -40 125 -155v-135h-148v138q0 35 -25 61t-87 26h-448v-225h-143zM228 352h462q60 0 87.5 31t27.5 72t-27.5 72t-87.5 31h-462v-206z" unicode="r" horiz-adv-x="1008"/>
<glyph glyph-name="s" d="M56 128h608q111 0 111 64q0 35 -33 53t-106 24l-331 26q-246 19 -246 193q0 102 73.5 149t189.5 47h556v-128h-569q-105 0 -105 -64q0 -30 28.5 -45.5t109.5 -21.5l315 -25q129 -10 197 -57t68 -145q0 -92 -64.5 -145t-202.5 -53h-599v128z" unicode="s" horiz-adv-x="964"/>
<glyph glyph-name="t" d="M502 0h-143v555h-340v129h823v-129h-340v-555z" unicode="t" horiz-adv-x="861"/>
<glyph glyph-name="u" d="M75 330v354h143v-354q0 -122 56 -161.5t225 -39.5t224.5 39.5t55.5 161.5v354h143v-354q0 -185 -96.5 -262.5t-326.5 -77.5t-327 77.5t-97 262.5z" unicode="u" horiz-adv-x="997"/>
<glyph glyph-name="v" d="M835 684h157l-272 -549q-35 -71 -83.5 -108t-130.5 -37t-130.5 37t-83.5 108l-272 549h157l258 -512q24 -46 71 -46t71 46z" unicode="v" horiz-adv-x="1012"/>
<glyph glyph-name="w" d="M1277 684h151l-247 -553q-63 -141 -205 -141q-138 0 -201 129l-51 104l-50 -104q-32 -65 -84.5 -97t-116.5 -32q-142 0 -205 141l-247 553h151l224 -501q15 -33 32 -45.5t44 -12.5q52 0 77 52l99 203l-147 304h144l79 -164l80 164h144l-147 -304l99 -203q25 -52 77 -52 q27 0 44 12.5t32 45.5z" unicode="w" horiz-adv-x="1449"/>
<glyph glyph-name="x" d="M924 0h-196l-207 216q-42 42 -57 62q-15 -21 -56 -62l-207 -216h-196l351 347l-339 337h201l190 -204q27 -27 56 -64q12 17 57 64l190 204h199l-338 -337z" unicode="x" horiz-adv-x="928"/>
<glyph glyph-name="y" d="M4 684h208l210 -253l21 -24.5t26.5 -32t20.5 -30.5q9 16 19.5 30t28 33.5t21.5 23.5l210 253h208l-338 -369q-1 -1 -11 -11.5t-14.5 -16t-14 -16.5t-14.5 -19t-11 -18.5t-9 -20t-3 -17.5v-196h-143v196q0 10 -4.5 22t-10 22t-16.5 23.5t-16.5 19.5t-17 18.5t-12.5 13.5z " unicode="y" horiz-adv-x="981"/>
<glyph glyph-name="z" d="M390 385q177 58 225 83q74 39 74 88v1h-625v127h785v-95q0 -52 -22.5 -96t-54.5 -73.5t-85 -57t-94 -42.5t-102 -35q-156 -49 -192 -66q-87 -40 -87 -91v-1h656v-127h-817v95q0 36 10.5 67.5t26.5 55.5t44.5 46.5t53 37.5t64.5 31.5t67.5 26.5t72.5 25z" unicode="z" horiz-adv-x="915"/>
<glyph glyph-name="braceleft" d="M151 486v165q0 52 32.5 85t84.5 33h159v-111h-121q-31 0 -31 -31v-164q0 -87 -80 -131q80 -44 80 -131v-164q0 -31 31 -31h121v-111h-159q-52 0 -84.5 33t-32.5 85v165q0 50 -36 78t-93 28v96q57 0 93 28t36 78z" unicode="{" horiz-adv-x="472"/>
<glyph glyph-name="bar" d="M81 769h124v-874h-124v874z" unicode="|" horiz-adv-x="286"/>
<glyph glyph-name="braceright" d="M321 651v-165q0 -50 36 -78t93 -28v-96q-57 0 -93 -28t-36 -78v-165q0 -52 -32.5 -85t-84.5 -33h-159v111h121q31 0 31 31v164q0 88 80 131q-80 43 -80 131v164q0 31 -31 31h-121v111h159q52 0 84.5 -33t32.5 -85z" unicode="}" horiz-adv-x="472"/>
<glyph glyph-name="asciitilde" d="M526 233q-40 0 -80 15t-67 32.5t-60.5 32.5t-61.5 15q-24 0 -40.5 -9t-24 -27t-9.5 -24.5t-4 -23.5h-116q6 39 17.5 72.5t32.5 67t57 53t84 19.5q51 0 100.5 -24t92.5 -48t77 -24q10 0 19 2t16 5t12.5 8t9.5 9.5t7.5 11t5.5 11t3.5 11.5t2 10l1.5 9t1 7h116 q-5 -39 -17 -72.5t-33.5 -66.5t-58 -52.5t-83.5 -19.5z" unicode="~" horiz-adv-x="781"/>
<glyph glyph-name="exclamdown" d="M212 476l15 -476h-144l15 476h114zM233 684v-137h-156v137h156z" unicode="¡" horiz-adv-x="310"/>
<glyph glyph-name="cent" d="M502 61v-136h-114v136h-88q-142 0 -202 66.5t-60 204.5t60 204.5t202 66.5h88v108h114v-108h169v-128h-371q-80 0 -104 -33t-24 -110t24 -109.5t104 -32.5h371v-129h-169z" unicode="¢" horiz-adv-x="731"/>
<glyph glyph-name="sterling" d="M848 124v-124h-801v103l129 20v132h-120v117h120v29q0 152 76.5 217.5t247.5 65.5h293v-129h-293q-106 0 -146.5 -34.5t-40.5 -119.5v-29h306v-117h-306v-131h535z" unicode="£" horiz-adv-x="888"/>
<glyph glyph-name="currency" d="M237 115l-98 -98l-88 88l99 99q-32 58 -32 136t32 136l-99 100l88 88l99 -100q80 46 200 46t200 -46l100 100l88 -88l-100 -100q32 -58 32 -136t-32 -136l100 -99l-88 -88l-99 99q-77 -46 -201 -46q-123 0 -201 45zM438 495q-88 0 -136.5 -38.5t-48.5 -116.5t48.5 -116.5 t136.5 -38.5t136.5 38.5t48.5 116.5t-48.5 116.5t-136.5 38.5z" unicode="¤" horiz-adv-x="877"/>
<glyph glyph-name="yen" d="M806 215v-101h-277v-114h-132v114h-276v101h276v1q0 41 -35 86h-241v101h154l-35 40q-8 9 -87.5 101t-120.5 140h193l185 -234q37 -46 53 -87q15 39 53 87l185 234h193q-69 -81 -209 -241l-35 -40h155v-101h-241q-35 -45 -35 -86v-1h277z" unicode="¥" horiz-adv-x="926"/>
<glyph glyph-name="brokenbar" d="M82 769h124v-365h-124v365zM82 288h124v-393h-124v393z" unicode="¦" horiz-adv-x="288"/>
<glyph glyph-name="section" d="M266 684h470v-107h-481q-49 0 -49 -34q0 -32 55 -36l333 -21q90 -6 136.5 -41.5t46.5 -94.5q0 -75 -71 -112q29 -35 29 -89q0 -75 -49 -112t-130 -37h-480v111h491q49 0 49 34q0 28 -55 32l-333 21q-90 6 -136.5 41.5t-46.5 94.5q0 74 72 112q-30 34 -30 92 q0 74 48.5 110t130.5 36zM167 360q0 -18 16 -32t53 -16l344 -22q22 -2 42 -6q33 13 33 41q0 45 -69 50l-344 22q-15 1 -41 5q-34 -15 -34 -42z" unicode="§" horiz-adv-x="820"/>
<glyph glyph-name="dieresis" d="M250 894v-135h-141v135h141zM507 894v-135h-141v135h141z" unicode="¨" horiz-adv-x="613"/>
<glyph glyph-name="copyright" d="M737 250v-83h-272q-92 0 -131 43t-39 132t39 132t131 43h272v-83h-272q-52 0 -67.5 -21t-15.5 -71t15.5 -71t67.5 -21h272zM544 719q253 0 373.5 -90t120.5 -287t-120.5 -287t-373.5 -90t-373 90t-120 287t120 287t373 90zM544 48q106 0 176 12.5t122.5 45t76 90.5 t23.5 146t-23.5 146t-76 90.5t-122.5 45t-176 12.5q-105 0 -175 -12.5t-122.5 -45t-76 -90.5t-23.5 -146t23.5 -146t76 -90.5t122.5 -45t175 -12.5z" unicode="©" horiz-adv-x="1089"/>
<glyph glyph-name="guillemotleft" d="M253 346l210 -119v-145l-432 264l432 264v-145zM648 346l210 -119v-145l-432 264l432 264v-145z" unicode="«" horiz-adv-x="939"/>
<glyph glyph-name="uni00AD" d="M449 409v-125h-374v125h374z" unicode="­" horiz-adv-x="524"/>
<glyph glyph-name="registered" d="M544 719q253 0 373.5 -90t120.5 -287t-120.5 -287t-373.5 -90t-373 90t-120 287t120 287t373 90zM544 48q106 0 176 12.5t122.5 45t76 90.5t23.5 146t-23.5 146t-76 90.5t-122.5 45t-176 12.5q-105 0 -175 -12.5t-122.5 -45t-76 -90.5t-23.5 -146t23.5 -146t76 -90.5 t122.5 -45t175 -12.5zM331 516h299q66 0 103 -29t37 -82q0 -66 -60 -90q53 -22 53 -75v-74h-87v75q0 35 -48 35h-212v-110h-85v350zM416 353h214q30 0 42.5 13t12.5 31q0 43 -55 43h-214v-87z" unicode="®" horiz-adv-x="1089"/>
<glyph glyph-name="degree" d="M233 359q-74 0 -126.5 52.5t-52.5 126.5t52.5 126.5t126.5 52.5t126.5 -52.5t52.5 -126.5t-52.5 -126.5t-126.5 -52.5zM233 625q-36 0 -61.5 -25.5t-25.5 -61.5t25.5 -61.5t61.5 -25.5t61.5 25.5t25.5 61.5t-25.5 61.5t-61.5 25.5z" unicode="°" horiz-adv-x="466"/>
<glyph glyph-name="plusminus" d="M686 466v-111h-254v-174h-111v174h-254v111h254v174h111v-174h254zM686 111v-111h-619v111h619z" unicode="±" horiz-adv-x="753"/>
<glyph glyph-name="acute" d="M127 746l128 184h162l-164 -184h-126z" unicode="´" horiz-adv-x="545"/>
<glyph glyph-name="paragraph" d="M819 684v-684h-136v564h-84v-564h-136v224h-159q-134 0 -200.5 65t-66.5 166q0 100 66.5 164.5t200.5 64.5h515zM463 344v220h-167q-59 0 -88 -34.5t-29 -75.5t28.5 -75.5t88.5 -34.5h167z" unicode="¶" horiz-adv-x="905"/>
<glyph glyph-name="periodcentered" d="M231 453v-157h-156v157h156z" unicode="·" horiz-adv-x="306"/>
<glyph glyph-name="cedilla" d="M68 -201h141q59 0 59 41q0 39 -59 39h-108l50 165h101l-31 -87h9q76 0 115.5 -33t39.5 -88q0 -35 -17 -61t-46 -39t-60.5 -19t-67.5 -6h-146z" unicode="¸" horiz-adv-x="444"/>
<glyph glyph-name="guillemotright" d="M476 227l210 119l-210 119v145l432 -264l-432 -264v145zM81 227l210 119l-210 119v145l432 -264l-432 -264v145z" unicode="»" horiz-adv-x="939"/>
<glyph glyph-name="questiondown" d="M340 445v41h133v-50q0 -32 -4 -53t-23 -46t-55 -39l-163 -66q-49 -20 -49 -55q0 -51 80 -51h407v-126h-396q-110 0 -171.5 44t-61.5 128q0 117 130 170l139 57q20 8 27 16t7 30zM329 547v137h156v-137h-156z" unicode="¿" horiz-adv-x="702"/>
<glyph glyph-name="Agrave" unicode="À" d="M725 549l281 -549h-154l-87 169h-504l-87 -169h-153l280 549q36 72 83.5 108.5t128.5 36.5t128.5 -36.5t83.5 -108.5zM699 296l-115 224q-24 47 -71 47t-71 -47l-116 -224h373zM470 930l128 -184h-126l-164 184h162z"/>
<glyph glyph-name="Aacute" unicode="Á" d="M725 549l281 -549h-154l-87 169h-504l-87 -169h-153l280 549q36 72 83.5 108.5t128.5 36.5t128.5 -36.5t83.5 -108.5zM699 296l-115 224q-24 47 -71 47t-71 -47l-116 -224h373zM408 746l128 184h162l-164 -184h-126z"/>
<glyph glyph-name="Acircumflex" unicode="Â" d="M725 549l281 -549h-154l-87 169h-504l-87 -169h-153l280 549q36 72 83.5 108.5t128.5 36.5t128.5 -36.5t83.5 -108.5zM699 296l-115 224q-24 47 -71 47t-71 -47l-116 -224h373zM277 746l158 184h157l158 -184h-130l-107 98l-106 -98h-130z"/>
<glyph glyph-name="Atilde" unicode="Ã" d="M725 549l281 -549h-154l-87 169h-504l-87 -169h-153l280 549q36 72 83.5 108.5t128.5 36.5t128.5 -36.5t83.5 -108.5zM699 296l-115 224q-24 47 -71 47t-71 -47l-116 -224h373zM610 856q49 0 63 64h94q-4 -30 -13.5 -57.5t-27 -57t-47 -47t-68.5 -17.5q-47 0 -110.5 35.5 t-92.5 35.5q-51 0 -63 -64h-95q3 23 9.5 45.5t19 47.5t29 43.5t42.5 30.5t57 12q47 0 110 -35.5t93 -35.5z"/>
<glyph glyph-name="Adieresis" unicode="Ä" d="M725 549l281 -549h-154l-87 169h-504l-87 -169h-153l280 549q36 72 83.5 108.5t128.5 36.5t128.5 -36.5t83.5 -108.5zM699 296l-115 224q-24 47 -71 47t-71 -47l-116 -224h373zM455 894v-135h-141v135h141zM712 894v-135h-141v135h141z"/>
<glyph glyph-name="Aring" unicode="Å" d="M725 549l281 -549h-154l-87 169h-504l-87 -169h-153l280 549q41 82 93 115q-53 45 -53 118q0 70 50.5 119.5t121.5 49.5t122 -49.5t51 -119.5q0 -72 -54 -119q49 -30 93 -114zM699 296l-115 224q-24 47 -71 47t-71 -47l-116 -224h373zM513 696q35 0 59 24t24 59 q0 34 -24.5 58t-58.5 24t-58 -24t-24 -58t24 -58.5t58 -24.5z"/>
<glyph glyph-name="AE" d="M159 0h-153l325 549q39 66 95 100.5t139 34.5h842v-129h-645q1 -2 2.5 -6.5t2.5 -6.5l46 -136h572v-121h-532l51 -156h503v-129h-613l-55 169h-479zM463 505l-129 -213h365l-68 209q-19 61 -77 61q-56 0 -91 -57z" unicode="Æ" horiz-adv-x="1468"/>
<glyph glyph-name="Ccedilla" d="M423 -201h141q59 0 59 41q0 39 -59 39h-108l37 121h-109q-179 0 -254.5 83.5t-75.5 258.5t75.5 258.5t254.5 83.5h541v-139h-473q-87 0 -135.5 -8.5t-75.5 -34t-34 -60t-7 -100.5q0 -65 7 -99.5t34 -60t75.5 -34t135.5 -8.5h473v-140h-333l-16 -43h9q76 0 115.5 -33 t39.5 -88q0 -35 -17 -61t-46 -39t-60.5 -19t-67.5 -6h-146z" unicode="Ç" horiz-adv-x="976"/>
<glyph glyph-name="Egrave" d="M517 930l128 -184h-126l-164 184h162zM926 548h-542q-96 0 -136 -34.5t-48 -107.5h714v-128h-714q8 -73 48 -107t136 -34h542v-137h-542q-179 0 -254.5 84t-75.5 258t75.5 258t254.5 84h542v-136z" unicode="È" horiz-adv-x="991"/>
<glyph glyph-name="Eacute" d="M447 746l128 184h162l-164 -184h-126zM926 548h-542q-96 0 -136 -34.5t-48 -107.5h714v-128h-714q8 -73 48 -107t136 -34h542v-137h-542q-179 0 -254.5 84t-75.5 258t75.5 258t254.5 84h542v-136z" unicode="É" horiz-adv-x="991"/>
<glyph glyph-name="Ecircumflex" d="M926 548h-542q-96 0 -136 -34.5t-48 -107.5h714v-128h-714q8 -73 48 -107t136 -34h542v-137h-542q-179 0 -254.5 84t-75.5 258t75.5 258t254.5 84h542v-136zM305 746l158 184h157l158 -184h-130l-107 98l-106 -98h-130z" unicode="Ê" horiz-adv-x="991"/>
<glyph glyph-name="Edieresis" d="M480 894v-135h-141v135h141zM737 894v-135h-141v135h141zM926 548h-542q-96 0 -136 -34.5t-48 -107.5h714v-128h-714q8 -73 48 -107t136 -34h542v-137h-542q-179 0 -254.5 84t-75.5 258t75.5 258t254.5 84h542v-136z" unicode="Ë" horiz-adv-x="991"/>
<glyph glyph-name="Igrave" d="M85 684h143v-684h-143v684zM122 930l128 -184h-126l-164 184h162z" unicode="Ì" horiz-adv-x="313"/>
<glyph glyph-name="Iacute" d="M85 684h143v-684h-143v684zM61 746l128 184h162l-164 -184h-126z" unicode="Í" horiz-adv-x="313"/>
<glyph glyph-name="Icircumflex" d="M85 684h143v-684h-143v684zM-80 746l158 184h157l158 -184h-130l-107 98l-106 -98h-130z" unicode="Î" horiz-adv-x="313"/>
<glyph glyph-name="Idieresis" d="M85 684h143v-684h-143v684zM98 894v-135h-141v135h141zM355 894v-135h-141v135h141z" unicode="Ï" horiz-adv-x="313"/>
<glyph glyph-name="Eth" d="M134 0v286h-115v123h115v275h562q178 0 253.5 -83.5t75.5 -258.5t-75.5 -258.5t-253.5 -83.5h-562zM879 342q0 55 -6 88t-24.5 61.5t-55.5 41t-97 12.5h-419v-136h346v-123h-346v-146h419q60 0 97 12t55.5 40.5t24.5 61.5t6 88z" unicode="Ð" horiz-adv-x="1079"/>
<glyph glyph-name="Ntilde" d="M228 539v-539h-143v684h101q47 0 81.5 -4.5t68 -20.5t57.5 -33.5t59 -57t63 -76.5t78 -106q125 -172 160 -206.5t89 -34.5h1v539h143v-684h-101q-44 0 -75.5 4.5t-64 19.5t-56.5 32.5t-60 56.5t-67 77.5t-84 108.5q-8 11 -24 31q-117 153 -146 180t-66 29h-13h-1z M648 856q49 0 63 64h94q-4 -30 -13.5 -57.5t-27 -57t-47 -47t-68.5 -17.5q-47 0 -110.5 35.5t-92.5 35.5q-51 0 -63 -64h-95q3 23 9.5 45.5t19 47.5t29 43.5t42.5 30.5t57 12q47 0 110 -35.5t93 -35.5z" unicode="Ñ" horiz-adv-x="1071"/>
<glyph glyph-name="Ograve" d="M531 694q252 0 366 -79t114 -273t-114 -273t-366 -79t-366 79t-114 273t114 273t366 79zM531 125q92 0 148 7t101.5 29.5t65 66t19.5 114.5t-19.5 114.5t-65 66t-101.5 29.5t-148 7t-148 -7t-101.5 -29.5t-65 -66t-19.5 -114.5t19.5 -114.5t65 -66t101.5 -29.5t148 -7z M490 930l128 -184h-126l-164 184h162z" unicode="Ò" horiz-adv-x="1062"/>
<glyph glyph-name="Oacute" d="M531 694q252 0 366 -79t114 -273t-114 -273t-366 -79t-366 79t-114 273t114 273t366 79zM531 125q92 0 148 7t101.5 29.5t65 66t19.5 114.5t-19.5 114.5t-65 66t-101.5 29.5t-148 7t-148 -7t-101.5 -29.5t-65 -66t-19.5 -114.5t19.5 -114.5t65 -66t101.5 -29.5t148 -7z M428 746l128 184h162l-164 -184h-126z" unicode="Ó" horiz-adv-x="1062"/>
<glyph glyph-name="Ocircumflex" d="M531 694q252 0 366 -79t114 -273t-114 -273t-366 -79t-366 79t-114 273t114 273t366 79zM531 125q92 0 148 7t101.5 29.5t65 66t19.5 114.5t-19.5 114.5t-65 66t-101.5 29.5t-148 7t-148 -7t-101.5 -29.5t-65 -66t-19.5 -114.5t19.5 -114.5t65 -66t101.5 -29.5t148 -7z M295 746l158 184h157l158 -184h-130l-107 98l-106 -98h-130z" unicode="Ô" horiz-adv-x="1062"/>
<glyph glyph-name="Otilde" d="M531 694q252 0 366 -79t114 -273t-114 -273t-366 -79t-366 79t-114 273t114 273t366 79zM531 125q92 0 148 7t101.5 29.5t65 66t19.5 114.5t-19.5 114.5t-65 66t-101.5 29.5t-148 7t-148 -7t-101.5 -29.5t-65 -66t-19.5 -114.5t19.5 -114.5t65 -66t101.5 -29.5t148 -7z M624 856q49 0 63 64h94q-4 -30 -13.5 -57.5t-27 -57t-47 -47t-68.5 -17.5q-47 0 -110.5 35.5t-92.5 35.5q-51 0 -63 -64h-95q3 23 9.5 45.5t19 47.5t29 43.5t42.5 30.5t57 12q47 0 110 -35.5t93 -35.5z" unicode="Õ" horiz-adv-x="1062"/>
<glyph glyph-name="Odieresis" d="M531 694q252 0 366 -79t114 -273t-114 -273t-366 -79t-366 79t-114 273t114 273t366 79zM531 125q92 0 148 7t101.5 29.5t65 66t19.5 114.5t-19.5 114.5t-65 66t-101.5 29.5t-148 7t-148 -7t-101.5 -29.5t-65 -66t-19.5 -114.5t19.5 -114.5t65 -66t101.5 -29.5t148 -7z M473 894v-135h-141v135h141zM730 894v-135h-141v135h141z" unicode="Ö" horiz-adv-x="1062"/>
<glyph glyph-name="multiply" d="M436 346l207 -177l-74 -86l-220 188l-219 -188l-74 86l206 177l-206 178l74 86l219 -189l220 189l74 -86z" unicode="×" horiz-adv-x="699"/>
<glyph glyph-name="Oslash" d="M534 694q254 0 364 -78l114 74l37 -53l-102 -66q67 -80 67 -229q0 -194 -114 -273t-366 -79q-255 0 -365 78l-113 -73l-37 53l101 65q-66 81 -66 229q0 194 114 273t366 79zM200 342q0 -102 43 -149l523 338q-70 28 -232 28q-92 0 -148 -7t-101.5 -29.5t-65 -66 t-19.5 -114.5zM534 125q92 0 148 7t101.5 29.5t65 66t19.5 114.5q0 100 -44 149l-523 -338q67 -28 233 -28z" unicode="Ø" horiz-adv-x="1068"/>
<glyph glyph-name="Ugrave" d="M470 930l128 -184h-126l-164 184h162zM75 330v354h143v-354q0 -122 56 -161.5t225 -39.5t224.5 39.5t55.5 161.5v354h143v-354q0 -185 -96.5 -262.5t-326.5 -77.5t-327 77.5t-97 262.5z" unicode="Ù" horiz-adv-x="997"/>
<glyph glyph-name="Uacute" d="M404 746l128 184h162l-164 -184h-126zM75 330v354h143v-354q0 -122 56 -161.5t225 -39.5t224.5 39.5t55.5 161.5v354h143v-354q0 -185 -96.5 -262.5t-326.5 -77.5t-327 77.5t-97 262.5z" unicode="Ú" horiz-adv-x="997"/>
<glyph glyph-name="Ucircumflex" d="M75 330v354h143v-354q0 -122 56 -161.5t225 -39.5t224.5 39.5t55.5 161.5v354h143v-354q0 -185 -96.5 -262.5t-326.5 -77.5t-327 77.5t-97 262.5zM262 746l158 184h157l158 -184h-130l-107 98l-106 -98h-130z" unicode="Û" horiz-adv-x="997"/>
<glyph glyph-name="Udieresis" d="M441 894v-135h-141v135h141zM698 894v-135h-141v135h141zM75 330v354h143v-354q0 -122 56 -161.5t225 -39.5t224.5 39.5t55.5 161.5v354h143v-354q0 -185 -96.5 -262.5t-326.5 -77.5t-327 77.5t-97 262.5z" unicode="Ü" horiz-adv-x="997"/>
<glyph glyph-name="Yacute" d="M393 746l128 184h162l-164 -184h-126zM4 684h208l210 -253l21 -24.5t26.5 -32t20.5 -30.5q9 16 19.5 30t28 33.5t21.5 23.5l210 253h208l-338 -369q-1 -1 -11 -11.5t-14.5 -16t-14 -16.5t-14.5 -19t-11 -18.5t-9 -20t-3 -17.5v-196h-143v196q0 10 -4.5 22t-10 22 t-16.5 23.5t-16.5 19.5t-17 18.5t-12.5 13.5z" unicode="Ý" horiz-adv-x="981"/>
<glyph glyph-name="Thorn" d="M85 684h143v-112h450q135 0 204 -65t69 -164q0 -100 -69.5 -165.5t-203.5 -65.5h-450v-112h-143v684zM228 238h457q60 0 88.5 32t28.5 72t-29 72t-88 32h-457v-208z" unicode="Þ" horiz-adv-x="981"/>
<glyph glyph-name="germandbls" d="M56 128h608q111 0 111 64q0 35 -33 53t-106 24l-331 26q-246 19 -246 193q0 102 73.5 149t189.5 47h556v-128h-569q-105 0 -105 -64q0 -30 28.5 -45.5t109.5 -21.5l315 -25q129 -10 197 -57t68 -145q0 -92 -64.5 -145t-202.5 -53h-599v128zM1040 128h608q111 0 111 64 q0 35 -33 53t-106 24l-331 26q-246 19 -246 193q0 102 73.5 149t189.5 47h556v-128h-569q-105 0 -105 -64q0 -30 28.5 -45.5t109.5 -21.5l315 -25q129 -10 197 -57t68 -145q0 -92 -64.5 -145t-202.5 -53h-599v128z" unicode="ß" horiz-adv-x="1948"/>
<glyph glyph-name="agrave" unicode="à" d="M725 549l281 -549h-154l-87 169h-504l-87 -169h-153l280 549q36 72 83.5 108.5t128.5 36.5t128.5 -36.5t83.5 -108.5zM699 296l-115 224q-24 47 -71 47t-71 -47l-116 -224h373zM470 930l128 -184h-126l-164 184h162z"/>
<glyph glyph-name="aacute" unicode="á" d="M725 549l281 -549h-154l-87 169h-504l-87 -169h-153l280 549q36 72 83.5 108.5t128.5 36.5t128.5 -36.5t83.5 -108.5zM699 296l-115 224q-24 47 -71 47t-71 -47l-116 -224h373zM408 746l128 184h162l-164 -184h-126z"/>
<glyph glyph-name="acircumflex" unicode="â" d="M725 549l281 -549h-154l-87 169h-504l-87 -169h-153l280 549q36 72 83.5 108.5t128.5 36.5t128.5 -36.5t83.5 -108.5zM699 296l-115 224q-24 47 -71 47t-71 -47l-116 -224h373zM277 746l158 184h157l158 -184h-130l-107 98l-106 -98h-130z"/>
<glyph glyph-name="atilde" unicode="ã" d="M725 549l281 -549h-154l-87 169h-504l-87 -169h-153l280 549q36 72 83.5 108.5t128.5 36.5t128.5 -36.5t83.5 -108.5zM699 296l-115 224q-24 47 -71 47t-71 -47l-116 -224h373zM610 856q49 0 63 64h94q-4 -30 -13.5 -57.5t-27 -57t-47 -47t-68.5 -17.5q-47 0 -110.5 35.5 t-92.5 35.5q-51 0 -63 -64h-95q3 23 9.5 45.5t19 47.5t29 43.5t42.5 30.5t57 12q47 0 110 -35.5t93 -35.5z"/>
<glyph glyph-name="adieresis" unicode="ä" d="M725 549l281 -549h-154l-87 169h-504l-87 -169h-153l280 549q36 72 83.5 108.5t128.5 36.5t128.5 -36.5t83.5 -108.5zM699 296l-115 224q-24 47 -71 47t-71 -47l-116 -224h373zM455 894v-135h-141v135h141zM712 894v-135h-141v135h141z"/>
<glyph glyph-name="aring" unicode="å" d="M725 549l281 -549h-154l-87 169h-504l-87 -169h-153l280 549q41 82 93 115q-53 45 -53 118q0 70 50.5 119.5t121.5 49.5t122 -49.5t51 -119.5q0 -72 -54 -119q49 -30 93 -114zM699 296l-115 224q-24 47 -71 47t-71 -47l-116 -224h373zM513 696q35 0 59 24t24 59 q0 34 -24.5 58t-58.5 24t-58 -24t-24 -58t24 -58.5t58 -24.5z"/>
<glyph glyph-name="ae" d="M159 0h-153l325 549q39 66 95 100.5t139 34.5h842v-129h-645q1 -2 2.5 -6.5t2.5 -6.5l46 -136h572v-121h-532l51 -156h503v-129h-613l-55 169h-479zM463 505l-129 -213h365l-68 209q-19 61 -77 61q-56 0 -91 -57z" unicode="æ" horiz-adv-x="1468"/>
<glyph glyph-name="ccedilla" d="M423 -201h141q59 0 59 41q0 39 -59 39h-108l37 121h-109q-179 0 -254.5 83.5t-75.5 258.5t75.5 258.5t254.5 83.5h541v-139h-473q-87 0 -135.5 -8.5t-75.5 -34t-34 -60t-7 -100.5q0 -65 7 -99.5t34 -60t75.5 -34t135.5 -8.5h473v-140h-333l-16 -43h9q76 0 115.5 -33 t39.5 -88q0 -35 -17 -61t-46 -39t-60.5 -19t-67.5 -6h-146z" unicode="ç" horiz-adv-x="976"/>
<glyph glyph-name="egrave" d="M517 930l128 -184h-126l-164 184h162zM926 548h-542q-96 0 -136 -34.5t-48 -107.5h714v-128h-714q8 -73 48 -107t136 -34h542v-137h-542q-179 0 -254.5 84t-75.5 258t75.5 258t254.5 84h542v-136z" unicode="è" horiz-adv-x="991"/>
<glyph glyph-name="eacute" d="M447 746l128 184h162l-164 -184h-126zM926 548h-542q-96 0 -136 -34.5t-48 -107.5h714v-128h-714q8 -73 48 -107t136 -34h542v-137h-542q-179 0 -254.5 84t-75.5 258t75.5 258t254.5 84h542v-136z" unicode="é" horiz-adv-x="991"/>
<glyph glyph-name="ecircumflex" d="M926 548h-542q-96 0 -136 -34.5t-48 -107.5h714v-128h-714q8 -73 48 -107t136 -34h542v-137h-542q-179 0 -254.5 84t-75.5 258t75.5 258t254.5 84h542v-136zM305 746l158 184h157l158 -184h-130l-107 98l-106 -98h-130z" unicode="ê" horiz-adv-x="991"/>
<glyph glyph-name="edieresis" d="M480 894v-135h-141v135h141zM737 894v-135h-141v135h141zM926 548h-542q-96 0 -136 -34.5t-48 -107.5h714v-128h-714q8 -73 48 -107t136 -34h542v-137h-542q-179 0 -254.5 84t-75.5 258t75.5 258t254.5 84h542v-136z" unicode="ë" horiz-adv-x="991"/>
<glyph glyph-name="igrave" d="M85 684h143v-684h-143v684zM122 930l128 -184h-126l-164 184h162z" unicode="ì" horiz-adv-x="313"/>
<glyph glyph-name="iacute" d="M85 684h143v-684h-143v684zM61 746l128 184h162l-164 -184h-126z" unicode="í" horiz-adv-x="313"/>
<glyph glyph-name="icircumflex" d="M85 684h143v-684h-143v684zM-80 746l158 184h157l158 -184h-130l-107 98l-106 -98h-130z" unicode="î" horiz-adv-x="313"/>
<glyph glyph-name="idieresis" d="M85 684h143v-684h-143v684zM98 894v-135h-141v135h141zM355 894v-135h-141v135h141z" unicode="ï" horiz-adv-x="313"/>
<glyph glyph-name="eth" d="M146 0v286h-115v123h115v275h562q178 0 253.5 -83.5t75.5 -258.5t-75.5 -258.5t-253.5 -83.5h-562zM891 342q0 55 -6 88t-24.5 61.5t-55.5 41t-97 12.5h-419v-136h346v-123h-346v-146h419q60 0 97 12t55.5 40.5t24.5 61.5t6 88z" unicode="ð" horiz-adv-x="1091"/>
<glyph glyph-name="ntilde" d="M228 539v-539h-143v684h101q47 0 81.5 -4.5t68 -20.5t57.5 -33.5t59 -57t63 -76.5t78 -106q125 -172 160 -206.5t89 -34.5h1v539h143v-684h-101q-44 0 -75.5 4.5t-64 19.5t-56.5 32.5t-60 56.5t-67 77.5t-84 108.5q-8 11 -24 31q-117 153 -146 180t-66 29h-13h-1z M648 856q49 0 63 64h94q-4 -30 -13.5 -57.5t-27 -57t-47 -47t-68.5 -17.5q-47 0 -110.5 35.5t-92.5 35.5q-51 0 -63 -64h-95q3 23 9.5 45.5t19 47.5t29 43.5t42.5 30.5t57 12q47 0 110 -35.5t93 -35.5z" unicode="ñ" horiz-adv-x="1071"/>
<glyph glyph-name="ograve" d="M531 694q252 0 366 -79t114 -273t-114 -273t-366 -79t-366 79t-114 273t114 273t366 79zM531 125q92 0 148 7t101.5 29.5t65 66t19.5 114.5t-19.5 114.5t-65 66t-101.5 29.5t-148 7t-148 -7t-101.5 -29.5t-65 -66t-19.5 -114.5t19.5 -114.5t65 -66t101.5 -29.5t148 -7z M490 930l128 -184h-126l-164 184h162z" unicode="ò" horiz-adv-x="1062"/>
<glyph glyph-name="oacute" d="M531 694q252 0 366 -79t114 -273t-114 -273t-366 -79t-366 79t-114 273t114 273t366 79zM531 125q92 0 148 7t101.5 29.5t65 66t19.5 114.5t-19.5 114.5t-65 66t-101.5 29.5t-148 7t-148 -7t-101.5 -29.5t-65 -66t-19.5 -114.5t19.5 -114.5t65 -66t101.5 -29.5t148 -7z M428 746l128 184h162l-164 -184h-126z" unicode="ó" horiz-adv-x="1062"/>
<glyph glyph-name="ocircumflex" d="M531 694q252 0 366 -79t114 -273t-114 -273t-366 -79t-366 79t-114 273t114 273t366 79zM531 125q92 0 148 7t101.5 29.5t65 66t19.5 114.5t-19.5 114.5t-65 66t-101.5 29.5t-148 7t-148 -7t-101.5 -29.5t-65 -66t-19.5 -114.5t19.5 -114.5t65 -66t101.5 -29.5t148 -7z M295 746l158 184h157l158 -184h-130l-107 98l-106 -98h-130z" unicode="ô" horiz-adv-x="1062"/>
<glyph glyph-name="otilde" d="M531 694q252 0 366 -79t114 -273t-114 -273t-366 -79t-366 79t-114 273t114 273t366 79zM531 125q92 0 148 7t101.5 29.5t65 66t19.5 114.5t-19.5 114.5t-65 66t-101.5 29.5t-148 7t-148 -7t-101.5 -29.5t-65 -66t-19.5 -114.5t19.5 -114.5t65 -66t101.5 -29.5t148 -7z M624 856q49 0 63 64h94q-4 -30 -13.5 -57.5t-27 -57t-47 -47t-68.5 -17.5q-47 0 -110.5 35.5t-92.5 35.5q-51 0 -63 -64h-95q3 23 9.5 45.5t19 47.5t29 43.5t42.5 30.5t57 12q47 0 110 -35.5t93 -35.5z" unicode="õ" horiz-adv-x="1062"/>
<glyph glyph-name="odieresis" d="M531 694q252 0 366 -79t114 -273t-114 -273t-366 -79t-366 79t-114 273t114 273t366 79zM531 125q92 0 148 7t101.5 29.5t65 66t19.5 114.5t-19.5 114.5t-65 66t-101.5 29.5t-148 7t-148 -7t-101.5 -29.5t-65 -66t-19.5 -114.5t19.5 -114.5t65 -66t101.5 -29.5t148 -7z M473 894v-135h-141v135h141zM730 894v-135h-141v135h141z" unicode="ö" horiz-adv-x="1062"/>
<glyph glyph-name="divide" d="M675 407v-121h-619v121h619zM440 659v-150h-150v150h150zM440 184v-150h-150v150h150z" unicode="÷" horiz-adv-x="731"/>
<glyph glyph-name="oslash" d="M534 694q254 0 364 -78l114 74l37 -53l-102 -66q67 -80 67 -229q0 -194 -114 -273t-366 -79q-255 0 -365 78l-113 -73l-37 53l101 65q-66 81 -66 229q0 194 114 273t366 79zM200 342q0 -102 43 -149l523 338q-70 28 -232 28q-92 0 -148 -7t-101.5 -29.5t-65 -66 t-19.5 -114.5zM534 125q92 0 148 7t101.5 29.5t65 66t19.5 114.5q0 100 -44 149l-523 -338q67 -28 233 -28z" unicode="ø" horiz-adv-x="1068"/>
<glyph glyph-name="ugrave" d="M470 930l128 -184h-126l-164 184h162zM75 330v354h143v-354q0 -122 56 -161.5t225 -39.5t224.5 39.5t55.5 161.5v354h143v-354q0 -185 -96.5 -262.5t-326.5 -77.5t-327 77.5t-97 262.5z" unicode="ù" horiz-adv-x="997"/>
<glyph glyph-name="uacute" d="M404 746l128 184h162l-164 -184h-126zM75 330v354h143v-354q0 -122 56 -161.5t225 -39.5t224.5 39.5t55.5 161.5v354h143v-354q0 -185 -96.5 -262.5t-326.5 -77.5t-327 77.5t-97 262.5z" unicode="ú" horiz-adv-x="997"/>
<glyph glyph-name="ucircumflex" d="M75 330v354h143v-354q0 -122 56 -161.5t225 -39.5t224.5 39.5t55.5 161.5v354h143v-354q0 -185 -96.5 -262.5t-326.5 -77.5t-327 77.5t-97 262.5zM262 746l158 184h157l158 -184h-130l-107 98l-106 -98h-130z" unicode="û" horiz-adv-x="997"/>
<glyph glyph-name="udieresis" d="M441 894v-135h-141v135h141zM698 894v-135h-141v135h141zM75 330v354h143v-354q0 -122 56 -161.5t225 -39.5t224.5 39.5t55.5 161.5v354h143v-354q0 -185 -96.5 -262.5t-326.5 -77.5t-327 77.5t-97 262.5z" unicode="ü" horiz-adv-x="997"/>
<glyph glyph-name="yacute" d="M393 746l128 184h162l-164 -184h-126zM4 684h208l210 -253l21 -24.5t26.5 -32t20.5 -30.5q9 16 19.5 30t28 33.5t21.5 23.5l210 253h208l-338 -369q-1 -1 -11 -11.5t-14.5 -16t-14 -16.5t-14.5 -19t-11 -18.5t-9 -20t-3 -17.5v-196h-143v196q0 10 -4.5 22t-10 22 t-16.5 23.5t-16.5 19.5t-17 18.5t-12.5 13.5z" unicode="ý" horiz-adv-x="981"/>
<glyph glyph-name="thorn" d="M85 684h143v-112h450q135 0 204 -65t69 -164q0 -100 -69.5 -165.5t-203.5 -65.5h-450v-112h-143v684zM228 238h457q60 0 88.5 32t28.5 72t-29 72t-88 32h-457v-208z" unicode="þ" horiz-adv-x="981"/>
</font>
</defs>
</svg>
