<?xml version="1.0" encoding="UTF-8" standalone="no"?>
<!DOCTYPE svg  PUBLIC '-//W3C//DTD SVG 1.1//EN'  'http://www.w3.org/Graphics/SVG/1.1/DTD/svg11.dtd'>
<svg version="1.1" xmlns="http://www.w3.org/2000/svg">
<defs>
<font id="Venera100" horiz-adv-x="1062">
<font-face font-family="Venera" underline-position="-150" cap-height="684" underline-thickness="50" x-height="684" units-per-em="1000" font-weight="100" bbox="-55 -280 1812 936" unicode-range="U+0020-00FE" panose-1="0 0 0 0 0 0 0 0 0 0" descent="-250" ascent="750"/>
<missing-glyph/>
<glyph horiz-adv-x="340" glyph-name="space" unicode=" "/>
<glyph horiz-adv-x="239" d="M127 684l-1 -499h-13l-1 499h15zM128 104v-104h-17v104h17z" glyph-name="exclam" unicode="!"/>
<glyph horiz-adv-x="393" d="M109 684v-270h-14v270h14zM298 684v-270h-14v270h14z" glyph-name="quotedbl" unicode='&quot;'/>
<glyph horiz-adv-x="822" d="M111 458v10h166l33 170h11l-33 -170h297l33 170h11l-33 -170h161v-10h-163l-47 -242h164v-10h-166l-33 -174h-11l33 174h-297l-33 -174h-11l33 174h-161v10h163l47 242h-164zM286 458l-47 -242h297l47 242h-297z" glyph-name="numbersign" unicode="#"/>
<glyph horiz-adv-x="934" d="M495 798h11v-114h326v-12h-555q-181 0 -181 -141q0 -71 51 -109t157 -47l345 -30q123 -11 179.5 -52t56.5 -121q0 -84 -59.5 -128t-174.5 -44h-169v-146h-11v146h-412v12h592q108 0 165 40.5t57 119.5q0 74 -53.5 112.5t-171.5 48.5l-346 30q-218 19 -218 168 q0 75 50 114t143 39h218v114z" glyph-name="dollar" unicode="$"/>
<glyph horiz-adv-x="1003" d="M760 326q92 0 142 -43.5t50 -124.5q0 -80 -50 -123.5t-142 -43.5t-142 43.5t-50 123.5q0 81 50 124.5t142 43.5zM760 2q56 0 94.5 15.5t56 41.5t24 49.5t6.5 49.5q0 27 -6.5 50.5t-24 49.5t-56 41.5t-94.5 15.5t-94.5 -15.5t-56 -41.5t-24 -49.5t-6.5 -50.5 q0 -26 6.5 -49.5t24 -49.5t56 -41.5t94.5 -15.5zM436 526q0 -80 -50 -123.5t-142 -43.5t-142 43.5t-50 123.5q0 81 50 124.5t142 43.5t142 -43.5t50 -124.5zM63 526q0 -26 6.5 -49.5t24 -49.5t56 -41.5t94.5 -15.5t94.5 15.5t56 41.5t24 49.5t6.5 49.5q0 27 -6.5 50.5 t-24 49.5t-56 41.5t-94.5 15.5t-94.5 -15.5t-56 -41.5t-24 -49.5t-6.5 -50.5zM820 684h16l-652 -684h-16z" glyph-name="percent" unicode="%"/>
<glyph horiz-adv-x="947" d="M601 0h-315q-97 0 -154 49t-57 130q0 20 5.5 42t20.5 50.5t49 51t83 30.5q-68 13 -104 54t-36 108q0 81 54 125t151 44h472v-12h-472q-92 0 -142.5 -41t-50.5 -116q0 -76 49.5 -116.5t143.5 -40.5h602v-12h-87v-170q0 -81 -57 -128.5t-155 -47.5zM801 346h-515 q-101 0 -150 -50t-49 -117q0 -69 48.5 -118t150.5 -49h315q52 0 91 13.5t59 32.5t32 44t15 41.5t3 32.5v170z" glyph-name="ampersand" unicode="&amp;"/>
<glyph horiz-adv-x="204" d="M109 684v-270h-14v270h14z" glyph-name="quotesingle" unicode="&apos;"/>
<glyph horiz-adv-x="256" d="M82 332q0 -115 30.5 -229.5t87.5 -207.5h-12q-57 93 -87.5 207.5t-30.5 229.5t30.5 229.5t87.5 207.5h12q-57 -93 -87.5 -207.5t-30.5 -229.5z" glyph-name="parenleft" unicode="("/>
<glyph horiz-adv-x="256" d="M174 332q0 115 -30.5 229.5t-87.5 207.5h12q57 -93 87.5 -207.5t30.5 -229.5t-30.5 -229.5t-87.5 -207.5h-12q57 93 87.5 207.5t30.5 229.5z" glyph-name="parenright" unicode=")"/>
<glyph horiz-adv-x="549" d="M272 558l-7 153h19l-7 -153h-5zM227 525l-2 -4l-147 40l6 18zM147 348l96 120l4 -3l-85 -128zM302 465l4 3l96 -120l-15 -11zM471 561l-147 -40l-2 4l143 54z" glyph-name="asterisk" unicode="*"/>
<glyph horiz-adv-x="737" d="M676 352v-11h-302v-254h-11v254h-302v11h302v254h11v-254h302z" glyph-name="plus" unicode="+"/>
<glyph horiz-adv-x="234" d="M137 110l-63 -211h-15l62 211h16z" glyph-name="comma" unicode=","/>
<glyph horiz-adv-x="574" d="M484 352v-11h-394v11h394z" glyph-name="hyphen" unicode="-"/>
<glyph horiz-adv-x="207" d="M112 104v-104h-17v104h17z" glyph-name="period" unicode="."/>
<glyph horiz-adv-x="501" d="M52 -105h-13l410 874h13z" glyph-name="slash" unicode="/"/>
<glyph horiz-adv-x="1022" d="M511 692q225 0 331.5 -82t106.5 -268t-106.5 -268t-331.5 -82t-331.5 82t-106.5 268t106.5 268t331.5 82zM511 4q220 0 323 79.5t103 258.5t-103 258.5t-323 79.5t-323 -79.5t-103 -258.5t103 -258.5t323 -79.5z" glyph-name="zero" unicode="0"/>
<glyph horiz-adv-x="438" d="M326 684v-684h-12v673h-277v11h289z" glyph-name="one" unicode="1"/>
<glyph horiz-adv-x="901" d="M838 12v-12h-769v88q0 23 7.5 44t18.5 37.5t33 32.5t40 27t51 23.5t54.5 20t63 18.5t64 16.5t67.5 15.5q3 1 4.5 1t4 1t4.5 1q34 8 55.5 13t53 14t51 16t45.5 17.5t42 21t33 24t27 28.5t16 33.5t6 39.5q0 64 -50.5 101.5t-139.5 37.5h-547v12h547q94 0 148 -40.5 t54 -110.5q0 -37 -16.5 -66.5t-43 -50.5t-72.5 -40t-92 -32.5t-115 -29.5q-185 -43 -245 -65q-149 -56 -157 -149v-12v-76h757z" glyph-name="two" unicode="2"/>
<glyph horiz-adv-x="917" d="M811 516q0 74 -50.5 115t-142.5 41h-535v12h535q96 0 150.5 -44.5t54.5 -123.5q0 -64 -36.5 -106t-102.5 -56q74 -13 116.5 -61t42.5 -116q0 -78 -59 -127.5t-154 -49.5h-557v12h557q97 0 149 49t52 116q0 28 -9.5 55t-30.5 54.5t-63 44.5t-98 17h-537v11h525 q92 0 142.5 41t50.5 116z" glyph-name="three" unicode="3"/>
<glyph horiz-adv-x="963" d="M796 244v-244h-12v244h-535q-103 0 -150.5 42t-47.5 103q0 33 14 68l89 227h12l-90 -231q-13 -33 -13 -64q0 -22 7 -42t25 -42t57.5 -35.5t96.5 -13.5h535v428h12v-428h120v-12h-120z" glyph-name="four" unicode="4"/>
<glyph horiz-adv-x="924" d="M625 0h-561v12h561q109 0 169 44.5t60 127.5q0 80 -58 122.5t-167 42.5h-533l-5 5l27 330h694v-12h-683l-25 -311h525q112 0 174.5 -44.5t62.5 -132.5q0 -87 -63 -135.5t-178 -48.5z" glyph-name="five" unicode="5"/>
<glyph horiz-adv-x="952" d="M684 0h-375q-108 0 -159.5 51.5t-51.5 124.5v332q0 82 56.5 129t154.5 47h525v-12h-525q-52 0 -91 -13.5t-59 -32.5t-32 -44t-14.5 -41.5t-2.5 -32.5v-156h574q108 0 160 -51.5t52 -124.5q0 -79 -56.5 -127.5t-155.5 -48.5zM684 340h-574v-164q0 -68 48.5 -116t150.5 -48 h375q102 0 151 48.5t49 115.5t-49 115.5t-151 48.5z" glyph-name="six" unicode="6"/>
<glyph horiz-adv-x="843" d="M353 72v-72h-12v73q0 49 24.5 93t63.5 77.5t86.5 65t94.5 62.5t86 63t63.5 73.5t24.5 87.5v77h-746v12h758v-90q0 -55 -33 -104t-82 -83.5t-106.5 -73.5t-106.5 -73.5t-82 -83.5t-33 -104z" glyph-name="seven" unicode="7"/>
<glyph horiz-adv-x="933" d="M95 512q0 80 55.5 126t153.5 46h325q98 0 153.5 -46t55.5 -126q0 -66 -38 -108.5t-107 -56.5q77 -11 121.5 -56t44.5 -115q0 -81 -60 -128.5t-158 -47.5h-349q-99 0 -158.5 48t-59.5 128q0 69 44.5 114t121.5 57q-69 14 -107 56.5t-38 108.5zM292 12h349q105 0 155.5 48 t50.5 116t-50.5 116t-155.5 48h-349q-105 0 -155.5 -48t-50.5 -116t50.5 -116t155.5 -48zM629 672h-325q-92 0 -144.5 -42.5t-52.5 -117.5t52.5 -117.5t144.5 -42.5h325q92 0 144.5 42.5t52.5 117.5t-52.5 117.5t-144.5 42.5z" glyph-name="eight" unicode="8"/>
<glyph horiz-adv-x="962" d="M651 0h-564v12h564q101 0 151 48.5t50 115.5v147h-574q-100 0 -157 48.5t-57 132.5q0 83 57 131.5t157 48.5h373q101 0 157 -47.5t56 -128.5v-332q0 -80 -57 -128t-156 -48zM651 672h-373q-53 0 -92.5 -14t-59.5 -33t-32.5 -45t-15 -43t-2.5 -33t2.5 -33t15 -43t32.5 -45 t59.5 -33.5t92.5 -14.5h574v173q0 16 -3 32.5t-15 41.5t-32 44t-59.5 32.5t-91.5 13.5z" glyph-name="nine" unicode="9"/>
<glyph horiz-adv-x="206" d="M111 114v-114h-16v114h16zM111 623v-114h-16v114h16z" glyph-name="colon" unicode=":"/>
<glyph horiz-adv-x="273" d="M161 110l-63 -211h-15l62 211h16zM154 623v-114h-16v114h16z" glyph-name="semicolon" unicode=";"/>
<glyph horiz-adv-x="590" d="M69 347l425 -211v-12l-440 219v8l440 219v-12z" glyph-name="less" unicode="&lt;"/>
<glyph horiz-adv-x="805" d="M710 200v-11h-615v11h615zM710 507v-11h-615v11h615z" glyph-name="equal" unicode="="/>
<glyph horiz-adv-x="590" d="M96 136l425 211l-425 211v12l440 -219v-8l-440 -219v12z" glyph-name="greater" unicode="&gt;"/>
<glyph horiz-adv-x="685" d="M280 245v-60h-13v60q0 68 58 91l198 79q99 39 99 131q0 21 -6 40t-21.5 40t-50.5 33.5t-85 12.5h-418v12h418q84 0 129.5 -36.5t45.5 -101.5q0 -100 -106 -142l-199 -79q-49 -19 -49 -80zM280 104v-104h-13v104h13z" glyph-name="question" unicode="?"/>
<glyph horiz-adv-x="1045" d="M856 -73v-12h-373q-407 0 -407 325v174q0 324 407 324h84q408 0 408 -324v-251h-485q-33 0 -57.5 2.5t-49.5 10.5t-41 22t-26 38.5t-10 58.5v61q0 41 14 68t41.5 40t57 18t71.5 5h69q41 0 69.5 -4t57 -16.5t43.5 -40.5t15 -70v-181h219v239q0 312 -396 312h-84 q-395 0 -395 -312v-174q0 -313 395 -313h373zM559 475h-69q-88 0 -130 -25.5t-42 -93.5v-61q0 -70 42 -95t130 -25h242v181q0 72 -44.5 95.5t-128.5 23.5z" glyph-name="at" unicode="@"/>
<glyph horiz-adv-x="968" d="M663 554l258 -554h-13l-111 238h-626l-111 -238h-13l258 554q34 74 77.5 106t101.5 32t101.5 -32t77.5 -106zM792 249l-140 300q-30 64 -69.5 97.5t-98.5 33.5t-98.5 -33.5t-69.5 -97.5l-140 -300h616z" glyph-name="A" unicode="A"/>
<glyph horiz-adv-x="1016" d="M925 516q0 -63 -34 -106t-98 -56q77 -15 114 -64.5t37 -110.5q0 -72 -51 -125.5t-157 -53.5h-624v684h612q96 0 148.5 -44.5t52.5 -123.5zM736 347h-612v-335h612q100 0 148 50t48 117q0 68 -48 118t-148 50zM124 359h600q90 0 139.5 41t49.5 115q0 75 -49.5 116 t-139.5 41h-600v-313z" glyph-name="B" unicode="B"/>
<glyph horiz-adv-x="956" d="M920 684v-12h-532q-156 0 -229 -80t-73 -249q0 -170 73.5 -250.5t228.5 -80.5h532v-12h-532q-159 0 -236.5 83.5t-77.5 259.5q0 174 76.5 257.5t237.5 83.5h532z" glyph-name="C" unicode="C"/>
<glyph horiz-adv-x="1048" d="M112 0v684h547q162 0 238.5 -84t76.5 -258q0 -176 -77.5 -259t-237.5 -83h-547zM962 342q0 167 -73.5 248.5t-229.5 81.5h-535v-660h535q156 0 229.5 81t73.5 249z" glyph-name="D" unicode="D"/>
<glyph horiz-adv-x="980" d="M920 672h-532q-154 0 -228 -79t-74 -245h813v-12h-813q2 -166 75 -245t227 -79h532v-12h-532q-161 0 -237.5 84t-76.5 259q0 174 76.5 257.5t237.5 83.5h532v-12z" glyph-name="E" unicode="E"/>
<glyph horiz-adv-x="954" d="M915 672h-454q-193 0 -269 -68t-76 -234v-58h769v-12h-769v-300h-12v370q0 170 79.5 242t277.5 72h454v-12z" glyph-name="F" unicode="F"/>
<glyph horiz-adv-x="1004" d="M914 310h12v-310h-538q-161 0 -237.5 84t-76.5 259q0 174 76.5 257.5t237.5 83.5h532v-12h-532q-156 0 -229 -80t-73 -249q0 -170 73.5 -250.5t228.5 -80.5h526v298z" glyph-name="G" unicode="G"/>
<glyph horiz-adv-x="1006" d="M894 0h-12v337h-758v-337h-12v684h12v-335h758v335h12v-684z" glyph-name="H" unicode="H"/>
<glyph horiz-adv-x="236" d="M112 684h12v-684h-12v684z" glyph-name="I" unicode="I"/>
<glyph horiz-adv-x="762" d="M11 0v12h335q155 0 227 59.5t72 185.5v427h12v-427q0 -132 -75.5 -194.5t-235.5 -62.5h-335z" glyph-name="J" unicode="J"/>
<glyph horiz-adv-x="905" d="M883 0h-16l-170 206q-109 133 -216 133h-357v-339h-12v684h12v-333h355q64 0 122.5 37t94.5 88l151 208h14l-155 -215q-68 -95 -178 -124q91 -25 179 -131z" glyph-name="K" unicode="K"/>
<glyph horiz-adv-x="861" d="M105 684h12v-427q0 -127 72 -186t227 -59h434v-12h-434q-161 0 -236 62.5t-75 194.5v427z" glyph-name="L" unicode="L"/>
<glyph horiz-adv-x="1158" d="M576 165l-452 501v-666h-12v684h12l455 -504l455 504h12v-684h-12v666l-452 -501h-6z" glyph-name="M" unicode="M"/>
<glyph horiz-adv-x="1078" d="M124 673v-673h-12v684h32q101 0 164.5 -56.5t233.5 -278.5q4 -5 6 -8q149 -195 193 -241q67 -70 131 -84q27 -5 62 -5h20v673h12v-684h-32q-37 0 -63.5 4.5t-55.5 21t-51 35t-59 61t-68.5 83.5t-89.5 117q-3 4 -5 6.5t-4 5.5q-153 201 -201 251q-67 70 -132 83 q-26 5 -61 5h-20z" glyph-name="N" unicode="N"/>
<glyph d="M531 692q88 0 153.5 -8t126 -30.5t98 -61t59.5 -101t22 -149.5t-22 -149.5t-59.5 -101t-98 -61t-126 -30.5t-153.5 -8t-153.5 8t-126 30.5t-98 61t-59.5 101t-22 149.5t22 149.5t59.5 101t98 61t126 30.5t153.5 8zM531 4q88 0 153 8t123 30t94 59.5t56.5 97.5t20.5 143 t-20.5 143t-56.5 97.5t-94 59.5t-123 30t-153 8t-153 -8t-123 -30t-94 -59.5t-56.5 -97.5t-20.5 -143t20.5 -143t56.5 -97.5t94 -59.5t123 -30t153 -8z" glyph-name="O" unicode="O"/>
<glyph horiz-adv-x="944" d="M112 684h565q100 0 159.5 -57t59.5 -146t-59.5 -146t-159.5 -57h-553v-278h-12v684zM124 290h553q99 0 153 56t54 135t-54 135t-153 56h-553v-382z" glyph-name="P" unicode="P"/>
<glyph d="M813 -163h-17l-55 67q-44 53 -85.5 70.5t-124.5 17.5q-88 0 -153.5 8t-126 30.5t-98 61t-59.5 101t-22 149.5t22 149.5t59.5 101t98 61t126 30.5t153.5 8t153.5 -8t126 -30.5t98 -61t59.5 -101t22 -149.5q0 -94 -25 -160t-74.5 -104.5t-112 -57.5t-148.5 -25 q60 -12 120 -83zM531 4q88 0 153 8t123 30t94 59.5t56.5 97.5t20.5 143t-20.5 143t-56.5 97.5t-94 59.5t-123 30t-153 8t-153 -8t-123 -30t-94 -59.5t-56.5 -97.5t-20.5 -143t20.5 -143t56.5 -97.5t94 -59.5t123 -30t153 -8z" glyph-name="Q" unicode="Q"/>
<glyph horiz-adv-x="983" d="M112 0v684h578q113 0 165.5 -57t52.5 -140q0 -76 -45 -128t-120 -64q69 -15 106.5 -62t37.5 -114v-119h-12v119q0 80 -53 126t-141 46h-557v-291h-12zM124 302h566q105 0 155.5 54t50.5 131q0 36 -10.5 67.5t-33.5 58.5t-64.5 43t-97.5 16h-566v-370z" glyph-name="R" unicode="R"/>
<glyph horiz-adv-x="925" d="M48 12h592q108 0 165 40.5t57 119.5q0 74 -53.5 112.5t-171.5 48.5l-346 30q-218 19 -218 168q0 75 50 114t143 39h555v-12h-555q-181 0 -181 -141q0 -71 51 -109t157 -47l345 -30q123 -11 179.5 -52t56.5 -121q0 -84 -59.5 -128t-174.5 -44h-592v12z" glyph-name="S" unicode="S"/>
<glyph horiz-adv-x="816" d="M414 0h-12v673h-392v11h796v-11h-392v-673z" glyph-name="T" unicode="T"/>
<glyph horiz-adv-x="1011" d="M103 317v367h12v-367q0 -172 86 -242.5t303 -70.5q220 0 306 70t86 243v367h12v-367q0 -178 -89.5 -251.5t-314.5 -73.5q-219 0 -310 71.5t-91 253.5z" glyph-name="U" unicode="U"/>
<glyph horiz-adv-x="959" d="M900 684h13l-281 -592q-25 -52 -61 -76t-91 -24q-56 0 -91.5 23t-61.5 77l-282 592h14l279 -586q24 -50 57 -72t85 -22t84.5 22t56.5 72z" glyph-name="V" unicode="V"/>
<glyph horiz-adv-x="1408" d="M1347 684h14l-250 -573q-28 -64 -64.5 -91.5t-96.5 -27.5q-61 0 -98.5 25t-66.5 84l-81 165l-81 -165q-29 -59 -66.5 -84t-98.5 -25q-60 0 -96.5 27.5t-64.5 91.5l-250 573h14l247 -568q28 -66 63 -89.5t87 -23.5q57 0 92 23.5t63 80.5l85 172l-197 405h13l190 -391 l190 391h13l-197 -405l85 -172q27 -57 62 -80.5t93 -23.5q51 0 86 23.5t64 89.5z" glyph-name="W" unicode="W"/>
<glyph horiz-adv-x="790" d="M767 0h-16l-356 347l-356 -347h-16l364 354l-353 330h16l345 -323l343 323h17l-352 -330z" glyph-name="X" unicode="X"/>
<glyph horiz-adv-x="826" d="M15 684h17l277 -272q84 -84 104 -149q20 65 104 149l277 272h17l-286 -281q-106 -104 -106 -179v-224h-12v224q0 73 -106 179z" glyph-name="Y" unicode="Y"/>
<glyph horiz-adv-x="891" d="M60 0v48q0 34 12 64.5t29.5 54t50.5 47t60 39.5t73.5 35.5t76.5 30.5t82 29q72 25 115 42t99 45t86.5 54.5t52.5 64.5t22 82v36h-769v12h781v-48q0 -34 -12 -64.5t-29 -53.5t-49.5 -46.5t-59 -38.5t-73.5 -35t-76.5 -31t-83.5 -30q-52 -18 -81 -29t-75 -30.5t-72 -34.5 t-58.5 -37.5t-49 -45t-28.5 -51.5t-12 -61v-36h770v-12h-782z" glyph-name="Z" unicode="Z"/>
<glyph horiz-adv-x="438" d="M108 -105v874h276v-11h-264v-852h264v-11h-276z" glyph-name="bracketleft" unicode="["/>
<glyph horiz-adv-x="501" d="M462 -105h-13l-410 874h13z" glyph-name="backslash" unicode="\"/>
<glyph horiz-adv-x="438" d="M54 769h276v-874h-276v11h264v852h-264v11z" glyph-name="bracketright" unicode="]"/>
<glyph horiz-adv-x="651" d="M322 712l-222 -324h-13l232 337h6l232 -337h-13z" glyph-name="asciicircum" unicode="^"/>
<glyph horiz-adv-x="892" d="M803 -90v-11h-713v11h713z" glyph-name="underscore" unicode="_"/>
<glyph horiz-adv-x="500" d="M188 935l141 -179h-14l-145 179h18z" glyph-name="grave" unicode="`"/>
<glyph horiz-adv-x="968" d="M663 554l258 -554h-13l-111 238h-626l-111 -238h-13l258 554q34 74 77.5 106t101.5 32t101.5 -32t77.5 -106zM792 249l-140 300q-30 64 -69.5 97.5t-98.5 33.5t-98.5 -33.5t-69.5 -97.5l-140 -300h616z" glyph-name="a" unicode="a"/>
<glyph horiz-adv-x="1016" d="M925 516q0 -63 -34 -106t-98 -56q77 -15 114 -64.5t37 -110.5q0 -72 -51 -125.5t-157 -53.5h-624v684h612q96 0 148.5 -44.5t52.5 -123.5zM736 347h-612v-335h612q100 0 148 50t48 117q0 68 -48 118t-148 50zM124 359h600q90 0 139.5 41t49.5 115q0 75 -49.5 116 t-139.5 41h-600v-313z" glyph-name="b" unicode="b"/>
<glyph horiz-adv-x="956" d="M920 684v-12h-532q-156 0 -229 -80t-73 -249q0 -170 73.5 -250.5t228.5 -80.5h532v-12h-532q-159 0 -236.5 83.5t-77.5 259.5q0 174 76.5 257.5t237.5 83.5h532z" glyph-name="c" unicode="c"/>
<glyph horiz-adv-x="1048" d="M112 0v684h547q162 0 238.5 -84t76.5 -258q0 -176 -77.5 -259t-237.5 -83h-547zM962 342q0 167 -73.5 248.5t-229.5 81.5h-535v-660h535q156 0 229.5 81t73.5 249z" glyph-name="d" unicode="d"/>
<glyph horiz-adv-x="980" d="M920 672h-532q-154 0 -228 -79t-74 -245h813v-12h-813q2 -166 75 -245t227 -79h532v-12h-532q-161 0 -237.5 84t-76.5 259q0 174 76.5 257.5t237.5 83.5h532v-12z" glyph-name="e" unicode="e"/>
<glyph horiz-adv-x="954" d="M915 672h-454q-193 0 -269 -68t-76 -234v-58h769v-12h-769v-300h-12v370q0 170 79.5 242t277.5 72h454v-12z" glyph-name="f" unicode="f"/>
<glyph horiz-adv-x="1004" d="M914 310h12v-310h-538q-161 0 -237.5 84t-76.5 259q0 174 76.5 257.5t237.5 83.5h532v-12h-532q-156 0 -229 -80t-73 -249q0 -170 73.5 -250.5t228.5 -80.5h526v298z" glyph-name="g" unicode="g"/>
<glyph horiz-adv-x="1006" d="M894 0h-12v337h-758v-337h-12v684h12v-335h758v335h12v-684z" glyph-name="h" unicode="h"/>
<glyph horiz-adv-x="236" d="M112 684h12v-684h-12v684z" glyph-name="i" unicode="i"/>
<glyph horiz-adv-x="762" d="M11 0v12h335q155 0 227 59.5t72 185.5v427h12v-427q0 -132 -75.5 -194.5t-235.5 -62.5h-335z" glyph-name="j" unicode="j"/>
<glyph horiz-adv-x="905" d="M883 0h-16l-170 206q-109 133 -216 133h-357v-339h-12v684h12v-333h355q64 0 122.5 37t94.5 88l151 208h14l-155 -215q-68 -95 -178 -124q91 -25 179 -131z" glyph-name="k" unicode="k"/>
<glyph horiz-adv-x="861" d="M105 684h12v-427q0 -127 72 -186t227 -59h434v-12h-434q-161 0 -236 62.5t-75 194.5v427z" glyph-name="l" unicode="l"/>
<glyph horiz-adv-x="1158" d="M576 165l-452 501v-666h-12v684h12l455 -504l455 504h12v-684h-12v666l-452 -501h-6z" glyph-name="m" unicode="m"/>
<glyph horiz-adv-x="1078" d="M124 673v-673h-12v684h32q101 0 164.5 -56.5t233.5 -278.5q4 -5 6 -8q149 -195 193 -241q67 -70 131 -84q27 -5 62 -5h20v673h12v-684h-32q-37 0 -63.5 4.5t-55.5 21t-51 35t-59 61t-68.5 83.5t-89.5 117q-3 4 -5 6.5t-4 5.5q-153 201 -201 251q-67 70 -132 83 q-26 5 -61 5h-20z" glyph-name="n" unicode="n"/>
<glyph d="M531 692q88 0 153.5 -8t126 -30.5t98 -61t59.5 -101t22 -149.5t-22 -149.5t-59.5 -101t-98 -61t-126 -30.5t-153.5 -8t-153.5 8t-126 30.5t-98 61t-59.5 101t-22 149.5t22 149.5t59.5 101t98 61t126 30.5t153.5 8zM531 4q88 0 153 8t123 30t94 59.5t56.5 97.5t20.5 143 t-20.5 143t-56.5 97.5t-94 59.5t-123 30t-153 8t-153 -8t-123 -30t-94 -59.5t-56.5 -97.5t-20.5 -143t20.5 -143t56.5 -97.5t94 -59.5t123 -30t153 -8z" glyph-name="o" unicode="o"/>
<glyph horiz-adv-x="944" d="M112 684h565q100 0 159.5 -57t59.5 -146t-59.5 -146t-159.5 -57h-553v-278h-12v684zM124 290h553q99 0 153 56t54 135t-54 135t-153 56h-553v-382z" glyph-name="p" unicode="p"/>
<glyph d="M813 -163h-17l-55 67q-44 53 -85.5 70.5t-124.5 17.5q-88 0 -153.5 8t-126 30.5t-98 61t-59.5 101t-22 149.5t22 149.5t59.5 101t98 61t126 30.5t153.5 8t153.5 -8t126 -30.5t98 -61t59.5 -101t22 -149.5q0 -94 -25 -160t-74.5 -104.5t-112 -57.5t-148.5 -25 q60 -12 120 -83zM531 4q88 0 153 8t123 30t94 59.5t56.5 97.5t20.5 143t-20.5 143t-56.5 97.5t-94 59.5t-123 30t-153 8t-153 -8t-123 -30t-94 -59.5t-56.5 -97.5t-20.5 -143t20.5 -143t56.5 -97.5t94 -59.5t123 -30t153 -8z" glyph-name="q" unicode="q"/>
<glyph horiz-adv-x="983" d="M112 0v684h578q113 0 165.5 -57t52.5 -140q0 -76 -45 -128t-120 -64q69 -15 106.5 -62t37.5 -114v-119h-12v119q0 80 -53 126t-141 46h-557v-291h-12zM124 302h566q105 0 155.5 54t50.5 131q0 36 -10.5 67.5t-33.5 58.5t-64.5 43t-97.5 16h-566v-370z" glyph-name="r" unicode="r"/>
<glyph horiz-adv-x="925" d="M48 12h592q108 0 165 40.5t57 119.5q0 74 -53.5 112.5t-171.5 48.5l-346 30q-218 19 -218 168q0 75 50 114t143 39h555v-12h-555q-181 0 -181 -141q0 -71 51 -109t157 -47l345 -30q123 -11 179.5 -52t56.5 -121q0 -84 -59.5 -128t-174.5 -44h-592v12z" glyph-name="s" unicode="s"/>
<glyph horiz-adv-x="816" d="M414 0h-12v673h-392v11h796v-11h-392v-673z" glyph-name="t" unicode="t"/>
<glyph horiz-adv-x="1011" d="M103 317v367h12v-367q0 -172 86 -242.5t303 -70.5q220 0 306 70t86 243v367h12v-367q0 -178 -89.5 -251.5t-314.5 -73.5q-219 0 -310 71.5t-91 253.5z" glyph-name="u" unicode="u"/>
<glyph horiz-adv-x="959" d="M900 684h13l-281 -592q-25 -52 -61 -76t-91 -24q-56 0 -91.5 23t-61.5 77l-282 592h14l279 -586q24 -50 57 -72t85 -22t84.5 22t56.5 72z" glyph-name="v" unicode="v"/>
<glyph horiz-adv-x="1408" d="M1347 684h14l-250 -573q-28 -64 -64.5 -91.5t-96.5 -27.5q-61 0 -98.5 25t-66.5 84l-81 165l-81 -165q-29 -59 -66.5 -84t-98.5 -25q-60 0 -96.5 27.5t-64.5 91.5l-250 573h14l247 -568q28 -66 63 -89.5t87 -23.5q57 0 92 23.5t63 80.5l85 172l-197 405h13l190 -391 l190 391h13l-197 -405l85 -172q27 -57 62 -80.5t93 -23.5q51 0 86 23.5t64 89.5z" glyph-name="w" unicode="w"/>
<glyph horiz-adv-x="790" d="M767 0h-16l-356 347l-356 -347h-16l364 354l-353 330h16l345 -323l343 323h17l-352 -330z" glyph-name="x" unicode="x"/>
<glyph horiz-adv-x="826" d="M15 684h17l277 -272q84 -84 104 -149q20 65 104 149l277 272h17l-286 -281q-106 -104 -106 -179v-224h-12v224q0 73 -106 179z" glyph-name="y" unicode="y"/>
<glyph horiz-adv-x="891" d="M60 0v48q0 34 12 64.5t29.5 54t50.5 47t60 39.5t73.5 35.5t76.5 30.5t82 29q72 25 115 42t99 45t86.5 54.5t52.5 64.5t22 82v36h-769v12h781v-48q0 -34 -12 -64.5t-29 -53.5t-49.5 -46.5t-59 -38.5t-73.5 -35t-76.5 -31t-83.5 -30q-52 -18 -81 -29t-75 -30.5t-72 -34.5 t-58.5 -37.5t-49 -45t-28.5 -51.5t-12 -61v-36h770v-12h-782z" glyph-name="z" unicode="z"/>
<glyph horiz-adv-x="390" d="M151 506v191q0 33 20.5 52.5t53.5 19.5h112v-12h-112q-27 0 -44.5 -16.5t-17.5 -43.5v-191q0 -59 -28.5 -104.5t-79.5 -69.5q51 -24 79.5 -69.5t28.5 -104.5v-191q0 -27 17.5 -43.5t44.5 -16.5h112v-12h-112q-33 0 -53.5 19.5t-20.5 52.5v191q0 60 -29.5 104t-82.5 65v10 q53 21 82.5 65t29.5 104z" glyph-name="braceleft" unicode="{"/>
<glyph horiz-adv-x="228" d="M108 769h12v-874h-12v874z" glyph-name="bar" unicode="|"/>
<glyph horiz-adv-x="390" d="M239 697v-191q0 -60 29.5 -104t82.5 -65v-10q-53 -21 -82.5 -65t-29.5 -104v-191q0 -33 -20.5 -52.5t-53.5 -19.5h-112v12h112q27 0 44.5 16.5t17.5 43.5v191q0 59 28 104.5t79 69.5q-51 24 -79 69.5t-28 104.5v191q0 27 -17.5 43.5t-44.5 16.5h-112v12h112 q33 0 53.5 -19.5t20.5 -52.5z" glyph-name="braceright" unicode="}"/>
<glyph horiz-adv-x="822" d="M573 261q-45 0 -90 24.5t-75.5 53.5t-73.5 53.5t-85 24.5q-35 0 -63 -16t-44 -41t-25 -46.5t-13 -42.5h-12q5 25 15 49.5t28 50.5t48 42t67 16q44 0 88 -24.5t74.5 -53.5t74 -53.5t86.5 -24.5q31 0 57 13t41 30.5t25.5 39.5t14.5 36.5t6 26.5h13q-4 -21 -11.5 -41 t-24 -50t-48 -48.5t-73.5 -18.5z" glyph-name="asciitilde" unicode="~"/>
<glyph horiz-adv-x="239" d="M126 499l1 -499h-15l1 499h13zM128 684v-104h-17v104h17z" glyph-name="exclamdown" unicode="¡"/>
<glyph horiz-adv-x="754" d="M473 73v-167h-12v167h-156q-133 0 -192 62t-59 198q0 139 60 200.5t191 61.5h156v147h12v-147h208v-12h-376q-127 0 -183 -59t-56 -191q0 -133 55.5 -190.5t183.5 -57.5h376v-12h-208z" glyph-name="cent" unicode="¢"/>
<glyph horiz-adv-x="906" d="M860 12v-12h-803v12h184v289h-159v12h159v100q0 143 72 207t237 64h258v-12h-258q-160 0 -228.5 -60t-68.5 -199v-100h379v-12h-379v-289h607z" glyph-name="sterling" unicode="£"/>
<glyph horiz-adv-x="861" d="M197 162l-117 -118l-7 7l116 119q-62 65 -62 172q0 106 62 171l-116 119l7 8l117 -119q80 75 234 75q152 0 232 -75l118 119l7 -8l-117 -119q63 -66 63 -171t-62 -172l116 -119l-7 -7l-117 118q-81 -76 -233 -76q-155 0 -234 76zM431 585q-139 0 -216 -63.5t-77 -179.5 q0 -117 76.5 -181t216.5 -64q139 0 215.5 64t76.5 181q0 115 -76.5 179t-215.5 64z" glyph-name="currency" unicode="¤"/>
<glyph horiz-adv-x="843" d="M721 159v-11h-293v-148h-12v148h-294v11h294v65q0 57 -68 137h-226v11h217l-29 31q-45 47 -135.5 140.5t-136.5 140.5h17l263 -272q86 -91 104 -149q18 58 104 149l263 272h17q-46 -47 -136.5 -140.5t-135.5 -140.5l-30 -31h217v-11h-226q-67 -78 -67 -137v-65h293z" glyph-name="yen" unicode="¥"/>
<glyph horiz-adv-x="230" d="M109 769h12v-365h-12v365zM109 288h12v-393h-12v393z" glyph-name="brokenbar" unicode="¦"/>
<glyph horiz-adv-x="825" d="M240 684h499v-12h-499q-63 0 -97.5 -28t-34.5 -79q0 -50 33 -75t102 -30l356 -24q156 -10 156 -123q0 -69 -59 -111q37 -28 37 -83q0 -56 -37.5 -87.5t-106.5 -31.5h-512v12h512q63 0 97.5 28t34.5 79q0 50 -33 75t-102 30l-356 24q-156 10 -156 123q0 66 59 110 q-37 28 -37 84t37.5 87.5t106.5 31.5zM86 371q0 -102 144 -111l356 -24q62 -4 99 -26q58 40 58 103q0 101 -144 111l-356 24q-65 5 -99 25q-58 -39 -58 -102z" glyph-name="section" unicode="§"/>
<glyph horiz-adv-x="613" d="M188 893v-124h-14v124h14zM440 893v-124h-14v124h14z" glyph-name="dieresis" unicode="¨"/>
<glyph horiz-adv-x="1098" d="M734 176v-11h-261q-88 0 -128 41.5t-40 135.5t40 136t128 42h261v-11h-261q-82 0 -119.5 -39t-37.5 -128t37.5 -127.5t119.5 -38.5h261zM549 719q247 0 362.5 -91t115.5 -286t-115.5 -286t-362.5 -91t-362.5 91t-115.5 286t115.5 286t362.5 91zM549 -24q242 0 354.5 88 t112.5 278t-112.5 278t-354.5 88t-354.5 -88t-112.5 -278t112.5 -278t354.5 -88z" glyph-name="copyright" unicode="©"/>
<glyph horiz-adv-x="832" d="M77 347l348 -181v-14l-373 195l373 195v-14zM386 347l348 -181v-14l-373 195l373 195v-14z" glyph-name="guillemotleft" unicode="«"/>
<glyph horiz-adv-x="574" d="M484 352v-11h-394v11h394z" glyph-name="uni00AD" unicode="­"/>
<glyph horiz-adv-x="1098" d="M549 719q247 0 362.5 -91t115.5 -286t-115.5 -286t-362.5 -91t-362.5 91t-115.5 286t115.5 286t362.5 91zM549 -24q242 0 354.5 88t112.5 278t-112.5 278t-354.5 88t-354.5 -88t-112.5 -278t112.5 -278t354.5 -88zM355 520h295q53 0 84.5 -28.5t31.5 -74.5 q0 -37 -21.5 -63t-58.5 -35q69 -19 69 -90v-59h-11v59q0 40 -26 62.5t-74 22.5h-278v-144h-11v350zM366 325h284q54 0 79 27.5t25 64.5t-25 64.5t-79 27.5h-284v-184z" glyph-name="registered" unicode="®"/>
<glyph horiz-adv-x="478" d="M239 381q-67 0 -115 47.5t-48 115.5t48 115.5t115 47.5t115 -47.5t48 -115.5t-48 -115.5t-115 -47.5zM239 696q-63 0 -107.5 -44.5t-44.5 -107.5t44.5 -107.5t107.5 -44.5t107.5 44.5t44.5 107.5t-44.5 107.5t-107.5 44.5z" glyph-name="degree" unicode="°"/>
<glyph horiz-adv-x="785" d="M700 362v-11h-302v-234h-11v234h-302v11h302v234h11v-234h302zM700 11v-11h-615v11h615z" glyph-name="plusminus" unicode="±"/>
<glyph horiz-adv-x="545" d="M170 756l141 179h18l-145 -179h-14z" glyph-name="acute" unicode="´"/>
<glyph horiz-adv-x="838" d="M726 684v-684h-12v672h-152v-672h-12v268h-245q-119 0 -186 56t-67 152t67.5 152t185.5 56h421zM550 280v392h-245q-113 0 -177 -52t-64 -144t64 -144t177 -52h245z" glyph-name="paragraph" unicode="¶"/>
<glyph horiz-adv-x="207" d="M112 409v-104h-17v104h17z" glyph-name="periodcentered" unicode="·"/>
<glyph horiz-adv-x="444" d="M168 6h12l-25 -77h74q61 0 94.5 -28t33.5 -77q0 -50 -35 -77t-99 -27h-135l4 12h131q59 0 90.5 23.5t31.5 68.5q0 35 -24.5 64t-91.5 29h-90z" glyph-name="cedilla" unicode="¸"/>
<glyph horiz-adv-x="832" d="M407 166l348 181l-348 181v14l373 -195l-373 -195v14zM98 166l348 181l-348 181v14l373 -195l-373 -195v14z" glyph-name="guillemotright" unicode="»"/>
<glyph horiz-adv-x="685" d="M405 439v60h13v-60q0 -68 -58 -91l-198 -79q-99 -40 -99 -131q0 -21 6 -40t21.5 -40t50.5 -33.5t85 -12.5h418v-12h-418q-84 0 -129.5 36.5t-45.5 101.5q0 100 106 142l199 79q49 19 49 80zM405 580v104h13v-104h-13z" glyph-name="questiondown" unicode="¿"/>
<glyph horiz-adv-x="970" d="M383 935l141 -179h-14l-145 179h18zM664 554l258 -554h-13l-111 238h-626l-111 -238h-13l258 554q34 74 77.5 106t101.5 32t101.5 -32t77.5 -106zM793 249l-140 300q-30 64 -69.5 97.5t-98.5 33.5t-98.5 -33.5t-69.5 -97.5l-140 -300h616z" glyph-name="Agrave" unicode="À"/>
<glyph horiz-adv-x="970" d="M664 554l258 -554h-13l-111 238h-626l-111 -238h-13l258 554q34 74 77.5 106t101.5 32t101.5 -32t77.5 -106zM793 249l-140 300q-30 64 -69.5 97.5t-98.5 33.5t-98.5 -33.5t-69.5 -97.5l-140 -300h616zM435 756l141 179h18l-145 -179h-14z" glyph-name="Aacute" unicode="Á"/>
<glyph horiz-adv-x="970" d="M664 554l258 -554h-13l-111 238h-626l-111 -238h-13l258 554q34 74 77.5 106t101.5 32t101.5 -32t77.5 -106zM793 249l-140 300q-30 64 -69.5 97.5t-98.5 33.5t-98.5 -33.5t-69.5 -97.5l-140 -300h616zM312 756l164 169h18l164 -169h-13l-160 158l-160 -158h-13z" glyph-name="Acircumflex" unicode="Â"/>
<glyph horiz-adv-x="970" d="M664 554l258 -554h-13l-111 238h-626l-111 -238h-13l258 554q34 74 77.5 106t101.5 32t101.5 -32t77.5 -106zM793 249l-140 300q-30 64 -69.5 97.5t-98.5 33.5t-98.5 -33.5t-69.5 -97.5l-140 -300h616zM602 760q27 0 47.5 15t30.5 39t14 39.5t6 30.5h12 q-1 -14 -5.5 -31.5t-15.5 -44t-34 -43.5t-55 -17q-26 0 -51.5 13.5t-45.5 32t-39.5 37.5t-43.5 32.5t-48 13.5q-27 0 -47.5 -15t-30.5 -39t-14 -39.5t-6 -30.5h-12q1 14 5.5 31.5t15.5 44t34 43.5t55 17q26 0 51.5 -13.5t45.5 -32t39.5 -37.5t43.5 -32.5t48 -13.5z" glyph-name="Atilde" unicode="Ã"/>
<glyph horiz-adv-x="970" d="M664 554l258 -554h-13l-111 238h-626l-111 -238h-13l258 554q34 74 77.5 106t101.5 32t101.5 -32t77.5 -106zM793 249l-140 300q-30 64 -69.5 97.5t-98.5 33.5t-98.5 -33.5t-69.5 -97.5l-140 -300h616zM366 893v-124h-14v124h14zM618 893v-124h-14v124h14z" glyph-name="Adieresis" unicode="Ä"/>
<glyph horiz-adv-x="970" d="M664 554l258 -554h-13l-111 238h-626l-111 -238h-13l258 554q53 115 139 133q-39 12 -63.5 45t-24.5 76q0 53 37.5 90.5t90.5 37.5t90.5 -37.5t37.5 -90.5q0 -42 -25 -75.5t-64 -45.5q85 -18 140 -133zM793 249l-140 300q-30 64 -69.5 97.5t-98.5 33.5t-98.5 -33.5 t-69.5 -97.5l-140 -300h616zM485 692q47 0 81.5 34t34.5 82t-34.5 82t-81.5 34q-48 0 -82 -34t-34 -82t34 -82t82 -34z" glyph-name="Aring" unicode="Å"/>
<glyph horiz-adv-x="1441" d="M41 0h-14l321 558q40 70 81 98t97 28h856v-12h-788q70 -28 105 -127l70 -197h588v-12h-583l115 -324h493v-12h-502l-82 228h-626zM358 552l-180 -313h616l-107 302q-21 60 -57 96t-104 36q-58 0 -95 -29t-73 -92z" glyph-name="AE" unicode="Æ"/>
<glyph horiz-adv-x="956" d="M920 684v-12h-532q-156 0 -229 -80t-73 -249q0 -171 73.5 -251t228.5 -80h532v-12h-373l-23 -71h74q61 0 94.5 -28t33.5 -77q0 -50 -35 -77t-99 -27h-135l4 12h131q58 0 90 23.5t32 68.5q0 36 -24.5 64.5t-91.5 28.5h-90l27 83h-147q-159 0 -236.5 83.5t-77.5 259.5 q0 174 76.5 257.5t237.5 83.5h532z" glyph-name="Ccedilla" unicode="Ç"/>
<glyph horiz-adv-x="980" d="M448 935l141 -179h-14l-145 179h18zM920 672h-532q-154 0 -228 -79t-74 -245h813v-12h-813q2 -166 75 -245t227 -79h532v-12h-532q-161 0 -237.5 84t-76.5 259q0 174 76.5 257.5t237.5 83.5h532v-12z" glyph-name="Egrave" unicode="È"/>
<glyph horiz-adv-x="980" d="M507 756l141 179h18l-145 -179h-14zM920 672h-532q-154 0 -228 -79t-74 -245h813v-12h-813q2 -166 75 -245t227 -79h532v-12h-532q-161 0 -237.5 84t-76.5 259q0 174 76.5 257.5t237.5 83.5h532v-12z" glyph-name="Eacute" unicode="É"/>
<glyph horiz-adv-x="980" d="M382 756l164 169h18l164 -169h-13l-160 158l-160 -158h-13zM920 672h-532q-154 0 -228 -79t-74 -245h813v-12h-813q2 -166 75 -245t227 -79h532v-12h-532q-161 0 -237.5 84t-76.5 259q0 174 76.5 257.5t237.5 83.5h532v-12z" glyph-name="Ecircumflex" unicode="Ê"/>
<glyph horiz-adv-x="980" d="M436 893v-124h-14v124h14zM688 893v-124h-14v124h14zM920 672h-532q-154 0 -228 -79t-74 -245h813v-12h-813q2 -166 75 -245t227 -79h532v-12h-532q-161 0 -237.5 84t-76.5 259q0 174 76.5 257.5t237.5 83.5h532v-12z" glyph-name="Edieresis" unicode="Ë"/>
<glyph horiz-adv-x="236" d="M112 684h12v-684h-12v684zM20 935l141 -179h-14l-145 179h18z" glyph-name="Igrave" unicode="Ì"/>
<glyph horiz-adv-x="236" d="M112 684h12v-684h-12v684zM74 756l141 179h18l-145 -179h-14z" glyph-name="Iacute" unicode="Í"/>
<glyph horiz-adv-x="236" d="M112 684h12v-684h-12v684zM-55 756l164 169h18l164 -169h-13l-160 158l-160 -158h-13z" glyph-name="Icircumflex" unicode="Î"/>
<glyph horiz-adv-x="236" d="M112 684h12v-684h-12v684zM-1 893v-124h-14v124h14zM251 893v-124h-14v124h14z" glyph-name="Idieresis" unicode="Ï"/>
<glyph horiz-adv-x="1059" d="M123 0v341h-121v11h121v332h547q162 0 238.5 -84t76.5 -258q0 -176 -77.5 -259t-237.5 -83h-547zM973 342q0 167 -73.5 248.5t-229.5 81.5h-535v-320h472v-11h-472v-329h535q156 0 229.5 81t73.5 249z" glyph-name="Eth" unicode="Ð"/>
<glyph horiz-adv-x="1078" d="M671 760q27 0 47.5 15t30.5 39t14 39.5t6 30.5h12q-1 -14 -5.5 -31.5t-15.5 -44t-34 -43.5t-55 -17q-26 0 -51.5 13.5t-45.5 32t-39.5 37.5t-43.5 32.5t-48 13.5q-27 0 -47.5 -15t-30.5 -39t-14 -39.5t-6 -30.5h-12q1 14 5.5 31.5t15.5 44t34 43.5t55 17q26 0 51.5 -13.5 t45.5 -32t39.5 -37.5t43.5 -32.5t48 -13.5zM124 673v-673h-12v684h32q101 0 164.5 -56.5t233.5 -278.5q4 -5 6 -8q149 -195 193 -241q67 -70 131 -84q27 -5 62 -5h20v673h12v-684h-32q-37 0 -63.5 4.5t-55.5 21t-51 35t-59 61t-68.5 83.5t-89.5 117q-3 4 -5 6.5t-4 5.5 q-153 201 -201 251q-67 70 -132 83q-26 5 -61 5h-20z" glyph-name="Ntilde" unicode="Ñ"/>
<glyph d="M531 692q88 0 153.5 -8t126 -30.5t98 -61t59.5 -101t22 -149.5t-22 -149.5t-59.5 -101t-98 -61t-126 -30.5t-153.5 -8t-153.5 8t-126 30.5t-98 61t-59.5 101t-22 149.5t22 149.5t59.5 101t98 61t126 30.5t153.5 8zM531 4q88 0 153 8t123 30t94 59.5t56.5 97.5t20.5 143 t-20.5 143t-56.5 97.5t-94 59.5t-123 30t-153 8t-153 -8t-123 -30t-94 -59.5t-56.5 -97.5t-20.5 -143t20.5 -143t56.5 -97.5t94 -59.5t123 -30t153 -8zM429 935l141 -179h-14l-145 179h18z" glyph-name="Ograve" unicode="Ò"/>
<glyph d="M531 692q88 0 153.5 -8t126 -30.5t98 -61t59.5 -101t22 -149.5t-22 -149.5t-59.5 -101t-98 -61t-126 -30.5t-153.5 -8t-153.5 8t-126 30.5t-98 61t-59.5 101t-22 149.5t22 149.5t59.5 101t98 61t126 30.5t153.5 8zM531 4q88 0 153 8t123 30t94 59.5t56.5 97.5t20.5 143 t-20.5 143t-56.5 97.5t-94 59.5t-123 30t-153 8t-153 -8t-123 -30t-94 -59.5t-56.5 -97.5t-20.5 -143t20.5 -143t56.5 -97.5t94 -59.5t123 -30t153 -8zM491 756l141 179h18l-145 -179h-14z" glyph-name="Oacute" unicode="Ó"/>
<glyph d="M531 692q88 0 153.5 -8t126 -30.5t98 -61t59.5 -101t22 -149.5t-22 -149.5t-59.5 -101t-98 -61t-126 -30.5t-153.5 -8t-153.5 8t-126 30.5t-98 61t-59.5 101t-22 149.5t22 149.5t59.5 101t98 61t126 30.5t153.5 8zM531 4q88 0 153 8t123 30t94 59.5t56.5 97.5t20.5 143 t-20.5 143t-56.5 97.5t-94 59.5t-123 30t-153 8t-153 -8t-123 -30t-94 -59.5t-56.5 -97.5t-20.5 -143t20.5 -143t56.5 -97.5t94 -59.5t123 -30t153 -8zM358 756l164 169h18l164 -169h-13l-160 158l-160 -158h-13z" glyph-name="Ocircumflex" unicode="Ô"/>
<glyph d="M531 692q88 0 153.5 -8t126 -30.5t98 -61t59.5 -101t22 -149.5t-22 -149.5t-59.5 -101t-98 -61t-126 -30.5t-153.5 -8t-153.5 8t-126 30.5t-98 61t-59.5 101t-22 149.5t22 149.5t59.5 101t98 61t126 30.5t153.5 8zM531 4q88 0 153 8t123 30t94 59.5t56.5 97.5t20.5 143 t-20.5 143t-56.5 97.5t-94 59.5t-123 30t-153 8t-153 -8t-123 -30t-94 -59.5t-56.5 -97.5t-20.5 -143t20.5 -143t56.5 -97.5t94 -59.5t123 -30t153 -8zM636 760q27 0 47.5 15t30.5 39t14 39.5t6 30.5h12q-1 -14 -5.5 -31.5t-15.5 -44t-34 -43.5t-55 -17q-26 0 -51.5 13.5 t-45.5 32t-39.5 37.5t-43.5 32.5t-48 13.5q-27 0 -47.5 -15t-30.5 -39t-14 -39.5t-6 -30.5h-12q1 14 5.5 31.5t15.5 44t34 43.5t55 17q26 0 51.5 -13.5t45.5 -32t39.5 -37.5t43.5 -32.5t48 -13.5z" glyph-name="Otilde" unicode="Õ"/>
<glyph d="M531 692q88 0 153.5 -8t126 -30.5t98 -61t59.5 -101t22 -149.5t-22 -149.5t-59.5 -101t-98 -61t-126 -30.5t-153.5 -8t-153.5 8t-126 30.5t-98 61t-59.5 101t-22 149.5t22 149.5t59.5 101t98 61t126 30.5t153.5 8zM531 4q88 0 153 8t123 30t94 59.5t56.5 97.5t20.5 143 t-20.5 143t-56.5 97.5t-94 59.5t-123 30t-153 8t-153 -8t-123 -30t-94 -59.5t-56.5 -97.5t-20.5 -143t20.5 -143t56.5 -97.5t94 -59.5t123 -30t153 -8zM412 893v-124h-14v124h14zM664 893v-124h-14v124h14z" glyph-name="Odieresis" unicode="Ö"/>
<glyph horiz-adv-x="697" d="M357 346l247 -200l-7 -9l-249 201l-248 -201l-7 9l246 200l-246 200l7 9l248 -202l249 202l7 -9z" glyph-name="multiply" unicode="×"/>
<glyph horiz-adv-x="1060" d="M530 692q129 0 219 -19.5t146 -69.5l99 68l6 -9l-97 -67q86 -83 86 -253q0 -87 -22 -149.5t-59.5 -101t-98 -61t-126 -30.5t-153.5 -8q-129 0 -219 19.5t-147 69.5l-97 -68l-6 9l95 66q-85 82 -85 254q0 87 22 149.5t59.5 101t98 61t126 30.5t153.5 8zM83 342 q0 -168 84 -246l718 499q-55 47 -142 66t-213 19q-88 0 -153 -8t-123 -30t-94 -59.5t-56.5 -97.5t-20.5 -143zM530 4q88 0 153 8t123 30t94 59.5t56.5 97.5t20.5 143q0 165 -84 246l-718 -500q98 -84 355 -84z" glyph-name="Oslash" unicode="Ø"/>
<glyph horiz-adv-x="1011" d="M412 935l141 -179h-14l-145 179h18zM103 317v367h12v-367q0 -172 86 -242.5t303 -70.5q220 0 306 70t86 243v367h12v-367q0 -178 -89.5 -251.5t-314.5 -73.5q-219 0 -310 71.5t-91 253.5z" glyph-name="Ugrave" unicode="Ù"/>
<glyph horiz-adv-x="1011" d="M470 756l141 179h18l-145 -179h-14zM103 317v367h12v-367q0 -172 86 -242.5t303 -70.5q220 0 306 70t86 243v367h12v-367q0 -178 -89.5 -251.5t-314.5 -73.5q-219 0 -310 71.5t-91 253.5z" glyph-name="Uacute" unicode="Ú"/>
<glyph horiz-adv-x="1011" d="M332 756l164 169h18l164 -169h-13l-160 158l-160 -158h-13zM103 317v367h12v-367q0 -172 86 -242.5t303 -70.5q220 0 306 70t86 243v367h12v-367q0 -178 -89.5 -251.5t-314.5 -73.5q-219 0 -310 71.5t-91 253.5z" glyph-name="Ucircumflex" unicode="Û"/>
<glyph horiz-adv-x="1011" d="M386 893v-124h-14v124h14zM638 893v-124h-14v124h14zM103 317v367h12v-367q0 -172 86 -242.5t303 -70.5q220 0 306 70t86 243v367h12v-367q0 -178 -89.5 -251.5t-314.5 -73.5q-219 0 -310 71.5t-91 253.5z" glyph-name="Udieresis" unicode="Ü"/>
<glyph horiz-adv-x="826" d="M373 756l141 179h18l-145 -179h-14zM15 684h17l277 -272q84 -84 104 -149q20 65 104 149l277 272h17l-286 -281q-106 -104 -106 -179v-224h-12v224q0 73 -106 179z" glyph-name="Yacute" unicode="Ý"/>
<glyph horiz-adv-x="943" d="M112 684h12v-132h553q100 0 159.5 -57t59.5 -146t-59.5 -146t-159.5 -57h-553v-146h-12v684zM124 158h553q99 0 153 56t54 135t-54 135t-153 56h-553v-382z" glyph-name="Thorn" unicode="Þ"/>
<glyph horiz-adv-x="1863" d="M48 12h592q108 0 165 40.5t57 119.5q0 74 -53.5 112.5t-171.5 48.5l-346 30q-218 19 -218 168q0 75 50 114t143 39h555v-12h-555q-181 0 -181 -141q0 -71 51 -109t157 -47l345 -30q123 -11 179.5 -52t56.5 -121q0 -84 -59.5 -128t-174.5 -44h-592v12zM986 12h592 q108 0 165 40.5t57 119.5q0 74 -53.5 112.5t-171.5 48.5l-346 30q-218 19 -218 168q0 75 50 114t143 39h555v-12h-555q-181 0 -181 -141q0 -71 51 -109t157 -47l345 -30q123 -11 179.5 -52t56.5 -121q0 -84 -59.5 -128t-174.5 -44h-592v12z" glyph-name="germandbls" unicode="ß"/>
<glyph horiz-adv-x="970" d="M383 935l141 -179h-14l-145 179h18zM664 554l258 -554h-13l-111 238h-626l-111 -238h-13l258 554q34 74 77.5 106t101.5 32t101.5 -32t77.5 -106zM793 249l-140 300q-30 64 -69.5 97.5t-98.5 33.5t-98.5 -33.5t-69.5 -97.5l-140 -300h616z" glyph-name="agrave" unicode="à"/>
<glyph horiz-adv-x="970" d="M664 554l258 -554h-13l-111 238h-626l-111 -238h-13l258 554q34 74 77.5 106t101.5 32t101.5 -32t77.5 -106zM793 249l-140 300q-30 64 -69.5 97.5t-98.5 33.5t-98.5 -33.5t-69.5 -97.5l-140 -300h616zM435 756l141 179h18l-145 -179h-14z" glyph-name="aacute" unicode="á"/>
<glyph horiz-adv-x="970" d="M664 554l258 -554h-13l-111 238h-626l-111 -238h-13l258 554q34 74 77.5 106t101.5 32t101.5 -32t77.5 -106zM793 249l-140 300q-30 64 -69.5 97.5t-98.5 33.5t-98.5 -33.5t-69.5 -97.5l-140 -300h616zM312 756l164 169h18l164 -169h-13l-160 158l-160 -158h-13z" glyph-name="acircumflex" unicode="â"/>
<glyph horiz-adv-x="970" d="M664 554l258 -554h-13l-111 238h-626l-111 -238h-13l258 554q34 74 77.5 106t101.5 32t101.5 -32t77.5 -106zM793 249l-140 300q-30 64 -69.5 97.5t-98.5 33.5t-98.5 -33.5t-69.5 -97.5l-140 -300h616zM602 760q27 0 47.5 15t30.5 39t14 39.5t6 30.5h12 q-1 -14 -5.5 -31.5t-15.5 -44t-34 -43.5t-55 -17q-26 0 -51.5 13.5t-45.5 32t-39.5 37.5t-43.5 32.5t-48 13.5q-27 0 -47.5 -15t-30.5 -39t-14 -39.5t-6 -30.5h-12q1 14 5.5 31.5t15.5 44t34 43.5t55 17q26 0 51.5 -13.5t45.5 -32t39.5 -37.5t43.5 -32.5t48 -13.5z" glyph-name="atilde" unicode="ã"/>
<glyph horiz-adv-x="970" d="M664 554l258 -554h-13l-111 238h-626l-111 -238h-13l258 554q34 74 77.5 106t101.5 32t101.5 -32t77.5 -106zM793 249l-140 300q-30 64 -69.5 97.5t-98.5 33.5t-98.5 -33.5t-69.5 -97.5l-140 -300h616zM366 893v-124h-14v124h14zM618 893v-124h-14v124h14z" glyph-name="adieresis" unicode="ä"/>
<glyph horiz-adv-x="970" d="M664 554l258 -554h-13l-111 238h-626l-111 -238h-13l258 554q53 115 139 133q-39 12 -63.5 45t-24.5 76q0 53 37.5 90.5t90.5 37.5t90.5 -37.5t37.5 -90.5q0 -42 -25 -75.5t-64 -45.5q85 -18 140 -133zM793 249l-140 300q-30 64 -69.5 97.5t-98.5 33.5t-98.5 -33.5 t-69.5 -97.5l-140 -300h616zM485 692q47 0 81.5 34t34.5 82t-34.5 82t-81.5 34q-48 0 -82 -34t-34 -82t34 -82t82 -34z" glyph-name="aring" unicode="å"/>
<glyph horiz-adv-x="1441" d="M41 0h-14l321 558q40 70 81 98t97 28h856v-12h-788q70 -28 105 -127l70 -197h588v-12h-583l115 -324h493v-12h-502l-82 228h-626zM358 552l-180 -313h616l-107 302q-21 60 -57 96t-104 36q-58 0 -95 -29t-73 -92z" glyph-name="ae" unicode="æ"/>
<glyph horiz-adv-x="956" d="M920 684v-12h-532q-156 0 -229 -80t-73 -249q0 -171 73.5 -251t228.5 -80h532v-12h-373l-23 -71h74q61 0 94.5 -28t33.5 -77q0 -50 -35 -77t-99 -27h-135l4 12h131q58 0 90 23.5t32 68.5q0 36 -24.5 64.5t-91.5 28.5h-90l27 83h-147q-159 0 -236.5 83.5t-77.5 259.5 q0 174 76.5 257.5t237.5 83.5h532z" glyph-name="ccedilla" unicode="ç"/>
<glyph horiz-adv-x="980" d="M448 935l141 -179h-14l-145 179h18zM920 672h-532q-154 0 -228 -79t-74 -245h813v-12h-813q2 -166 75 -245t227 -79h532v-12h-532q-161 0 -237.5 84t-76.5 259q0 174 76.5 257.5t237.5 83.5h532v-12z" glyph-name="egrave" unicode="è"/>
<glyph horiz-adv-x="980" d="M507 756l141 179h18l-145 -179h-14zM920 672h-532q-154 0 -228 -79t-74 -245h813v-12h-813q2 -166 75 -245t227 -79h532v-12h-532q-161 0 -237.5 84t-76.5 259q0 174 76.5 257.5t237.5 83.5h532v-12z" glyph-name="eacute" unicode="é"/>
<glyph horiz-adv-x="980" d="M382 756l164 169h18l164 -169h-13l-160 158l-160 -158h-13zM920 672h-532q-154 0 -228 -79t-74 -245h813v-12h-813q2 -166 75 -245t227 -79h532v-12h-532q-161 0 -237.5 84t-76.5 259q0 174 76.5 257.5t237.5 83.5h532v-12z" glyph-name="ecircumflex" unicode="ê"/>
<glyph horiz-adv-x="980" d="M436 893v-124h-14v124h14zM688 893v-124h-14v124h14zM920 672h-532q-154 0 -228 -79t-74 -245h813v-12h-813q2 -166 75 -245t227 -79h532v-12h-532q-161 0 -237.5 84t-76.5 259q0 174 76.5 257.5t237.5 83.5h532v-12z" glyph-name="edieresis" unicode="ë"/>
<glyph horiz-adv-x="236" d="M112 684h12v-684h-12v684zM20 935l141 -179h-14l-145 179h18z" glyph-name="igrave" unicode="ì"/>
<glyph horiz-adv-x="236" d="M112 684h12v-684h-12v684zM74 756l141 179h18l-145 -179h-14z" glyph-name="iacute" unicode="í"/>
<glyph horiz-adv-x="236" d="M112 684h12v-684h-12v684zM-55 756l164 169h18l164 -169h-13l-160 158l-160 -158h-13z" glyph-name="icircumflex" unicode="î"/>
<glyph horiz-adv-x="236" d="M112 684h12v-684h-12v684zM-1 893v-124h-14v124h14zM251 893v-124h-14v124h14z" glyph-name="idieresis" unicode="ï"/>
<glyph horiz-adv-x="1082" d="M146 0v341h-121v11h121v332h547q162 0 238.5 -84t76.5 -258q0 -176 -77.5 -259t-237.5 -83h-547zM996 342q0 167 -73.5 248.5t-229.5 81.5h-535v-320h472v-11h-472v-329h535q156 0 229.5 81t73.5 249z" glyph-name="eth" unicode="ð"/>
<glyph horiz-adv-x="1078" d="M671 760q27 0 47.5 15t30.5 39t14 39.5t6 30.5h12q-1 -14 -5.5 -31.5t-15.5 -44t-34 -43.5t-55 -17q-26 0 -51.5 13.5t-45.5 32t-39.5 37.5t-43.5 32.5t-48 13.5q-27 0 -47.5 -15t-30.5 -39t-14 -39.5t-6 -30.5h-12q1 14 5.5 31.5t15.5 44t34 43.5t55 17q26 0 51.5 -13.5 t45.5 -32t39.5 -37.5t43.5 -32.5t48 -13.5zM124 673v-673h-12v684h32q101 0 164.5 -56.5t233.5 -278.5q4 -5 6 -8q149 -195 193 -241q67 -70 131 -84q27 -5 62 -5h20v673h12v-684h-32q-37 0 -63.5 4.5t-55.5 21t-51 35t-59 61t-68.5 83.5t-89.5 117q-3 4 -5 6.5t-4 5.5 q-153 201 -201 251q-67 70 -132 83q-26 5 -61 5h-20z" glyph-name="ntilde" unicode="ñ"/>
<glyph d="M531 692q88 0 153.5 -8t126 -30.5t98 -61t59.5 -101t22 -149.5t-22 -149.5t-59.5 -101t-98 -61t-126 -30.5t-153.5 -8t-153.5 8t-126 30.5t-98 61t-59.5 101t-22 149.5t22 149.5t59.5 101t98 61t126 30.5t153.5 8zM531 4q88 0 153 8t123 30t94 59.5t56.5 97.5t20.5 143 t-20.5 143t-56.5 97.5t-94 59.5t-123 30t-153 8t-153 -8t-123 -30t-94 -59.5t-56.5 -97.5t-20.5 -143t20.5 -143t56.5 -97.5t94 -59.5t123 -30t153 -8zM429 935l141 -179h-14l-145 179h18z" glyph-name="ograve" unicode="ò"/>
<glyph d="M531 692q88 0 153.5 -8t126 -30.5t98 -61t59.5 -101t22 -149.5t-22 -149.5t-59.5 -101t-98 -61t-126 -30.5t-153.5 -8t-153.5 8t-126 30.5t-98 61t-59.5 101t-22 149.5t22 149.5t59.5 101t98 61t126 30.5t153.5 8zM531 4q88 0 153 8t123 30t94 59.5t56.5 97.5t20.5 143 t-20.5 143t-56.5 97.5t-94 59.5t-123 30t-153 8t-153 -8t-123 -30t-94 -59.5t-56.5 -97.5t-20.5 -143t20.5 -143t56.5 -97.5t94 -59.5t123 -30t153 -8zM491 756l141 179h18l-145 -179h-14z" glyph-name="oacute" unicode="ó"/>
<glyph d="M531 692q88 0 153.5 -8t126 -30.5t98 -61t59.5 -101t22 -149.5t-22 -149.5t-59.5 -101t-98 -61t-126 -30.5t-153.5 -8t-153.5 8t-126 30.5t-98 61t-59.5 101t-22 149.5t22 149.5t59.5 101t98 61t126 30.5t153.5 8zM531 4q88 0 153 8t123 30t94 59.5t56.5 97.5t20.5 143 t-20.5 143t-56.5 97.5t-94 59.5t-123 30t-153 8t-153 -8t-123 -30t-94 -59.5t-56.5 -97.5t-20.5 -143t20.5 -143t56.5 -97.5t94 -59.5t123 -30t153 -8zM358 756l164 169h18l164 -169h-13l-160 158l-160 -158h-13z" glyph-name="ocircumflex" unicode="ô"/>
<glyph d="M531 692q88 0 153.5 -8t126 -30.5t98 -61t59.5 -101t22 -149.5t-22 -149.5t-59.5 -101t-98 -61t-126 -30.5t-153.5 -8t-153.5 8t-126 30.5t-98 61t-59.5 101t-22 149.5t22 149.5t59.5 101t98 61t126 30.5t153.5 8zM531 4q88 0 153 8t123 30t94 59.5t56.5 97.5t20.5 143 t-20.5 143t-56.5 97.5t-94 59.5t-123 30t-153 8t-153 -8t-123 -30t-94 -59.5t-56.5 -97.5t-20.5 -143t20.5 -143t56.5 -97.5t94 -59.5t123 -30t153 -8zM636 760q27 0 47.5 15t30.5 39t14 39.5t6 30.5h12q-1 -14 -5.5 -31.5t-15.5 -44t-34 -43.5t-55 -17q-26 0 -51.5 13.5 t-45.5 32t-39.5 37.5t-43.5 32.5t-48 13.5q-27 0 -47.5 -15t-30.5 -39t-14 -39.5t-6 -30.5h-12q1 14 5.5 31.5t15.5 44t34 43.5t55 17q26 0 51.5 -13.5t45.5 -32t39.5 -37.5t43.5 -32.5t48 -13.5z" glyph-name="otilde" unicode="õ"/>
<glyph d="M531 692q88 0 153.5 -8t126 -30.5t98 -61t59.5 -101t22 -149.5t-22 -149.5t-59.5 -101t-98 -61t-126 -30.5t-153.5 -8t-153.5 8t-126 30.5t-98 61t-59.5 101t-22 149.5t22 149.5t59.5 101t98 61t126 30.5t153.5 8zM531 4q88 0 153 8t123 30t94 59.5t56.5 97.5t20.5 143 t-20.5 143t-56.5 97.5t-94 59.5t-123 30t-153 8t-153 -8t-123 -30t-94 -59.5t-56.5 -97.5t-20.5 -143t20.5 -143t56.5 -97.5t94 -59.5t123 -30t153 -8zM412 893v-124h-14v124h14zM664 893v-124h-14v124h14z" glyph-name="odieresis" unicode="ö"/>
<glyph horiz-adv-x="805" d="M710 352v-11h-615v11h615zM409 624v-104h-13v104h13zM409 173v-104h-13v104h13z" glyph-name="divide" unicode="÷"/>
<glyph horiz-adv-x="1060" d="M530 692q129 0 219 -19.5t146 -69.5l99 68l6 -9l-97 -67q86 -83 86 -253q0 -87 -22 -149.5t-59.5 -101t-98 -61t-126 -30.5t-153.5 -8q-129 0 -219 19.5t-147 69.5l-97 -68l-6 9l95 66q-85 82 -85 254q0 87 22 149.5t59.5 101t98 61t126 30.5t153.5 8zM83 342 q0 -168 84 -246l718 499q-55 47 -142 66t-213 19q-88 0 -153 -8t-123 -30t-94 -59.5t-56.5 -97.5t-20.5 -143zM530 4q88 0 153 8t123 30t94 59.5t56.5 97.5t20.5 143q0 165 -84 246l-718 -500q98 -84 355 -84z" glyph-name="oslash" unicode="ø"/>
<glyph horiz-adv-x="1011" d="M412 935l141 -179h-14l-145 179h18zM103 317v367h12v-367q0 -172 86 -242.5t303 -70.5q220 0 306 70t86 243v367h12v-367q0 -178 -89.5 -251.5t-314.5 -73.5q-219 0 -310 71.5t-91 253.5z" glyph-name="ugrave" unicode="ù"/>
<glyph horiz-adv-x="1011" d="M470 756l141 179h18l-145 -179h-14zM103 317v367h12v-367q0 -172 86 -242.5t303 -70.5q220 0 306 70t86 243v367h12v-367q0 -178 -89.5 -251.5t-314.5 -73.5q-219 0 -310 71.5t-91 253.5z" glyph-name="uacute" unicode="ú"/>
<glyph horiz-adv-x="1011" d="M332 756l164 169h18l164 -169h-13l-160 158l-160 -158h-13zM103 317v367h12v-367q0 -172 86 -242.5t303 -70.5q220 0 306 70t86 243v367h12v-367q0 -178 -89.5 -251.5t-314.5 -73.5q-219 0 -310 71.5t-91 253.5z" glyph-name="ucircumflex" unicode="û"/>
<glyph horiz-adv-x="1011" d="M386 893v-124h-14v124h14zM638 893v-124h-14v124h14zM103 317v367h12v-367q0 -172 86 -242.5t303 -70.5q220 0 306 70t86 243v367h12v-367q0 -178 -89.5 -251.5t-314.5 -73.5q-219 0 -310 71.5t-91 253.5z" glyph-name="udieresis" unicode="ü"/>
<glyph horiz-adv-x="826" d="M373 756l141 179h18l-145 -179h-14zM15 684h17l277 -272q84 -84 104 -149q20 65 104 149l277 272h17l-286 -281q-106 -104 -106 -179v-224h-12v224q0 73 -106 179z" glyph-name="yacute" unicode="ý"/>
<glyph horiz-adv-x="943" d="M112 684h12v-132h553q100 0 159.5 -57t59.5 -146t-59.5 -146t-159.5 -57h-553v-146h-12v684zM124 158h553q99 0 153 56t54 135t-54 135t-153 56h-553v-382z" glyph-name="thorn" unicode="þ"/>
</font>
</defs>
</svg>
