<?xml version="1.0" encoding="UTF-8" standalone="no"?>
<!DOCTYPE svg  PUBLIC '-//W3C//DTD SVG 1.1//EN'  'http://www.w3.org/Graphics/SVG/1.1/DTD/svg11.dtd'>
<svg xmlns="http://www.w3.org/2000/svg" version="1.1">
<defs>
<font id="Venera300" horiz-adv-x="983">
<font-face bbox="-61 -282 1837 940" descent="-250" panose-1="0 0 0 0 0 0 0 0 0 0" underline-thickness="50" x-height="684" units-per-em="1000" ascent="750" font-weight="300" cap-height="684" unicode-range="U+0020-00FE" font-family="Venera" underline-position="-150"/>
<missing-glyph/>
<glyph horiz-adv-x="331" glyph-name="space" unicode=" "/>
<glyph d="M151 684l-4 -493h-38l-5 493h47zM154 112v-112h-52v112h52z" horiz-adv-x="256" glyph-name="exclam" unicode="!"/>
<glyph d="M134 684v-275h-44v275h44zM334 684v-275h-45v275h45z" horiz-adv-x="424" glyph-name="quotedbl" unicode='&quot;'/>
<glyph d="M104 445v35h155l31 158h35l-30 -158h273l30 158h36l-31 -158h147v-35h-153l-42 -217h149v-35h-156l-30 -161h-36l31 161h-273l-31 -161h-35l30 161h-146v35h153l42 217h-149zM288 445l-42 -217h273l42 217h-273z" horiz-adv-x="809" glyph-name="numbersign" unicode="#"/>
<glyph d="M480 798h38v-114h323v-40h-559q-163 0 -163 -122q0 -63 45.5 -95t146.5 -40l338 -29q124 -11 183.5 -53t59.5 -127q0 -86 -60.5 -132t-181.5 -46h-162v-146h-38v146h-394v40h596q195 0 195 136q0 65 -48 98.5t-156 42.5l-343 29q-225 19 -225 175q0 81 56 122t154 41h195 v114z" horiz-adv-x="937" glyph-name="dollar" unicode="$"/>
<glyph d="M779 332q97 0 147 -45.5t50 -125.5q0 -79 -50 -125t-147 -46q-96 0 -146 46t-50 125q0 80 50 125.5t146 45.5zM779 21q91 0 125.5 42t34.5 98q0 25 -6 47t-22 44.5t-49.5 35.5t-82.5 13q-48 0 -81.5 -13t-49.5 -35.5t-22 -44.5t-6 -47t6 -46.5t22 -44t49.5 -36 t81.5 -13.5zM439 523q0 -80 -50 -125.5t-147 -45.5q-96 0 -146 45.5t-50 125.5t50 125.5t146 45.5q97 0 147 -45.5t50 -125.5zM83 523q0 -25 6 -47t22 -44.5t49.5 -35.5t81.5 -13q49 0 82.5 13t49.5 35.5t22 44.5t6 47t-6 47t-22 44.5t-49.5 35.5t-82.5 13q-48 0 -81.5 -13 t-49.5 -35.5t-22 -44.5t-6 -47zM813 684h48l-652 -684h-48z" horiz-adv-x="1022" glyph-name="percent" unicode="%"/>
<glyph d="M602 0h-307q-107 0 -166 49t-59 131q0 22 6 45t21.5 50t47.5 48t77 29q-134 28 -134 160q0 76 53.5 124t165.5 48h474v-40h-476q-83 0 -127 -36t-44 -101q0 -66 44 -101t127 -35h607v-39h-88v-151q0 -83 -58 -132t-164 -49zM781 332h-488q-90 0 -133.5 -44t-43.5 -103 q0 -60 43 -102.5t134 -42.5h311q45 0 79 11.5t52 27.5t29 37t14 36.5t3 30.5v149z" horiz-adv-x="956" glyph-name="ampersand" unicode="&amp;"/>
<glyph d="M134 684v-275h-44v275h44z" horiz-adv-x="224" glyph-name="quotesingle" unicode="&apos;"/>
<glyph d="M106 332q0 -115 29.5 -229.5t85.5 -207.5h-42q-114 194 -114 437t114 437h42q-56 -93 -85.5 -207.5t-29.5 -229.5z" horiz-adv-x="273" glyph-name="parenleft" unicode="("/>
<glyph d="M166 332q0 245 -114 437h42q114 -194 114 -437t-114 -437h-42q114 192 114 437z" horiz-adv-x="273" glyph-name="parenright" unicode=")"/>
<glyph d="M262 555l-11 158h39l-10 -158h-18zM227 530l-6 -17l-153 38l12 37zM133 350l101 122l15 -11l-84 -134zM292 461l14 10l102 -121l-32 -23zM473 551l-153 -39l-6 17l147 59z" horiz-adv-x="541" glyph-name="asterisk" unicode="*"/>
<glyph d="M671 364v-36h-290v-241h-36v241h-290v36h290v242h36v-242h290z" horiz-adv-x="726" glyph-name="plus" unicode="+"/>
<glyph d="M167 122l-74 -226h-40l63 226h51z" horiz-adv-x="259" glyph-name="comma" unicode=","/>
<glyph d="M479 366v-39h-389v39h389z" horiz-adv-x="569" glyph-name="hyphen" unicode="-"/>
<glyph d="M142 117v-117h-52v117h52z" horiz-adv-x="232" glyph-name="period" unicode="."/>
<glyph d="M76 -105h-41l405 874h42z" horiz-adv-x="517" glyph-name="slash" unicode="/"/>
<glyph d="M512 692q229 0 336 -81.5t107 -268.5t-107 -269t-336 -82t-336.5 82t-107.5 269t107.5 268.5t336.5 81.5zM512 34q209 0 303.5 70.5t94.5 237.5t-94.5 237.5t-303.5 70.5t-303.5 -70.5t-94.5 -237.5t94.5 -237.5t303.5 -70.5z" horiz-adv-x="1023" glyph-name="zero" unicode="0"/>
<glyph d="M332 684v-684h-45v644h-254v40h299z" horiz-adv-x="437" glyph-name="one" unicode="1"/>
<glyph d="M844 41v-41h-780v97q0 36 14 65.5t48 53t63 39.5t87.5 33t90 24.5t100.5 23.5q9 2 13 3q42 10 67 16t61.5 16.5t58 20t46.5 23.5t38.5 29t23 35.5t9.5 43.5q0 54 -42.5 86.5t-120.5 32.5h-548v42h547q98 0 155 -42.5t57 -116.5q0 -39 -17 -70t-44.5 -53t-73.5 -41.5 t-91.5 -32.5t-111.5 -28q-181 -42 -232 -60q-139 -49 -147 -129q-1 -5 -1 -11v-59h730z" horiz-adv-x="907" glyph-name="two" unicode="2"/>
<glyph d="M782 508q0 64 -44 99.5t-127 35.5h-531v41h526q112 0 166 -48t54 -123q0 -64 -35 -105t-99 -55q73 -16 113 -62t40 -112q0 -80 -60.5 -129.5t-165.5 -49.5h-548v41h552q87 0 132.5 42.5t45.5 100.5q0 56 -42 102t-136 46h-532v41h520q82 0 126.5 35t44.5 100z" horiz-adv-x="914" glyph-name="three" unicode="3"/>
<glyph d="M807 233v-233h-45v232h-512q-57 0 -98.5 14t-63.5 37.5t-32 49t-10 53.5q0 30 14 67l85 231h46l-86 -236q-12 -29 -12 -60q0 -19 6 -36t21.5 -36t49.5 -30.5t84 -11.5h508v410h45v-410h120v-41h-120z" horiz-adv-x="970" glyph-name="four" unicode="4"/>
<glyph d="M623 0h-560v42h562q96 0 147.5 39t51.5 109q0 68 -50 105t-146 37h-528l-14 15l27 337h705v-42h-665l-21 -269h495q117 0 180.5 -47t63.5 -136q0 -88 -63.5 -139t-184.5 -51z" horiz-adv-x="925" glyph-name="five" unicode="5"/>
<glyph d="M683 0h-368q-115 0 -169 52.5t-54 130.5v318q0 85 58 134t165 49h527v-41h-529q-56 0 -94 -16t-53.5 -41.5t-21 -45t-5.5 -39.5v-135h544q115 0 169.5 -52.5t54.5 -130.5q0 -83 -58 -133t-166 -50zM685 326h-546v-143q0 -59 41.5 -101t132.5 -42h372q91 0 133.5 42 t42.5 101t-42.5 101t-133.5 42z" horiz-adv-x="959" glyph-name="six" unicode="6"/>
<glyph d="M374 83v-83h-48v83q0 49 23.5 92.5t61.5 76.5t83.5 63.5t91 60t83.5 59.5t61.5 68.5t23.5 80.5v60h-721v40h769v-96q0 -50 -23.5 -93.5t-61.5 -76t-83.5 -62.5t-91 -59.5t-83.5 -60t-61.5 -70t-23.5 -83.5z" horiz-adv-x="844" glyph-name="seven" unicode="7"/>
<glyph d="M90 510q0 76 55 125t168 49h312q113 0 168 -49t55 -125q0 -65 -36 -107t-102 -56q75 -14 116.5 -58t41.5 -111q0 -82 -61 -130t-169 -48h-338q-108 0 -169 48.5t-61 129.5q0 67 41.5 111t116.5 58q-66 14 -102 56t-36 107zM297 40h344q93 0 137.5 42t44.5 101 t-44.5 101.5t-137.5 42.5h-344q-93 0 -137.5 -42.5t-44.5 -101.5t44.5 -101t137.5 -42zM629 645h-320q-83 0 -128.5 -37.5t-45.5 -102.5t46 -102t128 -37h320q82 0 128 37t46 102t-45.5 102.5t-128.5 37.5z" horiz-adv-x="938" glyph-name="eight" unicode="8"/>
<glyph d="M651 0h-564v41h565q90 0 133 41.5t43 100.5v126h-542q-109 0 -167.5 50.5t-58.5 137.5q0 86 58.5 136.5t167.5 50.5h365q109 0 166.5 -49.5t57.5 -133.5v-318q0 -83 -58 -133t-166 -50zM652 644h-368q-46 0 -80.5 -12t-52.5 -28.5t-29 -38.5t-13.5 -37.5t-2.5 -30.5 t2.5 -30.5t13.5 -38t29 -39t52.5 -28.5t80.5 -12h544v152q0 15 -2.5 30t-13.5 36.5t-28.5 37.5t-52 27.5t-79.5 11.5z" horiz-adv-x="967" glyph-name="nine" unicode="9"/>
<glyph d="M141 125v-125h-51v125h51zM141 625v-125h-51v125h51z" horiz-adv-x="231" glyph-name="colon" unicode=":"/>
<glyph d="M189 122l-74 -226h-41l64 226h51zM180 625v-125h-51v125h51z" horiz-adv-x="294" glyph-name="semicolon" unicode=";"/>
<glyph d="M102 347l390 -192v-42l-444 223v21l444 223v-42z" horiz-adv-x="581" glyph-name="less" unicode="&lt;"/>
<glyph d="M706 215v-38h-616v38h616zM706 518v-38h-616v38h616z" horiz-adv-x="796" glyph-name="equal" unicode="="/>
<glyph d="M89 155l390 192l-390 191v42l444 -223v-21l-444 -223v42z" horiz-adv-x="581" glyph-name="greater" unicode="&gt;"/>
<glyph d="M298 243v-55h-43v58q0 78 64 102l189 76q86 34 86 112q0 42 -30.5 74.5t-111.5 32.5h-415v41h412q91 0 140.5 -38.5t49.5 -108.5q0 -104 -112 -149l-184 -73q-45 -18 -45 -72zM300 112v-112h-48v112h48z" horiz-adv-x="686" glyph-name="question" unicode="?"/>
<glyph d="M868 -49v-36h-382q-415 0 -415 330v164q0 163 104.5 246t310.5 83h83q415 0 415 -329v-252h-489q-95 0 -146 29t-51 110v59q0 80 51 109t146 29h64q45 0 77 -5t61.5 -19t44.5 -42.5t15 -71.5v-163h190v219q0 291 -378 291h-83q-378 0 -378 -291v-168q0 -292 378 -292h382 zM561 458h-68q-79 0 -118 -22t-39 -81v-59q0 -60 39 -82t118 -22h226v163q0 33 -12 54.5t-35.5 31.5t-48.5 13.5t-62 3.5z" horiz-adv-x="1049" glyph-name="at" unicode="@"/>
<glyph d="M679 553l263 -553h-48l-105 221h-595l-105 -221h-48l263 553q35 73 79 106t108 33t108.5 -33t79.5 -106zM769 261l-134 281q-25 54 -58.5 82t-85.5 28q-51 0 -84.5 -28t-58.5 -82l-134 -281h555z" glyph-name="A" unicode="A"/>
<glyph d="M926 512q0 -63 -34 -104t-94 -55q75 -16 111 -64t36 -108q0 -75 -55 -128t-168 -53h-617v684h605q111 0 163.5 -48t52.5 -124zM727 333h-579v-292h579q91 0 132.5 42.5t41.5 100.5q0 60 -42.5 104.5t-131.5 44.5zM148 372h567q81 0 124.5 35t43.5 101q0 64 -42.5 99.5 t-125.5 35.5h-567v-271z" horiz-adv-x="1012" glyph-name="B" unicode="B"/>
<glyph d="M922 684v-44h-535q-145 0 -208.5 -71.5t-63.5 -225.5q0 -155 63.5 -227t208.5 -72h535v-44h-535q-164 0 -241 83.5t-77 259.5q0 174 76.5 257.5t241.5 83.5h535z" horiz-adv-x="964" glyph-name="C" unicode="C"/>
<glyph d="M105 0v684h551q166 0 242 -84t76 -258q0 -176 -77 -259t-241 -83h-551zM929 342q0 152 -64 225t-209 73h-506v-596h506q145 0 209 73t64 225z" horiz-adv-x="1043" glyph-name="D" unicode="D"/>
<glyph d="M921 641h-534q-140 0 -205.5 -68t-67.5 -211h789v-41h-789q3 -142 68 -210t205 -68h534v-43h-534q-166 0 -242 84t-76 259q0 174 76.5 257.5t241.5 83.5h534v-43z" glyph-name="E" unicode="E"/>
<glyph d="M911 640h-455q-176 0 -245 -59t-69 -208v-48h740v-41h-740v-284h-45v373q0 170 81.5 240.5t277.5 70.5h455v-44z" horiz-adv-x="952" glyph-name="F" unicode="F"/>
<glyph d="M881 326h45v-326h-539q-166 0 -242 84t-76 259q0 174 76.5 257.5t241.5 83.5h532v-44h-532q-145 0 -208.5 -71.5t-63.5 -225.5q0 -155 63.5 -227t208.5 -72h494v282z" horiz-adv-x="1002" glyph-name="G" unicode="G"/>
<glyph d="M907 0h-45v322h-712v-322h-45v684h45v-321h712v321h45v-684z" horiz-adv-x="1012" glyph-name="H" unicode="H"/>
<glyph d="M105 684h44v-684h-44v684z" horiz-adv-x="254" glyph-name="I" unicode="I"/>
<glyph d="M14 0v44h334q143 0 207 51.5t64 167.5v421h45v-421q0 -137 -76.5 -200t-239.5 -63h-334z" horiz-adv-x="763" glyph-name="J" unicode="J"/>
<glyph d="M897 0h-60l-165 204q-97 121 -195 121h-328v-325h-44v684h44v-318h323q58 0 110.5 35t85.5 80l150 203h58l-170 -223q-65 -86 -159 -114q84 -25 164 -121z" horiz-adv-x="914" glyph-name="K" unicode="K"/>
<glyph d="M99 684h44v-421q0 -116 64 -167.5t207 -51.5h440v-44h-440q-163 0 -239 63t-76 200v421z" horiz-adv-x="868" glyph-name="L" unicode="L"/>
<glyph d="M569 159l-421 476v-635h-43v684h40q18 0 34 -18l406 -461l407 461q16 18 34 18h40v-684h-43v635l-421 -476h-33z" horiz-adv-x="1171" glyph-name="M" unicode="M"/>
<glyph d="M150 639v-639h-45v684h50q30 0 52.5 -2t47 -12t41 -18t42.5 -32t42.5 -41.5t50.5 -60t57 -73t71 -93.5q143 -188 184 -232q59 -62 119 -72q21 -4 49 -4h15v640h45v-684h-49q-39 0 -66.5 4t-59 22t-52.5 34.5t-61 62.5t-69 83t-91 119q-148 196 -193 241q-58 60 -117 70 q-20 3 -48 3h-15z" horiz-adv-x="1076" glyph-name="N" unicode="N"/>
<glyph d="M531 692q91 0 159 -8.5t128 -32t97 -62.5t58.5 -100.5t21.5 -146.5q0 -106 -31 -176t-94.5 -108t-143.5 -52.5t-195 -14.5t-195 14.5t-143.5 52.5t-94.5 108t-31 176q0 85 21.5 146.5t58.5 100.5t97 62.5t128 32t159 8.5zM531 34q84 0 145 7t115.5 27t87.5 54t52 89 t19 131t-19 131t-52 89t-87.5 54t-115.5 27t-145 7t-145 -7t-115.5 -27t-87.5 -54t-52 -89t-19 -131t19 -131t52 -89t87.5 -54t115.5 -27t145 -7z" horiz-adv-x="1062" glyph-name="O" unicode="O"/>
<glyph d="M105 684h572q108 0 170 -59.5t62 -150.5t-62 -150.5t-170 -59.5h-527v-264h-45v684zM150 305h529q89 0 136.5 50t47.5 119q0 70 -47.5 119.5t-136.5 49.5h-529v-338z" horiz-adv-x="952" glyph-name="P" unicode="P"/>
<glyph d="M844 -162h-59l-60 73q-40 49 -78.5 64.5t-115.5 15.5q-115 0 -195 14.5t-143.5 52.5t-94.5 108t-31 176q0 85 21.5 146.5t58.5 100.5t97 62.5t128 32t159 8.5t159 -8.5t128 -32t97 -62.5t58.5 -100.5t21.5 -146.5q0 -171 -82.5 -247.5t-246.5 -94.5q48 -15 104 -77z M531 34q84 0 145 7t115.5 27t87.5 54t52 89t19 131t-19 131t-52 89t-87.5 54t-115.5 27t-145 7t-145 -7t-115.5 -27t-87.5 -54t-52 -89t-19 -131t19 -131t52 -89t87.5 -54t115.5 -27t145 -7z" horiz-adv-x="1062" glyph-name="Q" unicode="Q"/>
<glyph d="M105 0v684h582q116 0 173.5 -57t57.5 -144q0 -75 -42.5 -125t-116.5 -64q68 -16 104 -61.5t36 -109.5v-123h-46v124q0 68 -46.5 109t-127.5 41h-530v-274h-44zM149 314h540q94 0 139 48.5t45 116.5t-44 116t-140 48h-540v-329z" horiz-adv-x="989" glyph-name="R" unicode="R"/>
<glyph d="M51 41h596q194 0 194 136q0 64 -48 97.5t-155 42.5l-342 29q-225 19 -225 174q0 82 56 123t154 41h555v-41h-558q-162 0 -162 -122q0 -61 45.5 -93.5t144.5 -40.5l338 -28q124 -11 183.5 -54t59.5 -127q0 -86 -60.5 -132t-181.5 -46h-594v41z" horiz-adv-x="936" glyph-name="S" unicode="S"/>
<glyph d="M436 0h-45v643h-379v41h803v-41h-379v-643z" horiz-adv-x="827" glyph-name="T" unicode="T"/>
<glyph d="M96 320v364h44v-364q0 -160 78.5 -222.5t283.5 -62.5q207 0 285.5 62.5t78.5 222.5v364h45v-364q0 -180 -91 -254.5t-318 -74.5q-221 0 -313.5 73t-92.5 256z" horiz-adv-x="1008" glyph-name="U" unicode="U"/>
<glyph d="M884 684h49l-279 -581q-27 -57 -66.5 -84.5t-101.5 -27.5t-101 27t-67 85l-279 581h49l274 -568q20 -43 49.5 -62.5t74.5 -19.5t74 19.5t50 62.5z" horiz-adv-x="972" glyph-name="V" unicode="V"/>
<glyph d="M1330 684h49l-250 -568q-30 -68 -71 -96.5t-101 -28.5q-61 0 -102.5 27t-71.5 87l-73 150l-73 -150q-30 -60 -71.5 -87t-102.5 -27q-60 0 -101 28.5t-71 96.5l-250 568h49l241 -551q25 -58 55.5 -79t75.5 -21q50 0 81 21t55 70l88 180l-184 380h46l162 -334l162 334h46 l-184 -380l88 -180q24 -49 55 -70t81 -21q45 0 75.5 21t55.5 79z" horiz-adv-x="1420" glyph-name="W" unicode="W"/>
<glyph d="M806 0h-60l-312 305q-15 15 -21 23l-21 -23l-312 -305h-61l361 352l-349 332h61l299 -284q11 -10 23 -25q7 13 20 25l298 284h62l-348 -332z" horiz-adv-x="825" glyph-name="X" unicode="X"/>
<glyph d="M13 684h65l260 -267q75 -77 95 -134q21 58 95 134l261 267h64l-299 -303q-98 -101 -98 -164v-217h-45v217q0 62 -99 164z" horiz-adv-x="867" glyph-name="Y" unicode="Y"/>
<glyph d="M432 358q58 21 92 34t81.5 33.5t75 38.5t55 42t39.5 51.5t12 58.5v27h-733v41h781v-60q0 -35 -12 -66.5t-29 -55t-50 -47.5t-58.5 -39t-72.5 -35t-74 -30t-80 -29q-52 -18 -77 -27.5t-69.5 -27.5t-67.5 -31t-54 -33t-46 -39t-26.5 -44t-11.5 -52v-27h742v-41h-790v60 q0 30 7.5 57t24.5 50t35 42t48.5 37t54.5 31t64.5 29.5t66.5 26t72 25.5z" horiz-adv-x="899" glyph-name="Z" unicode="Z"/>
<glyph d="M101 -105v874h276v-36h-236v-802h236v-36h-276z" horiz-adv-x="429" glyph-name="bracketleft" unicode="["/>
<glyph d="M482 -105h-42l-405 874h42z" horiz-adv-x="517" glyph-name="backslash" unicode="\"/>
<glyph d="M52 769h276v-874h-276v36h236v802h-236v36z" horiz-adv-x="429" glyph-name="bracketright" unicode="]"/>
<glyph d="M324 673l-207 -294h-45l242 346h19l243 -346h-45z" horiz-adv-x="654" glyph-name="asciicircum" unicode="^"/>
<glyph d="M799 -84v-37h-713v37h713z" horiz-adv-x="883" glyph-name="underscore" unicode="_"/>
<glyph d="M208 934l138 -181h-42l-150 181h54z" horiz-adv-x="500" glyph-name="grave" unicode="`"/>
<glyph d="M679 553l263 -553h-48l-105 221h-595l-105 -221h-48l263 553q35 73 79 106t108 33t108.5 -33t79.5 -106zM769 261l-134 281q-25 54 -58.5 82t-85.5 28q-51 0 -84.5 -28t-58.5 -82l-134 -281h555z" glyph-name="a" unicode="a"/>
<glyph d="M926 512q0 -63 -34 -104t-94 -55q75 -16 111 -64t36 -108q0 -75 -55 -128t-168 -53h-617v684h605q111 0 163.5 -48t52.5 -124zM727 333h-579v-292h579q91 0 132.5 42.5t41.5 100.5q0 60 -42.5 104.5t-131.5 44.5zM148 372h567q81 0 124.5 35t43.5 101q0 64 -42.5 99.5 t-125.5 35.5h-567v-271z" horiz-adv-x="1012" glyph-name="b" unicode="b"/>
<glyph d="M922 684v-44h-535q-145 0 -208.5 -71.5t-63.5 -225.5q0 -155 63.5 -227t208.5 -72h535v-44h-535q-164 0 -241 83.5t-77 259.5q0 174 76.5 257.5t241.5 83.5h535z" horiz-adv-x="964" glyph-name="c" unicode="c"/>
<glyph d="M105 0v684h551q166 0 242 -84t76 -258q0 -176 -77 -259t-241 -83h-551zM929 342q0 152 -64 225t-209 73h-506v-596h506q145 0 209 73t64 225z" horiz-adv-x="1043" glyph-name="d" unicode="d"/>
<glyph d="M921 641h-534q-140 0 -205.5 -68t-67.5 -211h789v-41h-789q3 -142 68 -210t205 -68h534v-43h-534q-166 0 -242 84t-76 259q0 174 76.5 257.5t241.5 83.5h534v-43z" glyph-name="e" unicode="e"/>
<glyph d="M911 640h-455q-176 0 -245 -59t-69 -208v-48h740v-41h-740v-284h-45v373q0 170 81.5 240.5t277.5 70.5h455v-44z" horiz-adv-x="952" glyph-name="f" unicode="f"/>
<glyph d="M881 326h45v-326h-539q-166 0 -242 84t-76 259q0 174 76.5 257.5t241.5 83.5h532v-44h-532q-145 0 -208.5 -71.5t-63.5 -225.5q0 -155 63.5 -227t208.5 -72h494v282z" horiz-adv-x="1002" glyph-name="g" unicode="g"/>
<glyph d="M907 0h-45v322h-712v-322h-45v684h45v-321h712v321h45v-684z" horiz-adv-x="1012" glyph-name="h" unicode="h"/>
<glyph d="M105 684h44v-684h-44v684z" horiz-adv-x="254" glyph-name="i" unicode="i"/>
<glyph d="M14 0v44h334q143 0 207 51.5t64 167.5v421h45v-421q0 -137 -76.5 -200t-239.5 -63h-334z" horiz-adv-x="763" glyph-name="j" unicode="j"/>
<glyph d="M897 0h-60l-165 204q-97 121 -195 121h-328v-325h-44v684h44v-318h323q58 0 110.5 35t85.5 80l150 203h58l-170 -223q-65 -86 -159 -114q84 -25 164 -121z" horiz-adv-x="914" glyph-name="k" unicode="k"/>
<glyph d="M99 684h44v-421q0 -116 64 -167.5t207 -51.5h440v-44h-440q-163 0 -239 63t-76 200v421z" horiz-adv-x="868" glyph-name="l" unicode="l"/>
<glyph d="M569 159l-421 476v-635h-43v684h40q18 0 34 -18l406 -461l407 461q16 18 34 18h40v-684h-43v635l-421 -476h-33z" horiz-adv-x="1171" glyph-name="m" unicode="m"/>
<glyph d="M150 639v-639h-45v684h50q30 0 52.5 -2t47 -12t41 -18t42.5 -32t42.5 -41.5t50.5 -60t57 -73t71 -93.5q143 -188 184 -232q59 -62 119 -72q21 -4 49 -4h15v640h45v-684h-49q-39 0 -66.5 4t-59 22t-52.5 34.5t-61 62.5t-69 83t-91 119q-148 196 -193 241q-58 60 -117 70 q-20 3 -48 3h-15z" horiz-adv-x="1076" glyph-name="n" unicode="n"/>
<glyph d="M531 692q91 0 159 -8.5t128 -32t97 -62.5t58.5 -100.5t21.5 -146.5q0 -106 -31 -176t-94.5 -108t-143.5 -52.5t-195 -14.5t-195 14.5t-143.5 52.5t-94.5 108t-31 176q0 85 21.5 146.5t58.5 100.5t97 62.5t128 32t159 8.5zM531 34q84 0 145 7t115.5 27t87.5 54t52 89 t19 131t-19 131t-52 89t-87.5 54t-115.5 27t-145 7t-145 -7t-115.5 -27t-87.5 -54t-52 -89t-19 -131t19 -131t52 -89t87.5 -54t115.5 -27t145 -7z" horiz-adv-x="1062" glyph-name="o" unicode="o"/>
<glyph d="M105 684h572q108 0 170 -59.5t62 -150.5t-62 -150.5t-170 -59.5h-527v-264h-45v684zM150 305h529q89 0 136.5 50t47.5 119q0 70 -47.5 119.5t-136.5 49.5h-529v-338z" horiz-adv-x="952" glyph-name="p" unicode="p"/>
<glyph d="M844 -162h-59l-60 73q-40 49 -78.5 64.5t-115.5 15.5q-115 0 -195 14.5t-143.5 52.5t-94.5 108t-31 176q0 85 21.5 146.5t58.5 100.5t97 62.5t128 32t159 8.5t159 -8.5t128 -32t97 -62.5t58.5 -100.5t21.5 -146.5q0 -171 -82.5 -247.5t-246.5 -94.5q48 -15 104 -77z M531 34q84 0 145 7t115.5 27t87.5 54t52 89t19 131t-19 131t-52 89t-87.5 54t-115.5 27t-145 7t-145 -7t-115.5 -27t-87.5 -54t-52 -89t-19 -131t19 -131t52 -89t87.5 -54t115.5 -27t145 -7z" horiz-adv-x="1062" glyph-name="q" unicode="q"/>
<glyph d="M105 0v684h582q116 0 173.5 -57t57.5 -144q0 -75 -42.5 -125t-116.5 -64q68 -16 104 -61.5t36 -109.5v-123h-46v124q0 68 -46.5 109t-127.5 41h-530v-274h-44zM149 314h540q94 0 139 48.5t45 116.5t-44 116t-140 48h-540v-329z" horiz-adv-x="989" glyph-name="r" unicode="r"/>
<glyph d="M51 41h596q194 0 194 136q0 64 -48 97.5t-155 42.5l-342 29q-225 19 -225 174q0 82 56 123t154 41h555v-41h-558q-162 0 -162 -122q0 -61 45.5 -93.5t144.5 -40.5l338 -28q124 -11 183.5 -54t59.5 -127q0 -86 -60.5 -132t-181.5 -46h-594v41z" horiz-adv-x="936" glyph-name="s" unicode="s"/>
<glyph d="M436 0h-45v643h-379v41h803v-41h-379v-643z" horiz-adv-x="827" glyph-name="t" unicode="t"/>
<glyph d="M96 320v364h44v-364q0 -160 78.5 -222.5t283.5 -62.5q207 0 285.5 62.5t78.5 222.5v364h45v-364q0 -180 -91 -254.5t-318 -74.5q-221 0 -313.5 73t-92.5 256z" horiz-adv-x="1008" glyph-name="u" unicode="u"/>
<glyph d="M884 684h49l-279 -581q-27 -57 -66.5 -84.5t-101.5 -27.5t-101 27t-67 85l-279 581h49l274 -568q20 -43 49.5 -62.5t74.5 -19.5t74 19.5t50 62.5z" horiz-adv-x="972" glyph-name="v" unicode="v"/>
<glyph d="M1330 684h49l-250 -568q-30 -68 -71 -96.5t-101 -28.5q-61 0 -102.5 27t-71.5 87l-73 150l-73 -150q-30 -60 -71.5 -87t-102.5 -27q-60 0 -101 28.5t-71 96.5l-250 568h49l241 -551q25 -58 55.5 -79t75.5 -21q50 0 81 21t55 70l88 180l-184 380h46l162 -334l162 334h46 l-184 -380l88 -180q24 -49 55 -70t81 -21q45 0 75.5 21t55.5 79z" horiz-adv-x="1420" glyph-name="w" unicode="w"/>
<glyph d="M806 0h-60l-312 305q-15 15 -21 23l-21 -23l-312 -305h-61l361 352l-349 332h61l299 -284q11 -10 23 -25q7 13 20 25l298 284h62l-348 -332z" horiz-adv-x="825" glyph-name="x" unicode="x"/>
<glyph d="M13 684h65l260 -267q75 -77 95 -134q21 58 95 134l261 267h64l-299 -303q-98 -101 -98 -164v-217h-45v217q0 62 -99 164z" horiz-adv-x="867" glyph-name="y" unicode="y"/>
<glyph d="M432 358q58 21 92 34t81.5 33.5t75 38.5t55 42t39.5 51.5t12 58.5v27h-733v41h781v-60q0 -35 -12 -66.5t-29 -55t-50 -47.5t-58.5 -39t-72.5 -35t-74 -30t-80 -29q-52 -18 -77 -27.5t-69.5 -27.5t-67.5 -31t-54 -33t-46 -39t-26.5 -44t-11.5 -52v-27h742v-41h-790v60 q0 30 7.5 57t24.5 50t35 42t48.5 37t54.5 31t64.5 29.5t66.5 26t72 25.5z" horiz-adv-x="899" glyph-name="z" unicode="z"/>
<glyph d="M150 501v184q0 38 23.5 61t61.5 23h123v-37h-114q-24 0 -39 -14.5t-15 -38.5v-184q0 -113 -101 -163q47 -23 74 -65.5t27 -97.5v-185q0 -24 15 -38t39 -14h114v-37h-123q-38 0 -61.5 23t-23.5 60v185q0 57 -31 97t-85 56v32q54 16 85 56t31 97z" horiz-adv-x="409" glyph-name="braceleft" unicode="{"/>
<glyph d="M101 769h40v-874h-40v874z" horiz-adv-x="242" glyph-name="bar" unicode="|"/>
<glyph d="M260 685v-184q0 -57 31 -97t85 -56v-32q-54 -16 -85 -56t-31 -97v-185q0 -37 -24 -60t-61 -23h-124v37h114q25 0 40 14t15 38v185q0 56 26.5 98t73.5 65q-100 48 -100 163v184q0 24 -15 38.5t-40 14.5h-114v37h124q37 0 61 -23t24 -61z" horiz-adv-x="410" glyph-name="braceright" unicode="}"/>
<glyph d="M561 254q-36 0 -70.5 14.5t-62 35t-54.5 41.5t-59 35.5t-64 14.5t-57 -14.5t-39 -37t-21.5 -41.5t-10.5 -38h-38q5 28 15.5 55t29 55t50 45t71.5 17q43 0 86 -22t73 -48.5t71 -48.5t80 -22q35 0 61.5 16t39.5 40.5t18.5 42t7.5 31.5h39q-4 -24 -12.5 -48.5t-26.5 -54.5 t-51 -49t-76 -19z" horiz-adv-x="812" glyph-name="asciitilde" unicode="~"/>
<glyph d="M147 493l4 -493h-47l5 493h38zM154 684v-112h-52v112h52z" horiz-adv-x="256" glyph-name="exclamdown" unicode="¡"/>
<glyph d="M480 70v-159h-38v159h-139q-135 0 -194 63t-59 200q0 139 60 201.5t193 62.5h139v137h38v-137h198v-41h-375q-115 0 -163 -52.5t-48 -170.5q0 -119 47.5 -170.5t163.5 -51.5h375v-41h-198z" horiz-adv-x="747" glyph-name="cent" unicode="¢"/>
<glyph d="M855 40v-40h-802v32l170 8v249h-149v39h149v82q0 145 73 209.5t240 64.5h266v-41h-266q-147 0 -208.5 -53.5t-61.5 -179.5v-82h361v-39h-361v-249h589z" horiz-adv-x="899" glyph-name="sterling" unicode="£"/>
<glyph d="M208 150l-112 -113l-27 27l111 114q-54 63 -54 163t54 163l-111 114l27 28l112 -114q79 67 226 67q145 0 224 -67l113 114l28 -28l-113 -114q55 -64 55 -163t-54 -163l112 -114l-28 -27l-112 113q-81 -68 -225 -68q-147 0 -226 68zM434 562q-127 0 -196.5 -57t-69.5 -164 t69.5 -164.5t196.5 -57.5q126 0 195.5 57.5t69.5 164.5t-69.5 164t-195.5 57z" horiz-adv-x="868" glyph-name="currency" unicode="¤"/>
<glyph d="M741 173v-34h-289v-139h-42v139h-289v34h289v49q0 53 -59 124h-230v34h201l-30 33q-128 133 -256 271h61l243 -263q74 -78 91 -133q18 55 92 133l243 263h61q-128 -138 -256 -271l-31 -33h201v-34h-230q-59 -71 -59 -124v-49h289z" horiz-adv-x="863" glyph-name="yen" unicode="¥"/>
<glyph d="M103 769h40v-365h-40v365zM103 288h40v-393h-40v393z" horiz-adv-x="246" glyph-name="brokenbar" unicode="¦"/>
<glyph d="M247 684h492v-36h-495q-53 0 -82 -23.5t-29 -65.5q0 -80 115 -87l350 -24q163 -12 163 -126q0 -70 -62 -111q35 -30 35 -85q0 -61 -40.5 -93.5t-112.5 -32.5h-504v37h507q54 0 82.5 23t28.5 65q0 80 -115 87l-350 23q-163 11 -163 127q0 67 62 110q-35 30 -35 86 q0 61 40.5 93.5t112.5 32.5zM107 368q0 -86 125 -95l353 -24q52 -3 85 -21q51 33 51 88q0 87 -125 96l-353 23q-53 3 -84 20q-52 -32 -52 -87z" horiz-adv-x="824" glyph-name="section" unicode="§"/>
<glyph d="M203 893v-127h-45v127h45zM457 893v-127h-46v127h46z" horiz-adv-x="613" glyph-name="dieresis" unicode="¨"/>
<glyph d="M735 194v-29h-264q-89 0 -128.5 42t-39.5 135q0 92 39.5 134.5t128.5 42.5h264v-29h-264q-74 0 -106 -34.5t-32 -113.5t32 -113.5t106 -34.5h264zM548 719q249 0 365.5 -91t116.5 -286q0 -196 -116.5 -286.5t-365.5 -90.5t-365.5 90.5t-116.5 286.5q0 195 116.5 286 t365.5 91zM548 -6q234 0 342 81.5t108 266.5t-108 266.5t-342 81.5t-342 -81.5t-108 -266.5t108 -266.5t342 -81.5z" horiz-adv-x="1096" glyph-name="copyright" unicode="©"/>
<glyph d="M118 347l314 -166v-47l-388 213l388 212v-47zM449 347l313 -166v-47l-387 213l387 212v-47z" horiz-adv-x="854" glyph-name="guillemotleft" unicode="«"/>
<glyph d="M479 366v-39h-389v39h389z" horiz-adv-x="569" glyph-name="uni00AD" unicode="­"/>
<glyph d="M548 719q249 0 365.5 -91t116.5 -286q0 -196 -116.5 -286.5t-365.5 -90.5t-365.5 90.5t-116.5 286.5q0 195 116.5 286t365.5 91zM548 -6q234 0 342 81.5t108 266.5t-108 266.5t-342 81.5t-342 -81.5t-108 -266.5t108 -266.5t342 -81.5zM349 519h296q56 0 89 -28.5 t33 -76.5q0 -75 -75 -96q65 -20 65 -86v-63h-30v63q0 33 -22.5 52.5t-64.5 19.5h-261v-135h-30v350zM379 332h266q48 0 70 24t22 56t-22 56t-70 24h-266v-160z" horiz-adv-x="1096" glyph-name="registered" unicode="®"/>
<glyph d="M237 375q-70 0 -118.5 49t-48.5 118q0 70 48.5 118.5t118.5 48.5q69 0 118 -48.5t49 -118.5q0 -69 -49 -118t-118 -49zM237 678q-56 0 -96 -40t-40 -96t40 -95.5t96 -39.5t95.5 39.5t39.5 95.5t-39.5 96t-95.5 40z" horiz-adv-x="474" glyph-name="degree" unicode="°"/>
<glyph d="M695 388v-36h-290v-219h-36v219h-290v36h290v219h36v-219h290zM695 36v-36h-616v36h616z" horiz-adv-x="774" glyph-name="plusminus" unicode="±"/>
<glyph d="M159 753l138 181h54l-150 -181h-42z" horiz-adv-x="545" glyph-name="acute" unicode="´"/>
<glyph d="M748 684v-684h-43v645h-135v-645h-43v257h-223q-123 0 -190 58t-67 156q0 97 67.5 155t189.5 58h444zM527 296v349h-225q-99 0 -154.5 -47.5t-55.5 -127.5q0 -79 55 -126.5t155 -47.5h225z" horiz-adv-x="853" glyph-name="paragraph" unicode="¶"/>
<glyph d="M142 420v-117h-52v117h52z" horiz-adv-x="232" glyph-name="periodcentered" unicode="·"/>
<glyph d="M81 -246h131q107 0 107 74q0 73 -103 73h-92l35 114h44l-27 -79h48q65 0 100.5 -29.5t35.5 -79.5q0 -54 -40.5 -81.5t-108.5 -27.5h-138z" horiz-adv-x="444" glyph-name="cedilla" unicode="¸"/>
<glyph d="M421 181l314 166l-314 165v47l388 -212l-388 -213v47zM91 181l313 166l-313 165v47l387 -212l-387 -213v47z" horiz-adv-x="853" glyph-name="guillemotright" unicode="»"/>
<glyph d="M387 440v56h43v-58q0 -77 -64 -103l-189 -75q-87 -35 -87 -112q0 -42 31 -75t112 -33h415v-40h-413q-90 0 -139.5 38t-49.5 108q0 106 112 149l184 74q45 17 45 71zM384 572v112h49v-112h-49z" horiz-adv-x="686" glyph-name="questiondown" unicode="¿"/>
<glyph d="M679 553l263 -553h-48l-105 221h-595l-105 -221h-48l263 553q35 73 79 106t108 33t108.5 -33t79.5 -106zM769 261l-134 281q-25 54 -58.5 82t-85.5 28q-51 0 -84.5 -28t-58.5 -82l-134 -281h555zM404 934l138 -181h-42l-150 181h54z" glyph-name="Agrave" unicode="À"/>
<glyph d="M679 553l263 -553h-48l-105 221h-595l-105 -221h-48l263 553q35 73 79 106t108 33t108.5 -33t79.5 -106zM769 261l-134 281q-25 54 -58.5 82t-85.5 28q-51 0 -84.5 -28t-58.5 -82l-134 -281h555zM428 753l137 181h54l-149 -181h-42z" glyph-name="Aacute" unicode="Á"/>
<glyph d="M679 553l263 -553h-48l-105 221h-595l-105 -221h-48l263 553q35 73 79 106t108 33t108.5 -33t79.5 -106zM769 261l-134 281q-25 54 -58.5 82t-85.5 28q-51 0 -84.5 -28t-58.5 -82l-134 -281h555zM303 753l162 173h53l162 -173h-45l-144 143l-143 -143h-45z" glyph-name="Acircumflex" unicode="Â"/>
<glyph d="M679 553l263 -553h-48l-105 221h-595l-105 -221h-48l263 553q35 73 79 106t108 33t108.5 -33t79.5 -106zM769 261l-134 281q-25 54 -58.5 82t-85.5 28q-51 0 -84.5 -28t-58.5 -82l-134 -281h555zM606 786q69 0 89 107h31q-2 -18 -7.5 -37.5t-18 -46t-37 -43.5t-57.5 -17 t-65.5 17t-53.5 37.5t-49.5 37.5t-54.5 17q-30 0 -51 -22.5t-27.5 -42.5t-9.5 -41h-33q2 18 7.5 37.5t18 45.5t37.5 43t58 17t65.5 -17t53.5 -37.5t49.5 -37.5t54.5 -17z" glyph-name="Atilde" unicode="Ã"/>
<glyph d="M679 553l263 -553h-48l-105 221h-595l-105 -221h-48l263 553q35 73 79 106t108 33t108.5 -33t79.5 -106zM769 261l-134 281q-25 54 -58.5 82t-85.5 28q-51 0 -84.5 -28t-58.5 -82l-134 -281h555zM388 893v-127h-46v127h46zM641 893v-127h-46v127h46z" glyph-name="Adieresis" unicode="Ä"/>
<glyph d="M679 553l263 -553h-48l-105 221h-595l-105 -221h-48l263 553q51 106 128 128q-36 14 -58 46.5t-22 73.5q0 58 40.5 98.5t98.5 40.5t99 -40.5t41 -98.5q0 -40 -22.5 -72.5t-58.5 -47.5q77 -22 129 -128zM769 261l-134 281q-25 54 -58.5 82t-85.5 28q-51 0 -84.5 -28 t-58.5 -82l-134 -281h555zM491 693q44 0 76 31.5t32 76.5q0 44 -32 75.5t-76 31.5t-75.5 -31.5t-31.5 -75.5q0 -45 31.5 -76.5t75.5 -31.5z" glyph-name="Aring" unicode="Å"/>
<glyph d="M71 0h-49l322 556q40 68 85 98t107 30h853v-41h-743q43 -22 70 -99l64 -182h584v-39h-570l99 -282h496v-41h-530l-75 213h-590zM385 540l-168 -288h554l-98 279q-18 53 -50 83.5t-90 30.5q-50 0 -83 -25t-65 -80z" horiz-adv-x="1449" glyph-name="AE" unicode="Æ"/>
<glyph d="M922 684v-44h-518q-157 0 -223 -69.5t-66 -228.5t66 -228.5t223 -69.5h518v-44h-535q-164 0 -241 83.5t-77 259.5q0 174 76.5 257.5t241.5 83.5h535zM451 -246h131q107 0 107 74q0 73 -103 73h-92l35 114h44l-27 -79h48q65 0 100.5 -29.5t35.5 -79.5q0 -54 -40.5 -81.5 t-108.5 -27.5h-138z" horiz-adv-x="964" glyph-name="Ccedilla" unicode="Ç"/>
<glyph d="M464 934l138 -181h-42l-150 181h54zM920 641h-534q-140 0 -205.5 -68t-67.5 -211h789v-41h-789q3 -142 68 -210t205 -68h534v-43h-534q-166 0 -242 84t-76 259q0 174 76.5 257.5t241.5 83.5h534v-43z" horiz-adv-x="982" glyph-name="Egrave" unicode="È"/>
<glyph d="M491 753l138 181h54l-150 -181h-42zM920 641h-534q-140 0 -205.5 -68t-67.5 -211h789v-41h-789q3 -142 68 -210t205 -68h534v-43h-534q-166 0 -242 84t-76 259q0 174 76.5 257.5t241.5 83.5h534v-43z" horiz-adv-x="982" glyph-name="Eacute" unicode="É"/>
<glyph d="M920 641h-534q-140 0 -205.5 -68t-67.5 -211h789v-41h-789q3 -142 68 -210t205 -68h534v-43h-534q-166 0 -242 84t-76 259q0 174 76.5 257.5t241.5 83.5h534v-43zM362 753l162 173h53l162 -173h-45l-144 143l-143 -143h-45z" horiz-adv-x="982" glyph-name="Ecircumflex" unicode="Ê"/>
<glyph d="M446 893v-127h-46v127h46zM699 893v-127h-46v127h46zM920 641h-534q-140 0 -205.5 -68t-67.5 -211h789v-41h-789q3 -142 68 -210t205 -68h534v-43h-534q-166 0 -242 84t-76 259q0 174 76.5 257.5t241.5 83.5h534v-43z" horiz-adv-x="982" glyph-name="Edieresis" unicode="Ë"/>
<glyph d="M105 684h44v-684h-44v684zM45 934l138 -181h-42l-150 181h54z" horiz-adv-x="254" glyph-name="Igrave" unicode="Ì"/>
<glyph d="M105 684h44v-684h-44v684zM70 753l138 181h54l-150 -181h-42z" horiz-adv-x="254" glyph-name="Iacute" unicode="Í"/>
<glyph d="M105 684h44v-684h-44v684zM-61 753l162 173h53l162 -173h-45l-144 143l-143 -143h-45z" horiz-adv-x="254" glyph-name="Icircumflex" unicode="Î"/>
<glyph d="M105 684h44v-684h-44v684zM23 893v-127h-46v127h46zM276 893v-127h-45v127h45z" horiz-adv-x="254" glyph-name="Idieresis" unicode="Ï"/>
<glyph d="M120 0v327h-119v39h119v318h551q166 0 242.5 -84t76.5 -258q0 -176 -77 -259t-242 -83h-551zM944 342q0 152 -64 225t-209 73h-506v-274h441v-39h-441v-283h506q146 0 209.5 72.5t63.5 225.5z" horiz-adv-x="1059" glyph-name="Eth" unicode="Ð"/>
<glyph d="M150 639v-639h-45v684h50q30 0 52.5 -2t47 -12t41 -18t42.5 -32t42.5 -41.5t50.5 -60t57 -73t71 -93.5q143 -188 184 -232q59 -62 119 -72q21 -4 49 -4h15v640h45v-684h-49q-39 0 -66.5 4t-59 22t-52.5 34.5t-61 62.5t-69 83t-91 119q-148 196 -193 241q-58 60 -117 70 q-20 3 -48 3h-15zM668 786q69 0 89 107h31q-2 -18 -7.5 -37.5t-18 -46t-37 -43.5t-57.5 -17t-65.5 17t-53.5 37.5t-49.5 37.5t-54.5 17q-30 0 -51 -22.5t-27.5 -42.5t-9.5 -41h-33q2 18 7.5 37.5t18 45.5t37.5 43t58 17t65.5 -17t53.5 -37.5t49.5 -37.5t54.5 -17z" horiz-adv-x="1076" glyph-name="Ntilde" unicode="Ñ"/>
<glyph d="M531 692q91 0 159 -8.5t128 -32t97 -62.5t58.5 -100.5t21.5 -146.5q0 -106 -31 -176t-94.5 -108t-143.5 -52.5t-195 -14.5t-195 14.5t-143.5 52.5t-94.5 108t-31 176q0 85 21.5 146.5t58.5 100.5t97 62.5t128 32t159 8.5zM531 34q84 0 145 7t115.5 27t87.5 54t52 89 t19 131t-19 131t-52 89t-87.5 54t-115.5 27t-145 7t-145 -7t-115.5 -27t-87.5 -54t-52 -89t-19 -131t19 -131t52 -89t87.5 -54t115.5 -27t145 -7zM444 934l138 -181h-42l-150 181h54z" horiz-adv-x="1062" glyph-name="Ograve" unicode="Ò"/>
<glyph d="M531 692q91 0 159 -8.5t128 -32t97 -62.5t58.5 -100.5t21.5 -146.5q0 -106 -31 -176t-94.5 -108t-143.5 -52.5t-195 -14.5t-195 14.5t-143.5 52.5t-94.5 108t-31 176q0 85 21.5 146.5t58.5 100.5t97 62.5t128 32t159 8.5zM531 34q84 0 145 7t115.5 27t87.5 54t52 89 t19 131t-19 131t-52 89t-87.5 54t-115.5 27t-145 7t-145 -7t-115.5 -27t-87.5 -54t-52 -89t-19 -131t19 -131t52 -89t87.5 -54t115.5 -27t145 -7zM475 753l138 181h54l-150 -181h-42z" horiz-adv-x="1062" glyph-name="Oacute" unicode="Ó"/>
<glyph d="M531 692q91 0 159 -8.5t128 -32t97 -62.5t58.5 -100.5t21.5 -146.5q0 -106 -31 -176t-94.5 -108t-143.5 -52.5t-195 -14.5t-195 14.5t-143.5 52.5t-94.5 108t-31 176q0 85 21.5 146.5t58.5 100.5t97 62.5t128 32t159 8.5zM531 34q84 0 145 7t115.5 27t87.5 54t52 89 t19 131t-19 131t-52 89t-87.5 54t-115.5 27t-145 7t-145 -7t-115.5 -27t-87.5 -54t-52 -89t-19 -131t19 -131t52 -89t87.5 -54t115.5 -27t145 -7zM343 753l162 173h53l162 -173h-45l-144 143l-143 -143h-45z" horiz-adv-x="1062" glyph-name="Ocircumflex" unicode="Ô"/>
<glyph d="M531 692q91 0 159 -8.5t128 -32t97 -62.5t58.5 -100.5t21.5 -146.5q0 -106 -31 -176t-94.5 -108t-143.5 -52.5t-195 -14.5t-195 14.5t-143.5 52.5t-94.5 108t-31 176q0 85 21.5 146.5t58.5 100.5t97 62.5t128 32t159 8.5zM531 34q84 0 145 7t115.5 27t87.5 54t52 89 t19 131t-19 131t-52 89t-87.5 54t-115.5 27t-145 7t-145 -7t-115.5 -27t-87.5 -54t-52 -89t-19 -131t19 -131t52 -89t87.5 -54t115.5 -27t145 -7zM638 786q69 0 89 107h31q-2 -18 -7.5 -37.5t-18 -46t-37 -43.5t-57.5 -17t-65.5 17t-53.5 37.5t-49.5 37.5t-54.5 17 q-30 0 -51 -22.5t-27.5 -42.5t-9.5 -41h-33q2 18 7.5 37.5t18 45.5t37.5 43t58 17t65.5 -17t53.5 -37.5t49.5 -37.5t54.5 -17z" horiz-adv-x="1062" glyph-name="Otilde" unicode="Õ"/>
<glyph d="M531 692q91 0 159 -8.5t128 -32t97 -62.5t58.5 -100.5t21.5 -146.5q0 -106 -31 -176t-94.5 -108t-143.5 -52.5t-195 -14.5t-195 14.5t-143.5 52.5t-94.5 108t-31 176q0 85 21.5 146.5t58.5 100.5t97 62.5t128 32t159 8.5zM531 34q84 0 145 7t115.5 27t87.5 54t52 89 t19 131t-19 131t-52 89t-87.5 54t-115.5 27t-145 7t-145 -7t-115.5 -27t-87.5 -54t-52 -89t-19 -131t19 -131t52 -89t87.5 -54t115.5 -27t145 -7zM427 893v-127h-46v127h46zM680 893v-127h-45v127h45z" horiz-adv-x="1062" glyph-name="Odieresis" unicode="Ö"/>
<glyph d="M375 346l237 -194l-24 -29l-242 198l-241 -198l-23 29l236 194l-236 194l23 29l241 -199l242 199l24 -29z" horiz-adv-x="694" glyph-name="multiply" unicode="×"/>
<glyph d="M531 692q262 0 365 -86l102 70l14 -20l-98 -67q81 -83 81 -247q0 -106 -31 -176t-94.5 -108t-143.5 -52.5t-195 -14.5q-262 0 -366 87l-101 -70l-14 20l97 66q-80 82 -80 248q0 85 21.5 146.5t58.5 100.5t97 62.5t128 32t159 8.5zM112 342q0 -153 74 -222l669 459 q-90 71 -324 71q-84 0 -145 -7t-115.5 -27t-87.5 -54t-52 -89t-19 -131zM531 34q84 0 145 7t115.5 27t87.5 54t52 89t19 131q0 148 -74 222l-670 -460q92 -70 325 -70z" horiz-adv-x="1062" glyph-name="Oslash" unicode="Ø"/>
<glyph d="M426 934l138 -181h-42l-150 181h54zM96 320v364h44v-364q0 -160 78.5 -222.5t283.5 -62.5q207 0 285.5 62.5t78.5 222.5v364h45v-364q0 -180 -91 -254.5t-318 -74.5q-221 0 -313.5 73t-92.5 256z" horiz-adv-x="1008" glyph-name="Ugrave" unicode="Ù"/>
<glyph d="M453 753l138 181h54l-150 -181h-42zM96 320v364h44v-364q0 -160 78.5 -222.5t283.5 -62.5q207 0 285.5 62.5t78.5 222.5v364h45v-364q0 -180 -91 -254.5t-318 -74.5q-221 0 -313.5 73t-92.5 256z" horiz-adv-x="1008" glyph-name="Uacute" unicode="Ú"/>
<glyph d="M315 753l162 173h53l162 -173h-45l-144 143l-143 -143h-45zM96 320v364h44v-364q0 -160 78.5 -222.5t283.5 -62.5q207 0 285.5 62.5t78.5 222.5v364h45v-364q0 -180 -91 -254.5t-318 -74.5q-221 0 -313.5 73t-92.5 256z" horiz-adv-x="1008" glyph-name="Ucircumflex" unicode="Û"/>
<glyph d="M399 893v-127h-45v127h45zM653 893v-127h-46v127h46zM96 320v364h44v-364q0 -160 78.5 -222.5t283.5 -62.5q207 0 285.5 62.5t78.5 222.5v364h45v-364q0 -180 -91 -254.5t-318 -74.5q-221 0 -313.5 73t-92.5 256z" horiz-adv-x="1008" glyph-name="Udieresis" unicode="Ü"/>
<glyph d="M379 753l138 181h54l-150 -181h-42zM13 684h65l260 -267q75 -77 95 -134q21 58 95 134l261 267h64l-299 -303q-98 -101 -98 -164v-217h-45v217q0 62 -99 164z" horiz-adv-x="867" glyph-name="Yacute" unicode="Ý"/>
<glyph d="M105 684h45v-127h527q108 0 170 -59.5t62 -150.5t-62 -150.5t-170 -59.5h-527v-137h-45v684zM150 178h529q89 0 136.5 50t47.5 119q0 70 -47.5 119.5t-136.5 49.5h-529v-338z" horiz-adv-x="952" glyph-name="Thorn" unicode="Þ"/>
<glyph d="M51 41h596q194 0 194 136q0 64 -48 97.5t-155 42.5l-342 29q-225 19 -225 174q0 82 56 123t154 41h555v-41h-558q-162 0 -162 -122q0 -61 45.5 -93.5t144.5 -40.5l338 -28q124 -11 183.5 -54t59.5 -127q0 -86 -60.5 -132t-181.5 -46h-594v41zM1001 41h596q194 0 194 136 q0 64 -48 97.5t-155 42.5l-342 29q-225 19 -225 174q0 82 56 123t154 41h555v-41h-558q-162 0 -162 -122q0 -61 45.5 -93.5t144.5 -40.5l338 -28q124 -11 183.5 -54t59.5 -127q0 -86 -60.5 -132t-181.5 -46h-594v41z" horiz-adv-x="1886" glyph-name="germandbls" unicode="ß"/>
<glyph d="M679 553l263 -553h-48l-105 221h-595l-105 -221h-48l263 553q35 73 79 106t108 33t108.5 -33t79.5 -106zM769 261l-134 281q-25 54 -58.5 82t-85.5 28q-51 0 -84.5 -28t-58.5 -82l-134 -281h555zM404 934l138 -181h-42l-150 181h54z" glyph-name="agrave" unicode="à"/>
<glyph d="M679 553l263 -553h-48l-105 221h-595l-105 -221h-48l263 553q35 73 79 106t108 33t108.5 -33t79.5 -106zM769 261l-134 281q-25 54 -58.5 82t-85.5 28q-51 0 -84.5 -28t-58.5 -82l-134 -281h555zM428 753l137 181h54l-149 -181h-42z" glyph-name="aacute" unicode="á"/>
<glyph d="M679 553l263 -553h-48l-105 221h-595l-105 -221h-48l263 553q35 73 79 106t108 33t108.5 -33t79.5 -106zM769 261l-134 281q-25 54 -58.5 82t-85.5 28q-51 0 -84.5 -28t-58.5 -82l-134 -281h555zM303 753l162 173h53l162 -173h-45l-144 143l-143 -143h-45z" glyph-name="acircumflex" unicode="â"/>
<glyph d="M679 553l263 -553h-48l-105 221h-595l-105 -221h-48l263 553q35 73 79 106t108 33t108.5 -33t79.5 -106zM769 261l-134 281q-25 54 -58.5 82t-85.5 28q-51 0 -84.5 -28t-58.5 -82l-134 -281h555zM606 786q69 0 89 107h31q-2 -18 -7.5 -37.5t-18 -46t-37 -43.5t-57.5 -17 t-65.5 17t-53.5 37.5t-49.5 37.5t-54.5 17q-30 0 -51 -22.5t-27.5 -42.5t-9.5 -41h-33q2 18 7.5 37.5t18 45.5t37.5 43t58 17t65.5 -17t53.5 -37.5t49.5 -37.5t54.5 -17z" glyph-name="atilde" unicode="ã"/>
<glyph d="M679 553l263 -553h-48l-105 221h-595l-105 -221h-48l263 553q35 73 79 106t108 33t108.5 -33t79.5 -106zM769 261l-134 281q-25 54 -58.5 82t-85.5 28q-51 0 -84.5 -28t-58.5 -82l-134 -281h555zM388 893v-127h-46v127h46zM641 893v-127h-46v127h46z" glyph-name="adieresis" unicode="ä"/>
<glyph d="M679 553l263 -553h-48l-105 221h-595l-105 -221h-48l263 553q51 106 128 128q-36 14 -58 46.5t-22 73.5q0 58 40.5 98.5t98.5 40.5t99 -40.5t41 -98.5q0 -40 -22.5 -72.5t-58.5 -47.5q77 -22 129 -128zM769 261l-134 281q-25 54 -58.5 82t-85.5 28q-51 0 -84.5 -28 t-58.5 -82l-134 -281h555zM491 693q44 0 76 31.5t32 76.5q0 44 -32 75.5t-76 31.5t-75.5 -31.5t-31.5 -75.5q0 -45 31.5 -76.5t75.5 -31.5z" glyph-name="aring" unicode="å"/>
<glyph d="M71 0h-49l322 556q40 68 85 98t107 30h853v-41h-743q43 -22 70 -99l64 -182h584v-39h-570l99 -282h496v-41h-530l-75 213h-590zM385 540l-168 -288h554l-98 279q-18 53 -50 83.5t-90 30.5q-50 0 -83 -25t-65 -80z" horiz-adv-x="1449" glyph-name="ae" unicode="æ"/>
<glyph d="M922 684v-44h-518q-157 0 -223 -69.5t-66 -228.5t66 -228.5t223 -69.5h518v-44h-535q-164 0 -241 83.5t-77 259.5q0 174 76.5 257.5t241.5 83.5h535zM451 -246h131q107 0 107 74q0 73 -103 73h-92l35 114h44l-27 -79h48q65 0 100.5 -29.5t35.5 -79.5q0 -54 -40.5 -81.5 t-108.5 -27.5h-138z" horiz-adv-x="964" glyph-name="ccedilla" unicode="ç"/>
<glyph d="M464 934l138 -181h-42l-150 181h54zM920 641h-534q-140 0 -205.5 -68t-67.5 -211h789v-41h-789q3 -142 68 -210t205 -68h534v-43h-534q-166 0 -242 84t-76 259q0 174 76.5 257.5t241.5 83.5h534v-43z" horiz-adv-x="982" glyph-name="egrave" unicode="è"/>
<glyph d="M491 753l138 181h54l-150 -181h-42zM920 641h-534q-140 0 -205.5 -68t-67.5 -211h789v-41h-789q3 -142 68 -210t205 -68h534v-43h-534q-166 0 -242 84t-76 259q0 174 76.5 257.5t241.5 83.5h534v-43z" horiz-adv-x="982" glyph-name="eacute" unicode="é"/>
<glyph d="M920 641h-534q-140 0 -205.5 -68t-67.5 -211h789v-41h-789q3 -142 68 -210t205 -68h534v-43h-534q-166 0 -242 84t-76 259q0 174 76.5 257.5t241.5 83.5h534v-43zM362 753l162 173h53l162 -173h-45l-144 143l-143 -143h-45z" horiz-adv-x="982" glyph-name="ecircumflex" unicode="ê"/>
<glyph d="M446 893v-127h-46v127h46zM699 893v-127h-46v127h46zM920 641h-534q-140 0 -205.5 -68t-67.5 -211h789v-41h-789q3 -142 68 -210t205 -68h534v-43h-534q-166 0 -242 84t-76 259q0 174 76.5 257.5t241.5 83.5h534v-43z" horiz-adv-x="982" glyph-name="edieresis" unicode="ë"/>
<glyph d="M105 684h44v-684h-44v684zM45 934l138 -181h-42l-150 181h54z" horiz-adv-x="254" glyph-name="igrave" unicode="ì"/>
<glyph d="M105 684h44v-684h-44v684zM70 753l138 181h54l-150 -181h-42z" horiz-adv-x="254" glyph-name="iacute" unicode="í"/>
<glyph d="M105 684h44v-684h-44v684zM-61 753l162 173h53l162 -173h-45l-144 143l-143 -143h-45z" horiz-adv-x="254" glyph-name="icircumflex" unicode="î"/>
<glyph d="M105 684h44v-684h-44v684zM23 893v-127h-46v127h46zM276 893v-127h-45v127h45z" horiz-adv-x="254" glyph-name="idieresis" unicode="ï"/>
<glyph d="M144 0v327h-119v39h119v318h551q166 0 242.5 -84t76.5 -258q0 -176 -77 -259t-242 -83h-551zM968 342q0 152 -64 225t-209 73h-506v-274h441v-39h-441v-283h506q146 0 209.5 72.5t63.5 225.5z" horiz-adv-x="1083" glyph-name="eth" unicode="ð"/>
<glyph d="M150 639v-639h-45v684h50q30 0 52.5 -2t47 -12t41 -18t42.5 -32t42.5 -41.5t50.5 -60t57 -73t71 -93.5q143 -188 184 -232q59 -62 119 -72q21 -4 49 -4h15v640h45v-684h-49q-39 0 -66.5 4t-59 22t-52.5 34.5t-61 62.5t-69 83t-91 119q-148 196 -193 241q-58 60 -117 70 q-20 3 -48 3h-15zM668 786q69 0 89 107h31q-2 -18 -7.5 -37.5t-18 -46t-37 -43.5t-57.5 -17t-65.5 17t-53.5 37.5t-49.5 37.5t-54.5 17q-30 0 -51 -22.5t-27.5 -42.5t-9.5 -41h-33q2 18 7.5 37.5t18 45.5t37.5 43t58 17t65.5 -17t53.5 -37.5t49.5 -37.5t54.5 -17z" horiz-adv-x="1076" glyph-name="ntilde" unicode="ñ"/>
<glyph d="M531 692q91 0 159 -8.5t128 -32t97 -62.5t58.5 -100.5t21.5 -146.5q0 -106 -31 -176t-94.5 -108t-143.5 -52.5t-195 -14.5t-195 14.5t-143.5 52.5t-94.5 108t-31 176q0 85 21.5 146.5t58.5 100.5t97 62.5t128 32t159 8.5zM531 34q84 0 145 7t115.5 27t87.5 54t52 89 t19 131t-19 131t-52 89t-87.5 54t-115.5 27t-145 7t-145 -7t-115.5 -27t-87.5 -54t-52 -89t-19 -131t19 -131t52 -89t87.5 -54t115.5 -27t145 -7zM444 934l138 -181h-42l-150 181h54z" horiz-adv-x="1062" glyph-name="ograve" unicode="ò"/>
<glyph d="M531 692q91 0 159 -8.5t128 -32t97 -62.5t58.5 -100.5t21.5 -146.5q0 -106 -31 -176t-94.5 -108t-143.5 -52.5t-195 -14.5t-195 14.5t-143.5 52.5t-94.5 108t-31 176q0 85 21.5 146.5t58.5 100.5t97 62.5t128 32t159 8.5zM531 34q84 0 145 7t115.5 27t87.5 54t52 89 t19 131t-19 131t-52 89t-87.5 54t-115.5 27t-145 7t-145 -7t-115.5 -27t-87.5 -54t-52 -89t-19 -131t19 -131t52 -89t87.5 -54t115.5 -27t145 -7zM475 753l138 181h54l-150 -181h-42z" horiz-adv-x="1062" glyph-name="oacute" unicode="ó"/>
<glyph d="M531 692q91 0 159 -8.5t128 -32t97 -62.5t58.5 -100.5t21.5 -146.5q0 -106 -31 -176t-94.5 -108t-143.5 -52.5t-195 -14.5t-195 14.5t-143.5 52.5t-94.5 108t-31 176q0 85 21.5 146.5t58.5 100.5t97 62.5t128 32t159 8.5zM531 34q84 0 145 7t115.5 27t87.5 54t52 89 t19 131t-19 131t-52 89t-87.5 54t-115.5 27t-145 7t-145 -7t-115.5 -27t-87.5 -54t-52 -89t-19 -131t19 -131t52 -89t87.5 -54t115.5 -27t145 -7zM343 753l162 173h53l162 -173h-45l-144 143l-143 -143h-45z" horiz-adv-x="1062" glyph-name="ocircumflex" unicode="ô"/>
<glyph d="M531 692q91 0 159 -8.5t128 -32t97 -62.5t58.5 -100.5t21.5 -146.5q0 -106 -31 -176t-94.5 -108t-143.5 -52.5t-195 -14.5t-195 14.5t-143.5 52.5t-94.5 108t-31 176q0 85 21.5 146.5t58.5 100.5t97 62.5t128 32t159 8.5zM531 34q84 0 145 7t115.5 27t87.5 54t52 89 t19 131t-19 131t-52 89t-87.5 54t-115.5 27t-145 7t-145 -7t-115.5 -27t-87.5 -54t-52 -89t-19 -131t19 -131t52 -89t87.5 -54t115.5 -27t145 -7zM638 786q69 0 89 107h31q-2 -18 -7.5 -37.5t-18 -46t-37 -43.5t-57.5 -17t-65.5 17t-53.5 37.5t-49.5 37.5t-54.5 17 q-30 0 -51 -22.5t-27.5 -42.5t-9.5 -41h-33q2 18 7.5 37.5t18 45.5t37.5 43t58 17t65.5 -17t53.5 -37.5t49.5 -37.5t54.5 -17z" horiz-adv-x="1062" glyph-name="otilde" unicode="õ"/>
<glyph d="M531 692q91 0 159 -8.5t128 -32t97 -62.5t58.5 -100.5t21.5 -146.5q0 -106 -31 -176t-94.5 -108t-143.5 -52.5t-195 -14.5t-195 14.5t-143.5 52.5t-94.5 108t-31 176q0 85 21.5 146.5t58.5 100.5t97 62.5t128 32t159 8.5zM531 34q84 0 145 7t115.5 27t87.5 54t52 89 t19 131t-19 131t-52 89t-87.5 54t-115.5 27t-145 7t-145 -7t-115.5 -27t-87.5 -54t-52 -89t-19 -131t19 -131t52 -89t87.5 -54t115.5 -27t145 -7zM427 893v-127h-46v127h46zM680 893v-127h-45v127h45z" horiz-adv-x="1062" glyph-name="odieresis" unicode="ö"/>
<glyph d="M706 366v-39h-616v39h616zM422 633v-116h-48v116h48zM422 176v-116h-48v116h48z" horiz-adv-x="796" glyph-name="divide" unicode="÷"/>
<glyph d="M531 692q262 0 365 -86l102 70l14 -20l-98 -67q81 -83 81 -247q0 -106 -31 -176t-94.5 -108t-143.5 -52.5t-195 -14.5q-262 0 -366 87l-101 -70l-14 20l97 66q-80 82 -80 248q0 85 21.5 146.5t58.5 100.5t97 62.5t128 32t159 8.5zM112 342q0 -153 74 -222l669 459 q-90 71 -324 71q-84 0 -145 -7t-115.5 -27t-87.5 -54t-52 -89t-19 -131zM531 34q84 0 145 7t115.5 27t87.5 54t52 89t19 131q0 148 -74 222l-670 -460q92 -70 325 -70z" horiz-adv-x="1062" glyph-name="oslash" unicode="ø"/>
<glyph d="M426 934l138 -181h-42l-150 181h54zM96 320v364h44v-364q0 -160 78.5 -222.5t283.5 -62.5q207 0 285.5 62.5t78.5 222.5v364h45v-364q0 -180 -91 -254.5t-318 -74.5q-221 0 -313.5 73t-92.5 256z" horiz-adv-x="1008" glyph-name="ugrave" unicode="ù"/>
<glyph d="M453 753l138 181h54l-150 -181h-42zM96 320v364h44v-364q0 -160 78.5 -222.5t283.5 -62.5q207 0 285.5 62.5t78.5 222.5v364h45v-364q0 -180 -91 -254.5t-318 -74.5q-221 0 -313.5 73t-92.5 256z" horiz-adv-x="1008" glyph-name="uacute" unicode="ú"/>
<glyph d="M315 753l162 173h53l162 -173h-45l-144 143l-143 -143h-45zM96 320v364h44v-364q0 -160 78.5 -222.5t283.5 -62.5q207 0 285.5 62.5t78.5 222.5v364h45v-364q0 -180 -91 -254.5t-318 -74.5q-221 0 -313.5 73t-92.5 256z" horiz-adv-x="1008" glyph-name="ucircumflex" unicode="û"/>
<glyph d="M399 893v-127h-45v127h45zM653 893v-127h-46v127h46zM96 320v364h44v-364q0 -160 78.5 -222.5t283.5 -62.5q207 0 285.5 62.5t78.5 222.5v364h45v-364q0 -180 -91 -254.5t-318 -74.5q-221 0 -313.5 73t-92.5 256z" horiz-adv-x="1008" glyph-name="udieresis" unicode="ü"/>
<glyph d="M379 753l138 181h54l-150 -181h-42zM13 684h65l260 -267q75 -77 95 -134q21 58 95 134l261 267h64l-299 -303q-98 -101 -98 -164v-217h-45v217q0 62 -99 164z" horiz-adv-x="867" glyph-name="yacute" unicode="ý"/>
<glyph d="M105 684h45v-127h527q108 0 170 -59.5t62 -150.5t-62 -150.5t-170 -59.5h-527v-137h-45v684zM150 178h529q89 0 136.5 50t47.5 119q0 70 -47.5 119.5t-136.5 49.5h-529v-338z" horiz-adv-x="952" glyph-name="thorn" unicode="þ"/>
</font>
</defs>
</svg>
